<svg width="67" height="86" viewBox="0 0 67 86" fill="none" xmlns="http://www.w3.org/2000/svg">
<path d="M29.0309 0C27.8309 0 21.8642 8.33333 19.0309 12.5C13.8309 29.3 17.8642 39.5 20.5309 42.5C22.9309 45.7 35.5309 54 41.5309 57.5C51.9309 68.7 45.3333 80.7225 41 85.7225C53.8 76.1225 62.8642 57.6667 65.5309 49.5C68.3309 36.3 60.3642 24 56.0309 19.5C54.8309 19.5 37.5309 6.5 29.0309 0Z" fill="#424242"/>
<path d="M19.3863 62C19.7441 60.9267 19.7196 59 19.3863 57.5L34.8863 56L51.8863 63C48.8863 66 35.3863 69 28.3863 68.5C27.623 68.4455 15.3863 67.5 13.8863 66C15.8863 65 18.8863 63.5 19.3863 62Z" fill="#B7D68A"/>
<circle cx="25" cy="25" r="25" transform="matrix(-1 0 0 1 63.8863 17)" fill="#BDBDBD"/>
<path d="M46.4737 44.6739L46.6619 43.3569C46.7906 42.4556 47.5626 41.7861 48.4731 41.7861C48.7451 41.7861 49.0184 41.8401 49.2482 41.9856C49.7366 42.2948 50.0739 42.6848 50.3126 43.0587C50.7909 43.8081 50.8834 44.7613 50.7091 45.6331C49.7028 50.6656 45.1903 52.8252 42.8863 53.286C40.1431 53.6289 37.6939 53.5064 36.4206 53.3595C36.0637 53.3183 35.7156 53.223 35.39 53.0712C32.1907 51.5797 30.1366 48.5295 29.2276 46.5971C28.9795 46.0697 28.8863 45.4879 28.8863 44.9052V44.5V43.959C28.8863 43.6539 28.9202 43.3499 28.9874 43.0524C29.2416 41.9269 30.0151 40.9936 31.1673 41.0554C31.7303 41.0855 32.2894 41.2075 32.6331 41.4815C32.8408 41.6471 32.923 41.9146 32.996 42.17L33.7682 44.8727C33.8381 45.1174 34.0618 45.2861 34.3163 45.2861C34.6311 45.2861 34.8847 45.0295 34.8961 44.7149C34.9407 43.4728 35.1319 42.8508 35.3346 42.5448C35.5752 42.1815 36.1114 42.2865 36.5472 42.2825C39.261 42.2574 44.0573 42.1281 44.3863 42.786C44.7908 43.595 44.9771 44.404 45.21 44.9483C45.3038 45.1675 45.5295 45.2861 45.7679 45.2861C46.1227 45.2861 46.4236 45.0252 46.4737 44.6739Z" fill="#262626"/>
<ellipse class="yurei-left-eye" cx="1.59787" cy="2.1305" rx="1.59787" ry="2.1305" transform="matrix(-0.838932 0.544237 0.544237 0.838932 47.5673 35)" fill="#262626"/>
<ellipse class="yurei-right-eye" cx="1.59787" cy="2.1305" rx="1.59787" ry="2.1305" transform="matrix(-0.972823 -0.231552 -0.231552 0.972823 34.8863 35.74)" fill="#262626"/>
<path d="M36.2135 17.4738C35.8681 17.3 35.4257 17.2303 34.8863 17.5C33.786 18.0501 32.1124 17.9681 31.3743 16.984L30.1624 15.3681C29.1589 14.0301 27.2966 13.6861 25.8813 14.5772L17.7937 19.6694C16.1723 20.6903 15.652 22.8127 16.6175 24.4677L17.4525 25.8993C17.9701 26.7865 17.678 27.925 16.7972 28.4535L16.7062 28.508C16.1975 28.8132 15.8863 29.363 15.8863 29.9562C15.8863 30.5959 16.2477 31.1807 16.8199 31.4668L16.9321 31.5229C17.5244 31.819 18.2284 31.7839 18.7883 31.4303L35.9209 20.6097C36.5219 20.2302 36.8863 19.569 36.8863 18.8581C36.8863 18.3087 36.7043 17.7207 36.2135 17.4738Z" fill="#353143"/>
<path d="M20.5309 42C14.1309 32.8 16.8642 18.8333 19.0309 13C4.23089 27.8 0.864234 38.5 1.03091 42C-1.36909 66.4 26.6976 81.5 41.0309 86C53.8309 71.2 44.6976 59.1667 38.5309 55C27.7309 49 22.0309 43.8333 20.5309 42Z" fill="#424242"/>
</svg>
