<svg width="66" height="86" viewBox="0 0 66 86" fill="none" xmlns="http://www.w3.org/2000/svg">
<path d="M28.1446 0C26.9446 0 20.978 8.33333 18.1446 12.5C12.9446 29.3 16.978 39.5 19.6446 42.5C22.0446 45.7 34.6446 54 40.6446 57.5C51.0446 68.7 44.447 80.7225 40.1137 85.7225C52.9137 76.1225 61.978 57.6667 64.6446 49.5C67.4446 36.3 59.478 24 55.1446 19.5C53.9446 19.5 36.6446 6.5 28.1446 0Z" fill="#424242"/>
<path d="M18.5 62C18.8578 60.9267 18.8333 59 18.5 57.5L34 56L51 63C48 66 34.5 69 27.5 68.5C26.7367 68.4455 14.5 67.5 13 66C15 65 18 63.5 18.5 62Z" fill="#B7D68A"/>
<circle cx="25" cy="25" r="25" transform="matrix(-1 0 0 1 63 17)" fill="#BDBDBD"/>
<ellipse class="yurei-left-eye" cx="1.59787" cy="2.1305" rx="1.59787" ry="2.1305" transform="matrix(-0.838932 0.544237 0.544237 0.838932 46.681 35)" fill="#262626"/>
<ellipse class="yurei-right-eye" cx="1.59787" cy="2.1305" rx="1.59787" ry="2.1305" transform="matrix(-0.972823 -0.231552 -0.231552 0.972823 34 35.74)" fill="#262626"/>
<path d="M48 49.5C48 47.5109 47.2098 45.6032 45.8033 44.1967C44.3968 42.7902 42.4891 42 40.5 42C38.5109 42 36.6032 42.7902 35.1967 44.1967C33.7902 45.6032 33 47.5109 33 49.5L34 48.5C34 46.9898 35.4057 46.5414 36.4736 45.4736C37.5414 44.4057 38.9898 43.8058 40.5 43.8058C42.0102 43.8058 43.4586 44.4057 44.5264 45.4736C45.5943 46.5414 47 46.9898 47 48.5L48 49.5Z" fill="#262626"/>
<ellipse class="yurei-tear" cx="32" cy="43" rx="1" ry="2" fill="#5F5F5F"/>
<path d="M35.3272 17.4738C34.9818 17.3 34.5394 17.2303 34 17.5C32.8997 18.0501 31.2261 17.9681 30.488 16.984L29.2761 15.3681C28.2726 14.0301 26.4103 13.6861 24.995 14.5772L16.9075 19.6694C15.286 20.6903 14.7657 22.8127 15.7312 24.4677L16.5662 25.8993C17.0838 26.7865 16.7917 27.925 15.9109 28.4535L15.82 28.508C15.3113 28.8132 15 29.363 15 29.9562C15 30.5959 15.3614 31.1807 15.9336 31.4668L16.0458 31.5229C16.6381 31.819 17.3421 31.7839 17.902 31.4303L35.0346 20.6097C35.6356 20.2302 36 19.569 36 18.8581C36 18.3087 35.818 17.7207 35.3272 17.4738Z" fill="#353143"/>
<path d="M19.6446 42C13.2446 32.8 15.9779 18.8333 18.1446 13C3.34459 27.8 -0.0220573 38.5 0.144618 42C-2.25538 66.4 25.8113 81.5 40.1446 86C52.9446 71.2 43.8113 59.1667 37.6446 55C26.8446 49 21.1446 43.8333 19.6446 42Z" fill="#424242"/>
</svg>
