<svg height="24" viewBox="0 0 24 24" width="24" xmlns="http://www.w3.org/2000/svg"><symbol id="svg-search" viewBox="0 0 24 24"><path d="m6.778 15.231a6.16 6.16 0 0 1 0-8.699 6.135 6.135 0 0 1 4.35-1.798c1.573 0 3.15.6 4.347 1.798a6.159 6.159 0 0 1 0 8.7 6.159 6.159 0 0 1 -8.697 0m14.123 3.867-3.149-3.148c2.505-3.272 2.27-7.983-.72-10.974-3.257-3.256-8.554-3.256-11.81 0-3.255 3.256-3.255 8.553 0 11.81a8.324 8.324 0 0 0 5.905 2.441 8.322 8.322 0 0 0 5.068-1.722l3.15 3.15a1.099 1.099 0 0 0 1.556 0 1.101 1.101 0 0 0 0-1.557" fill="currentColor" fill-rule="evenodd"></path></symbol><use href="#svg-search"></use></svg>