<svg height="24" viewBox="0 0 25 24" width="25" xmlns="http://www.w3.org/2000/svg">
    <symbol id="svg-external-link" viewBox="0 0 25 24">
        <path d="m18 19h-12c-.55 0-1-.45-1-1v-12c0-.55.45-1 1-1h5c.55 0 1-.45 1-1s-.45-1-1-1h-6a2 2 0 0 0 -2 2v14c0 1.1.9 2 2 2h14c1.1 0 2-.9 2-2v-6c0-.55-.45-1-1-1s-1 .45-1 1v5c0 .55-.45 1-1 1zm-4-15c0 .55.45 1 1 1h2.59l-9.13 9.13a.996.996 0 1 0 1.41 1.41l9.13-9.13v2.59c0 .55.45 1 1 1s1-.45 1-1v-5c0-.55-.45-1-1-1h-5c-.55 0-1 .45-1 1z" fill="currentColor" fill-rule="evenodd" transform="translate(1)"></path>
    </symbol>
    <use href="#svg-external-link"></use>
</svg>
