<svg width="54" height="56" viewBox="0 0 54 56" fill="none" xmlns="http://www.w3.org/2000/svg">
<symbol id="svg-yurei-green" viewBox="0 0 54 56">
<path d="M6.3863 49C6.74407 47.9267 6.71963 46 6.3863 44.5L21.8863 43L38.8863 50C35.8863 53 22.3863 56 15.3863 55.5C14.623 55.4455 2.38628 54.5 0.886292 53C2.88629 52 5.88629 50.5 6.3863 49Z" fill="#B7D68A"/>
<circle cx="25" cy="25" r="25" transform="matrix(-1 0 0 1 50.8863 4)" fill="#B7D68A"/>
<path d="M33.4737 31.6739L33.6619 30.3569C33.7906 29.4556 34.5626 28.7861 35.4731 28.7861C35.7451 28.7861 36.0184 28.8401 36.2482 28.9856C36.7366 29.2948 37.0739 29.6848 37.3126 30.0587C37.7909 30.8081 37.8834 31.7613 37.7091 32.6331C36.7028 37.6656 32.1903 39.8252 29.8863 40.286C27.1431 40.6289 24.6939 40.5064 23.4206 40.3595C23.0637 40.3183 22.7156 40.223 22.39 40.0712C19.1907 38.5797 17.1366 35.5295 16.2276 33.5971C15.9795 33.0697 15.8863 32.4879 15.8863 31.9052V31.5V30.959C15.8863 30.6539 15.9202 30.3499 15.9874 30.0524C16.2416 28.9269 17.0151 27.9936 18.1673 28.0554C18.7303 28.0855 19.2894 28.2075 19.6331 28.4815C19.8408 28.6471 19.923 28.9146 19.996 29.17L20.7682 31.8727C20.8381 32.1174 21.0618 32.2861 21.3163 32.2861C21.6311 32.2861 21.8847 32.0295 21.8961 31.7149C21.9407 30.4728 22.1319 29.8508 22.3346 29.5448C22.5752 29.1815 23.1114 29.2865 23.5472 29.2825C26.261 29.2574 31.0573 29.1281 31.3863 29.786C31.7908 30.595 31.9771 31.404 32.21 31.9483C32.3038 32.1675 32.5295 32.2861 32.7679 32.2861C33.1227 32.2861 33.4236 32.0252 33.4737 31.6739Z" fill="#262626"/>
<ellipse class="yurei-left-eye" cx="1.59787" cy="2.1305" rx="1.59787" ry="2.1305" transform="matrix(-0.838932 0.544237 0.544237 0.838932 34.5673 22)" fill="#262626"/>
<ellipse class="yurei-right-eye" cx="1.59787" cy="2.1305" rx="1.59787" ry="2.1305" transform="matrix(-0.972823 -0.231552 -0.231552 0.972823 21.8863 22.74)" fill="#262626"/>
<path d="M23.2135 4.4738C22.8681 4.30004 22.4257 4.23031 21.8863 4.5C20.786 5.05013 19.1124 4.96812 18.3743 3.98402L17.1624 2.3681C16.1589 1.03013 14.2966 0.686082 12.8813 1.57719L4.79375 6.66938C3.17233 7.69027 2.65203 9.8127 3.61747 11.4677L4.45252 12.8993C4.97008 13.7865 4.67799 14.925 3.7972 15.4535L3.70625 15.508C3.19755 15.8132 2.88629 16.363 2.88629 16.9562C2.88629 17.5959 3.24771 18.1807 3.81988 18.4668L3.93206 18.5229C4.52437 18.819 5.22841 18.7839 5.78831 18.4303L22.9209 7.60975C23.5219 7.23017 23.8863 6.56897 23.8863 5.85813C23.8863 5.30868 23.7043 4.72072 23.2135 4.4738Z" fill="#353143"/>
</symbol><use xlink:href="#svg-yurei-green"></use>
</svg>
