<svg width="76" height="86" viewBox="0 0 76 86" fill="none" xmlns="http://www.w3.org/2000/svg">
<symbol id="svg-yurei" viewBox="0 0 76 86">
<path d="M12.6504 68.8072C13.1229 67.3896 13.0906 64.8449 12.6504 62.8638L33.1221 60.8826L55.5749 70.1279C51.6126 74.0902 33.7824 78.0524 24.5372 77.3921C23.529 77.3201 7.36732 76.0713 5.38622 74.0902C8.02772 72.7694 11.99 70.7883 12.6504 68.8072Z" fill="#C0BAD8"/>
<circle cx="33.0189" cy="33.0189" r="33.0189" transform="matrix(-1 0 0 1 71.424 9.3732)" fill="#C0BAD8"/>
<path d="M48.4263 45.9236L48.6747 44.1843C48.8448 42.9938 49.8644 42.1095 51.0669 42.1095C51.4262 42.1095 51.7871 42.1809 52.0907 42.3731C52.7356 42.7814 53.1812 43.2966 53.4964 43.7904C54.1281 44.7801 54.2504 46.0391 54.0202 47.1905C52.691 53.8372 46.7312 56.6895 43.6881 57.2981C40.0651 57.751 36.8303 57.5892 35.1485 57.3951C34.6771 57.3407 34.2174 57.2149 33.7873 57.0144C29.5619 55.0445 26.8489 51.0159 25.6483 48.4636C25.3206 47.7672 25.1975 46.9988 25.1975 46.2291V45.6939V44.9794C25.1975 44.5765 25.2423 44.1749 25.3311 43.782C25.6668 42.2955 26.6884 41.0628 28.2102 41.1444C28.9538 41.1843 29.6923 41.3453 30.1462 41.7073C30.4204 41.926 30.5291 42.2793 30.6254 42.6166L31.6453 46.1861C31.7377 46.5094 32.0331 46.7322 32.3692 46.7322C32.785 46.7322 33.12 46.3933 33.135 45.9777C33.1939 44.3372 33.4465 43.5157 33.7141 43.1116C34.032 42.6317 34.7402 42.7705 35.3157 42.7652C38.8999 42.732 45.2348 42.5613 45.6692 43.4302C46.2035 44.4987 46.4496 45.5672 46.7572 46.2861C46.8811 46.5756 47.1791 46.7322 47.494 46.7322C47.9626 46.7322 48.36 46.3876 48.4263 45.9236Z" fill="#262626"/>
<ellipse class="yurei-right-eye" cx="2.1104" cy="2.81386" rx="2.1104" ry="2.81386" transform="matrix(-0.838932 0.544237 0.544237 0.838932 49.8706 33.1468)" fill="#262626"/>
<ellipse class="yurei-left-eye" cx="2.1104" cy="2.81386" rx="2.1104" ry="2.81386" transform="matrix(-0.972823 -0.231552 -0.231552 0.972823 33.1221 34.1241)" fill="#262626"/>
<path class="yurei-tsue" d="M70.3365 46.6689C70.7441 44.6559 70.4717 43.3114 70.0678 42.52C69.759 41.9148 69.1072 41.2068 68.5233 41.5542C66.3345 42.8566 62.9334 54.5055 61.1158 61.7652C60.9339 62.4917 60.5911 63.1628 60.1712 63.7829C60.1402 63.8287 60.1103 63.8735 60.0816 63.9171C59.0385 65.504 55.7482 66.7347 55.5616 64.8449C55.4956 64.1771 58.5668 52.1014 60.7879 44.226C61.2412 42.6189 61.515 40.7496 62.5975 39.4781C63.3012 38.6514 64.2419 37.7549 65.1619 37.0043C66.2135 36.1463 67.5889 35.8152 68.9332 36.002C75.9843 36.9816 75.3729 39.9131 75.3729 41.7317C75.3729 43.1366 75.1334 46.1814 74.6544 48.6543C74.3947 49.9947 73.046 50.7254 71.7214 50.3943C71.515 50.3427 71.3095 50.2736 71.1419 50.1426C70.6681 49.7722 70.407 49.1962 70.2635 48.6939C70.0749 48.0339 70.2003 47.3417 70.3365 46.6689Z" fill="#4B465F"/>
<path d="M34.875 9.99897C34.4188 9.76947 33.8345 9.67738 33.1221 10.0336C31.6689 10.7602 29.4585 10.6519 28.4836 9.35209L26.883 7.21786C25.5576 5.45073 23.098 4.99633 21.2288 6.17327L10.547 12.8988C8.40555 14.2471 7.71836 17.0504 8.99347 19.2362L10.0964 21.1269C10.7799 22.2988 10.3941 23.8024 9.23084 24.5004L9.11072 24.5725C8.43885 24.9756 8.02776 25.7017 8.02776 26.4852C8.02776 27.3301 8.50511 28.1024 9.2608 28.4803L9.40896 28.5544C10.1913 28.9455 11.1211 28.8991 11.8606 28.4321L34.4885 14.1408C35.2823 13.6395 35.7636 12.7662 35.7636 11.8273C35.7636 11.1016 35.5233 10.3251 34.875 9.99897Z" fill="#353143"/>
</symbol><use xlink:href="#svg-yurei"></use>
</svg>
