<svg width="119" height="55" viewBox="0 0 119 55" fill="none" xmlns="http://www.w3.org/2000/svg">
<path d="M31.9608 18.6634C31.8414 18.6061 31.7817 18.4868 31.7817 18.3053C31.7817 18.1238 31.9274 17.737 32.2187 17.1449C32.51 16.5479 32.7392 16.2495 32.9063 16.2495C33.0019 16.2495 33.1499 16.3163 33.3505 16.4501C33.551 16.579 33.7826 16.7366 34.0453 16.9228C34.3127 17.1091 34.6016 17.2929 34.912 17.4744C35.6665 17.9233 36.3995 18.1477 37.1111 18.1477C37.4645 18.1477 37.7175 18.0761 37.8704 17.9328C38.0232 17.7896 38.0996 17.6463 38.0996 17.503C38.0996 17.355 38.0184 17.1902 37.856 17.0088C37.6937 16.8225 37.4812 16.6315 37.2185 16.4357C36.9607 16.2399 36.6741 16.0346 36.359 15.8197C36.0438 15.6 35.7286 15.3684 35.4134 15.1249C35.0982 14.8813 34.8117 14.6378 34.5539 14.3942C33.9665 13.8403 33.6728 13.3007 33.6728 12.7754C33.6728 12.4029 33.7707 12.0662 33.9665 11.7654C34.167 11.4645 34.4201 11.221 34.7258 11.0348C35.0362 10.8485 35.3872 10.6933 35.7787 10.5692C36.4807 10.3399 37.2042 10.2253 37.9492 10.2253C38.1545 10.2253 38.3073 10.2564 38.4076 10.3185C38.5079 10.3805 38.558 10.4522 38.558 10.5333C38.558 10.6145 38.5222 10.7387 38.4506 10.9058C38.3789 11.0682 38.3431 11.2138 38.3431 11.3428C38.3431 11.4717 38.4291 11.6365 38.601 11.837C38.7777 12.0376 39.0045 12.2429 39.2815 12.4531C39.5585 12.6632 39.8641 12.8876 40.1984 13.1264C40.5326 13.3652 40.8669 13.6182 41.2012 13.8857C41.5355 14.1531 41.8411 14.4253 42.1181 14.7023C42.7436 15.3278 43.0564 15.9343 43.0564 16.5217C43.0564 17.1043 42.9036 17.5914 42.598 17.983C42.2971 18.3745 41.8769 18.6778 41.3373 18.8927C40.7977 19.1076 40.2055 19.2628 39.5609 19.3583C38.9162 19.4585 38.1306 19.5087 37.2042 19.5087C36.2778 19.5087 35.2558 19.4132 34.1384 19.2222C33.0257 19.0264 32.2999 18.8401 31.9608 18.6634ZM43.8229 11.6508C43.1973 10.9058 42.4213 10.3519 41.4949 9.98895C40.5732 9.62125 39.611 9.43739 38.6082 9.43739C36.7696 9.43739 34.998 9.78361 33.2932 10.476C33.0639 10.5668 32.9016 10.6121 32.8061 10.6121C32.615 10.6121 32.5195 10.5214 32.5195 10.3399C32.5195 10.1919 32.6461 10.0152 32.8992 9.80987C33.1571 9.60453 33.5248 9.39441 34.0023 9.17952C34.4846 8.95985 35.029 8.7569 35.6355 8.57066C37.0203 8.14565 38.5055 7.93314 40.0909 7.93314C42.4356 7.93314 44.2049 8.26265 45.3988 8.92165C45.4656 8.95985 45.4943 9.07446 45.4847 9.26548C45.4799 9.45172 45.394 9.74063 45.2269 10.1322C45.0597 10.5238 44.8568 10.8867 44.618 11.221C44.384 11.5553 44.1834 11.7224 44.0163 11.7224C43.9733 11.6747 43.9088 11.6508 43.8229 11.6508ZM50.8353 18.6133C50.5583 18.9237 50.193 19.1696 49.7393 19.3511C49.2904 19.5326 48.7986 19.6233 48.2637 19.6233C47.7336 19.6233 47.2848 19.4872 46.9171 19.215C46.5493 18.9428 46.3655 18.6133 46.3655 18.2265C46.3655 17.8397 46.5064 17.4887 46.7881 17.1735C47.0746 16.8536 47.4423 16.6029 47.8912 16.4214C48.3401 16.2399 48.8296 16.1492 49.3597 16.1492C49.8945 16.1492 50.3434 16.2901 50.7063 16.5718C51.074 16.8488 51.2579 17.1807 51.2579 17.5675C51.2579 17.9495 51.117 18.2981 50.8353 18.6133ZM55.534 18.7422C54.6362 18.2026 54.1873 17.3836 54.1873 16.2853C54.1873 15.7123 54.3043 15.175 54.5383 14.6736C54.7771 14.1674 55.1018 13.7305 55.5125 13.3628C55.9279 12.9951 56.4102 12.6799 56.9594 12.4172C58.0578 11.8872 59.3161 11.6221 60.7344 11.6221C63.5232 11.6221 65.0298 12.5056 65.2543 14.2725C65.5885 14.3823 65.9324 14.4372 66.2857 14.4372C66.6439 14.4372 66.9424 14.411 67.1811 14.3584C67.4199 14.3059 67.6443 14.2271 67.8545 14.1221C68.0694 14.017 68.2222 13.9645 68.3129 13.9645C68.4944 13.9645 68.5851 14.0528 68.5851 14.2295C68.5851 14.4062 68.4442 14.59 68.1625 14.7811C67.6324 15.144 66.9304 15.3254 66.0565 15.3254C65.727 15.3254 65.4596 15.3087 65.2543 15.2753C65.1015 16.4787 64.4807 17.4792 63.3919 18.2766C62.8713 18.6587 62.2314 18.9595 61.4722 19.1792C60.7176 19.3989 59.9345 19.5087 59.1227 19.5087C58.3156 19.5087 57.6232 19.4442 57.0454 19.3153C56.4675 19.1911 55.9637 19.0001 55.534 18.7422ZM58.1342 16.9157C58.1342 17.7991 58.4565 18.2408 59.1012 18.2408C59.5119 18.2408 59.8939 18.0164 60.2473 17.5675C60.6054 17.1186 60.8824 16.5623 61.0782 15.8985C61.2788 15.2347 61.379 14.559 61.379 13.8713C61.379 13.1789 61.1379 12.8327 60.6556 12.8327C60.2353 12.8327 59.827 13.0309 59.4307 13.4272C59.0391 13.8236 58.7239 14.3393 58.4851 14.9745C58.2512 15.6048 58.1342 16.2519 58.1342 16.9157ZM72.238 18.6133C71.961 18.9237 71.5957 19.1696 71.142 19.3511C70.6932 19.5326 70.2013 19.6233 69.6664 19.6233C69.1364 19.6233 68.6875 19.4872 68.3198 19.215C67.9521 18.9428 67.7682 18.6133 67.7682 18.2265C67.7682 17.8397 67.9091 17.4887 68.1908 17.1735C68.4774 16.8536 68.8451 16.6029 69.294 16.4214C69.7428 16.2399 70.2323 16.1492 70.7624 16.1492C71.2972 16.1492 71.7461 16.2901 72.1091 16.5718C72.4768 16.8488 72.6606 17.1807 72.6606 17.5675C72.6606 17.9495 72.5197 18.2981 72.238 18.6133ZM78.7919 19.2795L75.9339 19.3511C75.4611 19.3511 75.2247 19.1887 75.2247 18.864C75.2247 18.716 75.2868 18.587 75.4109 18.4772C75.5399 18.3674 75.707 18.2432 75.9124 18.1047C76.1177 17.9615 76.3039 17.7752 76.4711 17.546C76.6382 17.312 76.8221 16.9204 77.0226 16.3713C77.228 15.8173 77.3951 15.2777 77.5241 14.7524C77.9347 13.0858 78.2284 12.0018 78.4051 11.5004C78.5866 10.9942 78.7227 10.6265 78.8134 10.3972C78.9089 10.1633 79.0116 9.94836 79.1214 9.75257C79.236 9.55678 79.3459 9.38486 79.4509 9.23683C79.556 9.08879 79.6801 8.95747 79.8234 8.84286C79.9667 8.72347 80.1028 8.62558 80.2317 8.54917C80.3654 8.46799 80.5278 8.39875 80.7188 8.34144C80.9098 8.27936 81.0937 8.23161 81.2703 8.19818C81.447 8.16475 81.6667 8.13849 81.9294 8.11938C82.3257 8.09073 82.8534 8.07641 83.5124 8.07641C84.1714 8.07641 84.6609 8.10745 84.9808 8.16953C85.3008 8.23161 85.4608 8.36293 85.4608 8.5635C85.4608 8.72586 85.2769 8.91926 84.9092 9.14371C84.4985 9.3968 84.1356 9.80749 83.8204 10.3758C83.4814 10.9966 83.2163 11.5792 83.0253 12.1235C82.8343 12.6632 82.6839 13.0977 82.574 13.4272C82.4642 13.7567 82.3305 14.1626 82.1729 14.645C82.0153 15.1273 81.8816 15.5284 81.7718 15.8484C81.3229 17.1329 80.7092 17.9448 79.9309 18.2838C81.1343 18.2217 82.1299 18.0092 82.9179 17.6463C83.3476 17.4505 83.7153 17.2666 84.021 17.0947C84.3314 16.9228 84.6776 16.6673 85.0596 16.3283C85.561 15.8794 86.0075 15.452 86.3991 15.0461C86.7907 14.6354 87.0032 14.4133 87.0366 14.3799C87.1608 14.251 87.3112 14.1865 87.4879 14.1865C87.6646 14.1865 87.8079 14.2295 87.9177 14.3155C88.0275 14.4014 88.0824 14.5136 88.0824 14.6521C88.0824 15.2013 87.9058 16.0441 87.5524 17.1807C87.4282 17.5723 87.3041 17.8922 87.1799 18.1405C87.0557 18.3889 86.8958 18.6109 86.7 18.8067C86.3275 19.1792 85.7282 19.3654 84.902 19.3654L78.7919 19.2795ZM36.0687 45.5087C34.4785 45.5087 33.6834 44.981 33.6834 43.9256C33.6834 43.324 34.063 42.1229 34.8223 40.3226C35.5816 38.5175 35.9613 37.2664 35.9613 36.5692C35.9613 36.1776 35.8156 35.9006 35.5243 35.7382C35.2378 35.5711 34.8199 35.4875 34.2708 35.4875C33.7264 35.4875 33.1724 35.5353 32.6089 35.6308C32.0454 35.7263 31.6825 35.7741 31.5201 35.7741C31.3626 35.7741 31.2838 35.7024 31.2838 35.5592C31.2838 35.3729 31.6204 35.127 32.2938 34.8214C33.5879 34.2292 35.0133 33.9331 36.5701 33.9331C37.8022 33.9331 38.7238 34.1552 39.3351 34.5993C39.9511 35.0434 40.2591 35.7645 40.2591 36.7626C40.2591 37.3547 40.154 38.0973 39.9439 38.9903C39.7338 39.8785 39.5237 40.7142 39.3136 41.4974C39.1082 42.2805 39.0056 42.8178 39.0056 43.1091C39.0056 43.4004 39.0605 43.6033 39.1703 43.7179C39.3088 43.8612 39.5762 43.9328 39.9726 43.9328C40.2161 43.9328 40.3522 43.9591 40.3809 44.0116C40.4143 44.0641 40.431 44.1191 40.431 44.1764C40.431 44.396 40.3307 44.5751 40.1302 44.7136C39.3709 45.2437 38.0171 45.5087 36.0687 45.5087ZM31.8998 40.3226L33.7335 40.2796C34.0678 40.2796 34.235 40.3775 34.235 40.5733C34.235 40.7118 34.1562 40.8216 33.9986 40.9028C33.4446 41.1846 32.4895 41.3637 31.1333 41.4401C30.7465 42.2041 30.5531 42.8751 30.5531 43.4529C30.5531 43.7108 30.5866 43.9495 30.6534 44.1692C30.7203 44.3841 30.7537 44.5393 30.7537 44.6348C30.7537 44.8879 30.5937 45.0598 30.2738 45.1505C29.9538 45.2365 29.4834 45.2795 28.8626 45.2795C28.2466 45.2795 27.8407 45.2246 27.6449 45.1147C27.4491 45.0001 27.3512 44.7995 27.3512 44.513C27.3512 43.9782 27.5064 43.3884 27.8168 42.7437C28.132 42.0991 28.5331 41.483 29.0202 40.8957C29.5073 40.3035 30.0469 39.7233 30.6391 39.155C31.2312 38.5868 31.8067 38.0973 32.3654 37.6866C33.607 36.765 34.4522 36.3041 34.9011 36.3041C35.1065 36.3041 35.2091 36.3662 35.2091 36.4904C35.2091 36.6145 35.1088 36.753 34.9083 36.9058C34.4833 37.2162 33.9747 37.689 33.3825 38.3241C32.7904 38.9592 32.2627 39.6254 31.7995 40.3226H31.8998ZM55.946 43.1807C56.1227 43.1807 56.211 43.2643 56.211 43.4314C56.211 43.5938 56.1227 43.737 55.946 43.8612C55.7741 43.9853 55.5186 44.1286 55.1795 44.291C54.8405 44.4486 54.4179 44.6229 53.9117 44.8139C53.4102 45.0049 52.8277 45.1673 52.1639 45.301C51.5049 45.4394 50.8745 45.5087 50.2728 45.5087C48.8545 45.5087 48.1454 45.184 48.1454 44.5345C48.1454 44.1143 48.3841 43.3645 48.8617 42.2853C49.344 41.2013 49.5852 40.4707 49.5852 40.0934C49.5852 39.6684 49.2533 39.4559 48.5895 39.4559C48.2886 39.4559 47.9472 39.4941 47.5652 39.5705C47.3837 40.2104 47.059 41.2276 46.591 42.622C46.1278 44.0164 45.8651 44.8091 45.8031 45.0001C45.7457 45.1911 45.6192 45.2866 45.4234 45.2866L41.7344 45.3654C41.6819 45.3654 41.6222 45.332 41.5553 45.2651C41.4933 45.2031 41.4622 45.129 41.4622 45.0431C41.4622 44.9524 41.5625 44.6396 41.7631 44.1047C41.9684 43.5651 42.1929 42.9873 42.4364 42.3713C42.6847 41.7505 42.9092 41.07 43.1097 40.3298C43.3151 39.5848 43.4177 38.9688 43.4177 38.4817L43.4106 38.2095C43.4106 37.9707 43.6422 37.8514 44.1054 37.8514L47.5007 37.7726C47.6249 37.7726 47.718 37.8108 47.7801 37.8872C47.8421 37.9588 47.8732 38.0495 47.8732 38.1594C47.8732 38.2644 47.8469 38.4363 47.7944 38.6751C49.4753 37.9731 50.8554 37.6221 51.9347 37.6221C52.3931 37.6221 52.8109 37.7487 53.1882 38.0018C53.6084 38.2835 53.8185 38.7109 53.8185 39.284C53.8185 39.8713 53.5965 40.6402 53.1524 41.5905C52.7083 42.5408 52.4862 43.1282 52.4862 43.3526C52.4862 43.7967 52.6629 44.0188 53.0163 44.0188C53.2407 44.0188 53.6228 43.9352 54.1624 43.7681C54.7068 43.5961 55.1079 43.4553 55.3658 43.3454C55.6284 43.2356 55.8218 43.1807 55.946 43.1807ZM62.5071 35.1222C62.5071 35.6332 62.2229 36.0797 61.6547 36.4617C61.0912 36.839 60.4943 37.0276 59.8639 37.0276C59.2383 37.0276 58.7512 36.901 58.4026 36.648C58.054 36.3901 57.8797 36.0773 57.8797 35.7096C57.8797 35.3419 58.0134 35.0076 58.2809 34.7068C58.5483 34.4059 58.8945 34.1695 59.3195 33.9976C59.7493 33.8257 60.2149 33.7397 60.7163 33.7397C61.2177 33.7397 61.6403 33.8735 61.9842 34.1409C62.3328 34.4035 62.5071 34.7306 62.5071 35.1222ZM60.4943 44.0116C60.819 44.0116 61.2583 43.9352 61.8123 43.7824C62.371 43.6248 62.7769 43.4863 63.03 43.3669C63.2831 43.2428 63.4598 43.1807 63.5601 43.1807C63.7606 43.1807 63.8609 43.281 63.8609 43.4815C63.8609 43.5723 63.7869 43.6749 63.6388 43.7896C63.1518 44.1525 62.2755 44.5297 61.01 44.9213C59.7445 45.3129 58.6151 45.5087 57.6219 45.5087C57.0058 45.5087 56.4901 45.4108 56.0746 45.215C55.6592 45.0192 55.4514 44.7208 55.4514 44.3196C55.4514 44.0761 55.6592 43.4792 56.0746 42.5288C56.8578 40.7285 57.2494 39.3723 57.2494 38.4602L57.2422 38.188C57.2422 37.9492 57.4738 37.8299 57.937 37.8299L61.4756 37.7511C61.5998 37.7511 61.6929 37.7893 61.755 37.8657C61.817 37.9373 61.8481 38.0185 61.8481 38.1092C61.8481 38.4387 61.6977 38.9831 61.3968 39.7424C61.096 40.4969 60.7951 41.2395 60.4943 41.9701C60.1934 42.7008 60.043 43.2237 60.043 43.5388C60.043 43.854 60.1934 44.0116 60.4943 44.0116ZM65.5153 37.8514L68.9106 37.7726C69.0348 37.7726 69.1279 37.8108 69.19 37.8872C69.252 37.9588 69.2831 38.0495 69.2831 38.1594C69.2831 38.2644 69.2568 38.4363 69.2043 38.6751C70.4793 37.9731 71.5896 37.6221 72.5351 37.6221C72.9458 37.6221 73.3254 37.7248 73.674 37.9301C74.0274 38.1355 74.2566 38.4387 74.3617 38.8399C75.9185 38.028 77.2078 37.6221 78.2298 37.6221C78.6787 37.6221 79.075 37.7487 79.4188 38.0018C79.7865 38.2787 79.9704 38.6703 79.9704 39.1765C79.9704 39.6779 79.8821 40.208 79.7054 40.7667C79.5334 41.3207 79.3591 41.8388 79.1825 42.3211C79.0105 42.8034 78.9246 43.1449 78.9246 43.3454C78.9246 43.5412 78.9747 43.6893 79.075 43.7896C79.1753 43.8898 79.309 43.94 79.4761 43.94C80.0922 43.94 80.8562 43.7251 81.7683 43.2953C81.9402 43.2189 82.0716 43.1807 82.1623 43.1807C82.3772 43.1807 82.4846 43.2666 82.4846 43.4386C82.4846 43.5914 82.3915 43.737 82.2053 43.8755C82.0238 44.0092 81.7588 44.1573 81.4102 44.3196C81.0616 44.482 80.6294 44.6563 80.1137 44.8425C79.6027 45.0288 79.001 45.1864 78.3086 45.3153C77.6161 45.4442 76.9977 45.5087 76.4533 45.5087C75.9137 45.5087 75.5102 45.418 75.2428 45.2365C74.9753 45.055 74.8416 44.821 74.8416 44.5345C74.8416 44.248 74.9324 43.8182 75.1138 43.2452C75.3001 42.6721 75.4863 42.1062 75.6725 41.5475C75.8588 40.984 75.9519 40.5757 75.9519 40.3226C75.9519 40.0647 75.8898 39.8809 75.7657 39.7711C75.6415 39.6565 75.4553 39.5991 75.2069 39.5991C74.9634 39.5991 74.6936 39.6373 74.3975 39.7138C74.3211 40.5303 74.0035 41.7743 73.4448 43.4457C73.2108 44.1477 73.0795 44.587 73.0509 44.7637C73.0222 44.9404 73.0031 45.0431 72.9936 45.0717C72.984 45.0956 72.9673 45.129 72.9434 45.172C72.9004 45.2484 72.8097 45.2866 72.6712 45.2866C71.9836 45.2866 71.3031 45.2986 70.6297 45.3225C69.9612 45.3511 69.529 45.3654 69.3332 45.3654C69.1422 45.3654 69.0467 45.2532 69.0467 45.0288C69.0467 44.8043 69.1207 44.47 69.2687 44.0259C69.4168 43.5818 69.5815 43.1401 69.763 42.7008C70.2358 41.5356 70.4721 40.6664 70.4721 40.0934C70.4721 39.6684 70.1952 39.4559 69.6412 39.4559C69.4072 39.4559 69.1852 39.4941 68.9751 39.5705C68.7888 40.2056 68.4665 41.2108 68.008 42.5862C67.5544 43.9615 67.2989 44.7351 67.2416 44.907C67.1652 45.1601 67.0291 45.2866 66.8333 45.2866L63.1515 45.3654C63.0989 45.3654 63.0392 45.332 62.9724 45.2651C62.9103 45.2031 62.8793 45.129 62.8793 45.0431C62.8793 44.9524 62.9796 44.6396 63.1801 44.1047C63.3855 43.5651 63.6099 42.9873 63.8535 42.3713C64.097 41.7505 64.3191 41.07 64.5196 40.3298C64.725 39.5848 64.8276 38.9688 64.8276 38.4817L64.8205 38.2095C64.8205 37.9707 65.0521 37.8514 65.5153 37.8514ZM93.537 43.1807C93.7041 43.1807 93.7877 43.2595 93.7877 43.4171C93.7877 43.5699 93.6731 43.7131 93.4439 43.8469C93.2194 43.9758 92.9401 44.1167 92.6058 44.2695C92.2715 44.4175 91.8107 44.5942 91.2233 44.7995C89.8719 45.2723 88.3461 45.5087 86.6461 45.5087C83.4179 45.5087 81.8039 44.5154 81.8039 42.5288C81.8039 41.5594 82.1095 40.6999 82.7207 39.9501C83.3368 39.1956 84.1605 38.6202 85.192 38.2238C86.2235 37.8227 87.3481 37.6221 88.5658 37.6221C89.7835 37.6221 90.6741 37.8108 91.2376 38.188C91.8059 38.5653 92.09 39.0834 92.09 39.7424C92.09 40.4205 91.8179 40.9745 91.2735 41.4042C90.7338 41.834 90.0151 42.154 89.1174 42.3641C88.2148 42.5742 87.1809 42.7223 86.0158 42.8082C86.0922 43.5484 86.6222 44.0092 87.606 44.1907C87.8591 44.2337 88.1265 44.2552 88.4082 44.2552C89.5257 44.2552 91.1374 43.9185 93.2433 43.2452C93.3722 43.2022 93.4701 43.1807 93.537 43.1807ZM86.0229 42.0203C86.8538 41.791 87.5104 41.4401 87.9928 40.9673C88.4751 40.4945 88.7162 39.9239 88.7162 39.2553C88.7162 39.0786 88.6589 38.9378 88.5443 38.8327C88.4297 38.7276 88.2554 38.6751 88.0214 38.6751C87.7922 38.6751 87.551 38.7754 87.2979 38.976C87.0496 39.1765 86.8395 39.4392 86.6676 39.7639C86.3047 40.4372 86.0898 41.1894 86.0229 42.0203Z" fill="white"/>
<path d="M113.706 19.8622C113.578 19.4758 113.587 18.7822 113.706 18.2422L108.182 17.7021L102.123 20.2222C103.192 21.3022 108.004 22.3822 110.498 22.2022C110.77 22.1826 115.131 21.8422 115.666 21.3022C114.953 20.9422 113.884 20.4022 113.706 19.8622Z" fill="#EAE8F2"/>
<ellipse cx="106.758" cy="12.6622" rx="8.90985" ry="9.0001" fill="#EAE8F2"/>
<ellipse cx="0.571187" cy="0.764717" rx="0.571187" ry="0.764717" transform="matrix(0.836413 0.5481 -0.540379 0.841422 103.664 10.1421)" fill="#262626"/>
<ellipse cx="0.569783" cy="0.766577" rx="0.569783" ry="0.766577" transform="matrix(0.972292 -0.23377 0.229353 0.973343 108.182 10.4087)" fill="#262626"/>
<path d="M104.053 13.6273L103.985 13.1443C103.94 12.8236 103.665 12.5852 103.341 12.5852C103.244 12.5852 103.146 12.6047 103.064 12.6573C102.943 12.7347 102.848 12.8261 102.773 12.9198C102.511 13.2466 102.477 13.7102 102.576 14.1173C102.99 15.8242 104.533 16.5639 105.332 16.7252C106.066 16.818 106.741 16.8161 107.224 16.7871C107.626 16.7629 108.023 16.6626 108.366 16.4509C109.236 15.9131 109.826 15.0629 110.136 14.4487C110.274 14.1752 110.321 13.8685 110.321 13.5622V13.3665C110.321 13.2573 110.309 13.1485 110.285 13.0419C110.195 12.6361 109.916 12.2984 109.501 12.3225C109.303 12.334 109.106 12.3782 108.985 12.4761C108.912 12.5356 108.883 12.631 108.857 12.7221L108.581 13.6975C108.556 13.7849 108.476 13.8452 108.386 13.8452C108.274 13.8452 108.183 13.7538 108.179 13.6418C108.164 13.1965 108.096 12.972 108.025 12.8608C107.939 12.7283 107.745 12.7654 107.587 12.7639C106.619 12.7547 104.914 12.7086 104.797 12.9452C104.653 13.2367 104.586 13.5283 104.503 13.7243C104.47 13.8026 104.389 13.8452 104.304 13.8452C104.178 13.8452 104.071 13.7523 104.053 13.6273Z" fill="#262626"/>
<path d="M98.1086 13.6419C98.0892 13.4996 98.083 13.3715 98.0865 13.2567C98.1042 12.6892 98.709 12.3886 98.9816 12.8867C99.5418 13.9109 100.229 16.3299 100.629 17.9468C100.678 18.142 100.769 18.3225 100.881 18.4894C100.891 18.5039 100.9 18.5179 100.909 18.5316C101.188 18.9617 102.077 19.2923 102.127 18.7819C102.143 18.6136 101.436 15.7883 100.856 13.6664C100.647 12.9026 100.541 12.1641 99.9836 11.6013C99.5228 11.1358 98.722 10.8554 98.0825 10.9979C96.6425 11.3189 96.7809 12.0277 96.7809 12.4818C96.7809 12.8659 96.8459 13.6995 96.9759 14.3745C97.0455 14.7359 97.4093 14.9332 97.7661 14.8431C97.8219 14.829 97.8774 14.8101 97.9226 14.7745C97.9973 14.7155 98.0524 14.6373 98.0931 14.5552C98.2314 14.2759 98.1506 13.9507 98.1086 13.6419Z" fill="#4B465F"/>
<path d="M107.71 3.83203C107.833 3.77001 107.99 3.74547 108.182 3.84219C108.573 4.03972 109.17 4.01024 109.432 3.65845L109.865 3.07436C110.222 2.59408 110.889 2.47076 111.394 2.79178L114.268 4.62013C114.85 4.99028 115.037 5.75327 114.692 6.35055L114.393 6.8695C114.209 7.18775 114.313 7.59454 114.628 7.78502L114.659 7.80387C114.841 7.9146 114.953 8.11272 114.953 8.32635C114.953 8.55688 114.823 8.76778 114.618 8.8717L114.583 8.88917C114.37 8.99646 114.117 8.98377 113.917 8.85577L107.816 4.96346C107.6 4.82563 107.469 4.58708 107.469 4.33081C107.469 4.1331 107.533 3.92111 107.71 3.83203Z" fill="#353143"/>
</svg>
