<svg width="122" height="54" viewBox="0 0 122 54" fill="none" xmlns="http://www.w3.org/2000/svg">
<path d="M16.4036 42.743C13.513 42.743 12.0677 41.7838 12.0677 39.8654C12.0677 38.7716 12.7578 36.5885 14.138 33.3159C15.5182 30.0347 16.2083 27.7604 16.2083 26.493C16.2083 25.7812 15.9436 25.2777 15.4141 24.9826C14.8932 24.6788 14.1337 24.5269 13.1354 24.5269C12.1458 24.5269 11.1389 24.6137 10.1146 24.7873C9.09028 24.9609 8.43055 25.0477 8.13542 25.0477C7.84896 25.0477 7.70573 24.9175 7.70573 24.6571C7.70573 24.3185 8.31771 23.8715 9.54167 23.3159C11.8941 22.2395 14.4852 21.7013 17.3151 21.7013C19.5547 21.7013 21.23 22.105 22.3411 22.9123C23.4609 23.7196 24.0208 25.0303 24.0208 26.8446C24.0208 27.921 23.8299 29.2708 23.4479 30.894C23.066 32.5086 22.684 34.0277 22.3021 35.4513C21.9288 36.8749 21.7422 37.8515 21.7422 38.381C21.7422 38.9105 21.842 39.2795 22.0417 39.4878C22.2934 39.7482 22.7795 39.8784 23.5 39.8784C23.9427 39.8784 24.1901 39.9262 24.2422 40.0216C24.3029 40.1171 24.3333 40.217 24.3333 40.3211C24.3333 40.7204 24.151 41.046 23.7865 41.2977C22.4062 42.2612 19.9453 42.743 16.4036 42.743ZM8.82552 33.3159L12.1589 33.2378C12.7665 33.2378 13.0703 33.4157 13.0703 33.7716C13.0703 34.0234 12.9271 34.223 12.6406 34.3706C11.6337 34.8828 9.89757 35.2083 7.43229 35.3472C6.72917 36.7361 6.3776 37.9557 6.3776 39.006C6.3776 39.4748 6.43837 39.9088 6.55989 40.3081C6.68142 40.6987 6.74219 40.9808 6.74219 41.1545C6.74219 41.6145 6.45139 41.927 5.86979 42.092C5.28819 42.2482 4.43316 42.3263 3.30469 42.3263C2.1849 42.3263 1.44705 42.2265 1.09115 42.0269C0.735243 41.8185 0.557292 41.4539 0.557292 40.9331C0.557292 39.9609 0.83941 38.8888 1.40365 37.717C1.97656 36.5451 2.70573 35.4253 3.59115 34.3576C4.47656 33.2812 5.45746 32.2265 6.53385 31.1935C7.61024 30.1605 8.65625 29.2708 9.67187 28.5243C11.9288 26.8489 13.4653 26.0112 14.2812 26.0112C14.6545 26.0112 14.8411 26.1241 14.8411 26.3498C14.8411 26.5755 14.6589 26.8272 14.2943 27.105C13.5217 27.6692 12.5972 28.5286 11.5208 29.6831C10.4444 30.8376 9.48524 32.0486 8.64323 33.3159H8.82552ZM52.5359 38.5112C52.8571 38.5112 53.0177 38.6631 53.0177 38.967C53.0177 39.2621 52.8571 39.5225 52.5359 39.7482C52.2234 39.9739 51.759 40.2343 51.1427 40.5295C50.5264 40.8159 49.7582 41.1328 48.838 41.48C47.9266 41.8272 46.8675 42.1223 45.6609 42.3654C44.463 42.6171 43.3172 42.743 42.2234 42.743C39.6453 42.743 38.3562 42.1527 38.3562 40.9722C38.3562 40.2083 38.7903 38.8454 39.6583 36.8836C40.5351 34.9131 40.9734 33.585 40.9734 32.8993C40.9734 32.1267 40.3701 31.7404 39.1635 31.7404C38.6167 31.7404 37.996 31.8098 37.3016 31.9487C36.9717 33.1119 36.3814 34.9609 35.5307 37.4956C34.6887 40.0303 34.2113 41.4713 34.0984 41.8185C33.9943 42.1657 33.7642 42.3394 33.4083 42.3394L26.7026 42.4826C26.6071 42.4826 26.4986 42.4218 26.3771 42.3003C26.2642 42.1874 26.2078 42.0529 26.2078 41.8966C26.2078 41.7317 26.3901 41.1631 26.7547 40.1909C27.1279 39.21 27.5359 38.1597 27.9786 37.0399C28.43 35.9114 28.838 34.6744 29.2026 33.3289C29.5759 31.9748 29.7625 30.855 29.7625 29.9696L29.7495 29.4748C29.7495 29.0407 30.1705 28.8237 31.0125 28.8237L37.1844 28.6805C37.4101 28.6805 37.5793 28.7499 37.6922 28.8888C37.805 29.019 37.8615 29.184 37.8615 29.3836C37.8615 29.5746 37.8137 29.8871 37.7182 30.3211C40.7738 29.0451 43.2825 28.4071 45.2443 28.4071C46.0776 28.4071 46.8371 28.6371 47.5229 29.0972C48.2868 29.6093 48.6687 30.3862 48.6687 31.4279C48.6687 32.4956 48.2651 33.8932 47.4578 35.6206C46.6505 37.348 46.2469 38.4157 46.2469 38.8237C46.2469 39.631 46.568 40.0347 47.2104 40.0347C47.6184 40.0347 48.3128 39.8828 49.2937 39.5789C50.2833 39.2664 51.0125 39.0104 51.4812 38.8107C51.9587 38.6111 52.3102 38.5112 52.5359 38.5112ZM64.4625 23.8628C64.4625 24.7916 63.946 25.6032 62.913 26.2977C61.8887 26.9835 60.8036 27.3263 59.6578 27.3263C58.5206 27.3263 57.6352 27.0963 57.0016 26.6362C56.3679 26.1675 56.051 25.5989 56.051 24.9305C56.051 24.2621 56.2941 23.6545 56.7802 23.1076C57.2663 22.5607 57.8956 22.131 58.6682 21.8185C59.4495 21.506 60.2958 21.3498 61.2073 21.3498C62.1187 21.3498 62.887 21.5928 63.512 22.0789C64.1456 22.5564 64.4625 23.151 64.4625 23.8628ZM60.8036 40.0216C61.3939 40.0216 62.1925 39.8828 63.1995 39.605C64.2151 39.3185 64.9529 39.0668 65.413 38.8498C65.8731 38.6241 66.1943 38.5112 66.3766 38.5112C66.7411 38.5112 66.9234 38.6935 66.9234 39.0581C66.9234 39.223 66.7889 39.4097 66.5198 39.618C65.6344 40.2777 64.0415 40.9635 61.7411 41.6753C59.4408 42.3871 57.3878 42.743 55.5823 42.743C54.4625 42.743 53.525 42.565 52.7698 42.2091C52.0146 41.8532 51.637 41.3107 51.637 40.5815C51.637 40.1388 52.0146 39.0538 52.7698 37.3263C54.1934 34.0538 54.9052 31.5885 54.9052 29.9305L54.8922 29.4357C54.8922 29.0017 55.3132 28.7847 56.1552 28.7847L62.5875 28.6414C62.8132 28.6414 62.9825 28.7109 63.0953 28.8498C63.2081 28.98 63.2646 29.1276 63.2646 29.2925C63.2646 29.8914 62.9911 30.881 62.4443 32.2612C61.8974 33.6328 61.3505 34.9826 60.8036 36.3107C60.2568 37.6388 59.9833 38.5894 59.9833 39.1623C59.9833 39.7352 60.2568 40.0216 60.8036 40.0216ZM69.9307 28.8237L76.1026 28.6805C76.3283 28.6805 76.4976 28.7499 76.6104 28.8888C76.7232 29.019 76.7797 29.184 76.7797 29.3836C76.7797 29.5746 76.7319 29.8871 76.6364 30.3211C78.9542 29.0451 80.9724 28.4071 82.6911 28.4071C83.4377 28.4071 84.1278 28.5937 84.7614 28.967C85.4038 29.3402 85.8205 29.8914 86.0114 30.6206C88.8413 29.1449 91.1851 28.4071 93.0427 28.4071C93.8587 28.4071 94.5791 28.6371 95.2041 29.0972C95.8726 29.6006 96.2068 30.3124 96.2068 31.2326C96.2068 32.144 96.0462 33.1076 95.725 34.1232C95.4125 35.1302 95.0956 36.072 94.7745 36.9487C94.462 37.8255 94.3057 38.4461 94.3057 38.8107C94.3057 39.1666 94.3969 39.4357 94.5791 39.618C94.7614 39.8003 95.0045 39.8914 95.3083 39.8914C96.4281 39.8914 97.817 39.5008 99.475 38.7196C99.7875 38.5807 100.026 38.5112 100.191 38.5112C100.582 38.5112 100.777 38.6675 100.777 38.98C100.777 39.2578 100.608 39.5225 100.269 39.7743C99.9394 40.0173 99.4576 40.2864 98.8239 40.5815C98.1903 40.8767 97.4047 41.1935 96.4672 41.5321C95.5383 41.8706 94.4446 42.1571 93.1859 42.3914C91.9272 42.6258 90.8031 42.743 89.8135 42.743C88.8326 42.743 88.0991 42.5781 87.613 42.2482C87.1269 41.9183 86.8838 41.493 86.8838 40.9722C86.8838 40.4513 87.0488 39.6701 87.3786 38.6284C87.7172 37.5868 88.0557 36.5581 88.3943 35.5425C88.7328 34.5182 88.9021 33.776 88.9021 33.3159C88.9021 32.8472 88.7892 32.513 88.5635 32.3133C88.3378 32.105 87.9993 32.0008 87.5479 32.0008C87.1052 32.0008 86.6147 32.0703 86.0765 32.2091C85.9377 33.6935 85.3604 35.9548 84.3448 38.993C83.9194 40.269 83.6807 41.0677 83.6286 41.3888C83.5765 41.71 83.5418 41.8966 83.5245 41.9487C83.5071 41.9921 83.4767 42.0529 83.4333 42.131C83.3552 42.2699 83.1903 42.3394 82.9385 42.3394C81.6885 42.3394 80.4515 42.3611 79.2276 42.4045C78.0123 42.4565 77.2267 42.4826 76.8708 42.4826C76.5236 42.4826 76.35 42.2786 76.35 41.8706C76.35 41.4626 76.4845 40.855 76.7536 40.0477C77.0227 39.2404 77.3222 38.4374 77.6521 37.6388C78.5114 35.5208 78.9411 33.9409 78.9411 32.8993C78.9411 32.1267 78.4377 31.7404 77.4307 31.7404C77.0054 31.7404 76.6017 31.8098 76.2198 31.9487C75.8812 33.1032 75.2953 34.9305 74.462 37.4305C73.6373 39.9305 73.1729 41.3368 73.0687 41.6493C72.9298 42.1093 72.6825 42.3394 72.3265 42.3394L65.6338 42.4826C65.5384 42.4826 65.4298 42.4218 65.3083 42.3003C65.1955 42.1874 65.139 42.0529 65.139 41.8966C65.139 41.7317 65.3213 41.1631 65.6859 40.1909C66.0592 39.21 66.4672 38.1597 66.9099 37.0399C67.3526 35.9114 67.7562 34.6744 68.1208 33.3289C68.4941 31.9748 68.6807 30.855 68.6807 29.9696L68.6677 29.4748C68.6677 29.0407 69.0887 28.8237 69.9307 28.8237ZM120.868 38.5112C121.172 38.5112 121.323 38.6545 121.323 38.9409C121.323 39.2187 121.115 39.4791 120.698 39.7222C120.29 39.9565 119.783 40.2126 119.175 40.4904C118.567 40.7595 117.73 41.0807 116.662 41.4539C114.205 42.3133 111.432 42.743 108.342 42.743C102.474 42.743 99.5396 40.9374 99.5396 37.3263C99.5396 35.5642 100.095 34.0017 101.206 32.6388C102.326 31.2673 103.823 30.2213 105.698 29.5008C107.573 28.7716 109.618 28.4071 111.831 28.4071C114.045 28.4071 115.664 28.7499 116.688 29.4357C117.721 30.1215 118.237 31.0633 118.237 32.2612C118.237 33.4939 117.743 34.5008 116.753 35.2821C115.772 36.0633 114.466 36.6449 112.834 37.0269C111.193 37.4088 109.314 37.6779 107.196 37.8341C107.335 39.1796 108.298 40.0173 110.086 40.3472C110.547 40.4253 111.033 40.4644 111.545 40.4644C113.576 40.4644 116.506 39.8524 120.334 38.6284C120.568 38.5503 120.746 38.5112 120.868 38.5112ZM107.209 36.4019C108.719 35.9852 109.913 35.3472 110.79 34.4878C111.666 33.6284 112.105 32.5911 112.105 31.3758C112.105 31.0546 112 30.7986 111.792 30.6076C111.584 30.4166 111.267 30.3211 110.842 30.3211C110.425 30.3211 109.987 30.5034 109.527 30.868C109.075 31.2326 108.693 31.71 108.381 32.3003C107.721 33.5243 107.33 34.8914 107.209 36.4019Z" fill="white"/>
<path d="M65.7059 25.64C65.5783 25.2536 65.5871 24.56 65.7059 24.02L60.1817 23.48L54.123 26C55.1922 27.08 60.0035 28.16 62.4983 27.98C62.7703 27.9604 67.1314 27.62 67.666 27.08C66.9532 26.72 65.8841 26.18 65.7059 25.64Z" fill="#EAE8F2"/>
<ellipse cx="58.7575" cy="18.44" rx="8.90985" ry="9.0001" fill="#EAE8F2"/>
<ellipse cx="0.571187" cy="0.764717" rx="0.571187" ry="0.764717" transform="matrix(0.836413 0.5481 -0.540379 0.841422 55.6641 15.9199)" fill="#262626"/>
<ellipse cx="0.569783" cy="0.766577" rx="0.569783" ry="0.766577" transform="matrix(0.972292 -0.23377 0.229353 0.973343 60.1816 16.1865)" fill="#262626"/>
<path d="M56.0534 19.4052L55.9851 18.9221C55.9398 18.6014 55.6653 18.363 55.3414 18.363C55.2439 18.363 55.1459 18.3826 55.0638 18.4352C54.943 18.5125 54.8481 18.6039 54.7729 18.6976C54.5108 19.0244 54.4772 19.4881 54.576 19.8952C54.9902 21.602 56.5331 22.3417 57.3316 22.5031C58.0661 22.5958 58.7414 22.594 59.2244 22.5649C59.6263 22.5407 60.0233 22.4405 60.3658 22.2288C61.236 21.6909 61.826 20.8407 62.1357 20.2265C62.2736 19.953 62.3211 19.6464 62.3211 19.34V19.1443C62.3211 19.0351 62.3091 18.9263 62.2853 18.8198C62.1946 18.4139 61.9165 18.0763 61.5013 18.1003C61.3026 18.1119 61.1062 18.156 60.9852 18.2539C60.9115 18.3134 60.8826 18.4089 60.8568 18.5L60.5809 19.4754C60.5562 19.5627 60.4765 19.623 60.3857 19.623C60.2736 19.623 60.1833 19.5316 60.1794 19.4196C60.1637 18.9743 60.0964 18.7498 60.0246 18.6386C59.9391 18.5061 59.7448 18.5432 59.5871 18.5417C58.6193 18.5326 56.9141 18.4865 56.797 18.723C56.6527 19.0146 56.5863 19.3062 56.5032 19.5021C56.4699 19.5805 56.3894 19.623 56.3043 19.623C56.1781 19.623 56.0711 19.5301 56.0534 19.4052Z" fill="#262626"/>
<path d="M50.1086 19.4197C50.0892 19.2775 50.083 19.1493 50.0865 19.0345C50.1042 18.467 50.709 18.1664 50.9816 18.6646C51.5418 19.6887 52.2286 22.1078 52.6292 23.7246C52.6775 23.9198 52.7688 24.1003 52.8809 24.2672C52.8907 24.2817 52.8999 24.2957 52.9088 24.3094C53.1881 24.7396 54.077 25.0702 54.1269 24.5597C54.1433 24.3915 53.4364 21.5661 52.856 19.4442C52.6471 18.6805 52.5407 17.9419 51.9836 17.3792C51.5228 16.9136 50.722 16.6332 50.0825 16.7757C48.6425 17.0967 48.7809 17.8055 48.7809 18.2597C48.7809 18.6437 48.8459 19.4773 48.9759 20.1524C49.0455 20.5137 49.4093 20.711 49.7661 20.6209C49.8219 20.6068 49.8774 20.588 49.9226 20.5523C49.9973 20.4933 50.0524 20.4152 50.0931 20.3331C50.2314 20.0537 50.1506 19.7285 50.1086 19.4197Z" fill="#4B465F"/>
<path d="M59.71 9.60986C59.8329 9.54784 59.9901 9.52331 60.1815 9.62002C60.5726 9.81755 61.1705 9.78807 61.4317 9.43628L61.8654 8.85219C62.222 8.37191 62.889 8.24859 63.3937 8.56962L66.2684 10.398C66.8504 10.7681 67.0374 11.5311 66.6925 12.1284L66.3928 12.6473C66.209 12.9656 66.3133 13.3724 66.6276 13.5629L66.6587 13.5817C66.8414 13.6924 66.953 13.8906 66.953 14.1042C66.953 14.3347 66.8233 14.5456 66.6175 14.6495L66.5829 14.667C66.3705 14.7743 66.1172 14.7616 65.9166 14.6336L59.8156 10.7413C59.5995 10.6035 59.4688 10.3649 59.4688 10.1086C59.4688 9.91093 59.5335 9.69894 59.71 9.60986Z" fill="#353143"/>
</svg>
