<svg width="119" height="54" viewBox="0 0 119 54" fill="none" xmlns="http://www.w3.org/2000/svg">
<path d="M16.8398 16.6935C17.2935 17.2379 18.005 17.5101 18.9744 17.5101C19.8818 17.5101 20.8225 17.3573 21.7967 17.0516C22.1166 16.9514 22.353 16.9012 22.5058 16.9012C22.7828 16.9012 22.9213 16.98 22.9213 17.1376C22.9213 17.3668 22.7398 17.6127 22.3769 17.8754C22.014 18.1333 21.5555 18.3649 21.0016 18.5702C20.4476 18.7756 19.8197 18.9451 19.1177 19.0788C18.4205 19.2173 17.7567 19.2865 17.1264 19.2865C16.0089 19.2865 15.0252 19.1122 14.1752 18.7636C13.3251 18.415 12.6661 17.9184 12.1982 17.2737C11.7302 16.6242 11.4962 15.9175 11.4962 15.1534C11.4962 14.3846 11.6251 13.6754 11.883 13.026C12.1408 12.3718 12.4894 11.782 12.9288 11.2567C13.3729 10.7314 13.8886 10.2443 14.476 9.79543C15.0682 9.34655 15.6913 8.97168 16.3456 8.67083C17.7448 8.03093 19.0867 7.71098 20.3712 7.71098C21.6558 7.71098 22.6539 7.97601 23.3654 8.50608C24.0769 9.03137 24.4327 9.67605 24.4327 10.4401C24.4327 11.271 24.1868 11.9993 23.6949 12.6249C23.4609 12.9305 23.1481 13.174 22.7565 13.3555C22.3697 13.537 21.9328 13.6277 21.4457 13.6277C21.121 13.6277 20.844 13.5823 20.6148 13.4916C20.1802 13.3197 19.9629 13.0737 19.9629 12.7538C19.9629 12.644 20.0871 12.3336 20.3354 11.8226C20.5885 11.3116 20.8416 10.7863 21.0947 10.2467C21.3478 9.70231 21.4743 9.32983 21.4743 9.12927C21.4743 8.92393 21.3884 8.78305 21.2165 8.70665C21.0446 8.63024 20.7986 8.59204 20.4787 8.59204C20.1635 8.59204 19.8053 8.71381 19.4042 8.95735C19.0031 9.19612 18.6163 9.52562 18.2438 9.94586C17.8713 10.3613 17.5299 10.8245 17.2195 11.3355C16.9091 11.8465 16.6608 12.4004 16.4745 12.9973C16.2883 13.5895 16.1952 14.1219 16.1952 14.5947C16.1952 15.0675 16.2477 15.471 16.3527 15.8053C16.4626 16.1395 16.6249 16.4356 16.8398 16.6935ZM26.216 18.5201C25.3182 17.9805 24.8694 17.1615 24.8694 16.0631C24.8694 15.4901 24.9864 14.9529 25.2204 14.4514C25.4591 13.9452 25.7838 13.5083 26.1945 13.1406C26.61 12.7729 27.0923 12.4577 27.6415 12.1951C28.7398 11.665 29.9981 11.4 31.4164 11.4C34.2053 11.4 35.7119 12.2834 35.9363 14.0503C36.2706 14.1601 36.6144 14.2151 36.9678 14.2151C37.326 14.2151 37.6244 14.1888 37.8632 14.1363C38.102 14.0837 38.3264 14.0049 38.5365 13.8999C38.7514 13.7948 38.9042 13.7423 38.995 13.7423C39.1764 13.7423 39.2672 13.8306 39.2672 14.0073C39.2672 14.184 39.1263 14.3679 38.8445 14.5589C38.3145 14.9218 37.6125 15.1033 36.7386 15.1033C36.4091 15.1033 36.1417 15.0866 35.9363 15.0531C35.7835 16.2565 35.1627 17.257 34.0739 18.0545C33.5534 18.4365 32.9135 18.7374 32.1542 18.957C31.3997 19.1767 30.6165 19.2865 29.8047 19.2865C28.9977 19.2865 28.3053 19.2221 27.7274 19.0931C27.1496 18.969 26.6458 18.7779 26.216 18.5201ZM28.8162 16.6935C28.8162 17.5769 29.1386 18.0187 29.7832 18.0187C30.1939 18.0187 30.576 17.7942 30.9293 17.3453C31.2875 16.8964 31.5645 16.3401 31.7603 15.6763C31.9608 15.0125 32.0611 14.3368 32.0611 13.6492C32.0611 12.9567 31.8199 12.6105 31.3376 12.6105C30.9174 12.6105 30.5091 12.8087 30.1127 13.2051C29.7212 13.6014 29.406 14.1172 29.1672 14.7523C28.9332 15.3826 28.8162 16.0297 28.8162 16.6935ZM39.6895 11.6292L43.0848 11.5504C43.209 11.5504 43.3021 11.5886 43.3642 11.665C43.4262 11.7366 43.4573 11.8274 43.4573 11.9372C43.4573 12.0423 43.431 12.2142 43.3785 12.4529C44.6535 11.751 45.7638 11.4 46.7093 11.4C47.12 11.4 47.4997 11.5026 47.8483 11.708C48.2016 11.9133 48.4309 12.2166 48.5359 12.6177C50.0927 11.8059 51.382 11.4 52.404 11.4C52.8529 11.4 53.2492 11.5265 53.593 11.7796C53.9608 12.0566 54.1446 12.4482 54.1446 12.9544C54.1446 13.4558 54.0563 13.9858 53.8796 14.5446C53.7077 15.0985 53.5334 15.6166 53.3567 16.099C53.1848 16.5813 53.0988 16.9227 53.0988 17.1233C53.0988 17.3191 53.1489 17.4671 53.2492 17.5674C53.3495 17.6677 53.4832 17.7178 53.6504 17.7178C54.2664 17.7178 55.0304 17.5029 55.9425 17.0731C56.1145 16.9967 56.2458 16.9585 56.3365 16.9585C56.5514 16.9585 56.6588 17.0445 56.6588 17.2164C56.6588 17.3692 56.5657 17.5149 56.3795 17.6533C56.198 17.7871 55.933 17.9351 55.5844 18.0975C55.2358 18.2598 54.8036 18.4341 54.2879 18.6204C53.7769 18.8066 53.1752 18.9642 52.4828 19.0931C51.7903 19.2221 51.1719 19.2865 50.6275 19.2865C50.0879 19.2865 49.6844 19.1958 49.417 19.0143C49.1495 18.8329 49.0158 18.5989 49.0158 18.3123C49.0158 18.0258 49.1066 17.596 49.288 17.023C49.4743 16.4499 49.6605 15.8841 49.8468 15.3253C50.033 14.7618 50.1261 14.3535 50.1261 14.1004C50.1261 13.8426 50.064 13.6587 49.9399 13.5489C49.8157 13.4343 49.6295 13.377 49.3812 13.377C49.1376 13.377 48.8678 13.4152 48.5717 13.4916C48.4953 14.3082 48.1778 15.5522 47.619 17.2236C47.385 17.9255 47.2537 18.3649 47.2251 18.5416C47.1964 18.7183 47.1773 18.8209 47.1678 18.8496C47.1582 18.8735 47.1415 18.9069 47.1176 18.9499C47.0746 19.0263 46.9839 19.0645 46.8454 19.0645C46.1578 19.0645 45.4773 19.0764 44.8039 19.1003C44.1354 19.1289 43.7032 19.1433 43.5074 19.1433C43.3164 19.1433 43.2209 19.031 43.2209 18.8066C43.2209 18.5822 43.2949 18.2479 43.443 17.8038C43.591 17.3597 43.7557 16.9179 43.9372 16.4786C44.41 15.3134 44.6464 14.4443 44.6464 13.8712C44.6464 13.4462 44.3694 13.2337 43.8154 13.2337C43.5814 13.2337 43.3594 13.2719 43.1493 13.3483C42.963 13.9835 42.6407 14.9887 42.1823 16.364C41.7286 17.7393 41.4731 18.5129 41.4158 18.6848C41.3394 18.9379 41.2033 19.0645 41.0075 19.0645L37.3257 19.1433C37.2732 19.1433 37.2135 19.1098 37.1466 19.043C37.0845 18.9809 37.0535 18.9069 37.0535 18.8209C37.0535 18.7302 37.1538 18.4174 37.3543 17.8826C37.5597 17.3429 37.7841 16.7651 38.0277 16.1491C38.2712 15.5283 38.4933 14.8478 38.6938 14.1076C38.8992 13.3627 39.0018 12.7466 39.0018 12.2595L38.9947 11.9873C38.9947 11.7486 39.2263 11.6292 39.6895 11.6292ZM67.7112 16.9585C67.8783 16.9585 67.9619 17.0373 67.9619 17.1949C67.9619 17.3477 67.8473 17.491 67.6181 17.6247C67.3936 17.7536 67.1143 17.8945 66.78 18.0473C66.4457 18.1953 65.9849 18.372 65.3975 18.5774C64.0461 19.0501 62.5204 19.2865 60.8203 19.2865C57.5922 19.2865 55.9781 18.2932 55.9781 16.3067C55.9781 15.3373 56.2837 14.4777 56.8949 13.728C57.511 12.9735 58.3347 12.398 59.3662 12.0017C60.3977 11.6005 61.5223 11.4 62.74 11.4C63.9577 11.4 64.8484 11.5886 65.4119 11.9658C65.9801 12.3431 66.2643 12.8612 66.2643 13.5202C66.2643 14.1983 65.9921 14.7523 65.4477 15.1821C64.9081 15.6119 64.1894 15.9318 63.2916 16.1419C62.389 16.352 61.3552 16.5001 60.19 16.586C60.2664 17.3262 60.7964 17.7871 61.7802 17.9685C62.0333 18.0115 62.3007 18.033 62.5824 18.033C63.6999 18.033 65.3116 17.6963 67.4175 17.023C67.5465 16.98 67.6443 16.9585 67.7112 16.9585ZM60.1971 15.7981C61.028 15.5689 61.6847 15.2179 62.167 14.7451C62.6493 14.2724 62.8904 13.7017 62.8904 13.0331C62.8904 12.8565 62.8331 12.7156 62.7185 12.6105C62.6039 12.5055 62.4296 12.4529 62.1956 12.4529C61.9664 12.4529 61.7253 12.5532 61.4722 12.7538C61.2238 12.9544 61.0137 13.217 60.8418 13.5417C60.4789 14.2151 60.264 14.9672 60.1971 15.7981ZM81.3852 16.9585C81.6001 16.9585 81.7076 17.0564 81.7076 17.2522C81.7076 17.3907 81.6073 17.534 81.4067 17.682C80.8719 18.0736 80.072 18.4389 79.0071 18.7779C77.947 19.117 77.0205 19.2865 76.2278 19.2865C75.4351 19.2865 74.8501 19.203 74.4729 19.0358C74.1004 18.8735 73.8425 18.5845 73.6993 18.1691C73.4223 18.4508 73.0235 18.7087 72.503 18.9427C71.9825 19.1719 71.4309 19.2865 70.8483 19.2865C70.2705 19.2865 69.7978 19.234 69.4301 19.1289C69.0623 19.0287 68.7281 18.8735 68.4272 18.6633C68.1264 18.4532 67.8876 18.1667 67.7109 17.8038C67.539 17.4361 67.453 17.0087 67.453 16.5216C67.453 16.0345 67.5271 15.5498 67.6751 15.0675C67.8231 14.5852 68.05 14.1243 68.3556 13.685C68.666 13.2409 69.0361 12.8493 69.4659 12.5102C69.8957 12.1712 70.4162 11.9014 71.0274 11.7008C71.6434 11.5002 72.3048 11.4 73.0116 11.4C74.172 11.4 75.1366 11.6889 75.9055 12.2667C76.1729 10.5667 76.3066 9.45638 76.3066 8.93586L76.2995 8.72813C76.2995 8.48937 76.5311 8.36998 76.9943 8.36998L80.2033 8.52041C80.3179 8.52041 80.4087 8.55622 80.4755 8.62785C80.5424 8.69471 80.5758 8.77111 80.5758 8.85707C80.5758 9.60203 80.1818 11.1302 79.3939 13.4414C78.606 15.748 78.212 17.0134 78.212 17.2379C78.212 17.4623 78.243 17.6223 78.3051 17.7178C78.372 17.8133 78.5081 17.8611 78.7134 17.8611C78.9188 17.8611 79.2721 17.7751 79.7736 17.6032C80.275 17.4313 80.6522 17.2809 80.9053 17.1519C81.1584 17.023 81.3184 16.9585 81.3852 16.9585ZM72.5102 17.4671C73.408 17.4671 74.1577 16.7794 74.7594 15.4041C75.1032 14.7451 75.2751 14.1625 75.2751 13.6563C75.2751 13.3794 75.2083 13.1669 75.0746 13.0188C74.9456 12.8708 74.6854 12.7968 74.2938 12.7968C73.907 12.7968 73.482 12.9782 73.0188 13.3412C72.5555 13.7041 72.1807 14.1601 71.8942 14.7093C71.6124 15.2537 71.4715 15.7432 71.4715 16.1777C71.4715 16.6075 71.567 16.9299 71.7581 17.1448C71.9491 17.3597 72.1998 17.4671 72.5102 17.4671ZM95.1882 16.9585C95.3649 16.9585 95.4533 17.0397 95.4533 17.2021C95.4533 17.522 94.842 17.9375 93.6195 18.4484C92.8555 18.7684 92.015 19.0263 91.0981 19.2221C90.9835 19.542 90.8808 19.8238 90.7901 20.0673C90.6994 20.3156 90.5322 20.5926 90.2887 20.8982C90.0499 21.2038 89.7658 21.4593 89.4363 21.6647C89.1115 21.87 88.7606 22.0419 88.3833 22.1804C88.0108 22.3237 87.5906 22.4335 87.1226 22.5099C86.2774 22.6532 85.2865 22.7248 84.1499 22.7248C83.0181 22.7248 82.1466 22.5983 81.5354 22.3452C80.9241 22.0921 80.6185 21.7267 80.6185 21.2492C80.6185 20.9722 80.7379 20.7215 80.9767 20.4971C81.2154 20.2726 81.5258 20.084 81.9079 19.9312C82.2947 19.7784 82.7865 19.6399 83.3835 19.5157C84.4006 19.3104 85.678 19.1409 87.2157 19.0072C87.3447 18.5822 87.4378 18.2264 87.4951 17.9399C86.1054 18.4556 84.8304 18.7135 83.67 18.7135C82.118 18.7135 81.342 18.2001 81.342 17.1734C81.342 16.4523 81.5569 15.5617 81.9867 14.5016C82.4212 13.4367 82.6385 12.6893 82.6385 12.2595L82.6313 11.9873C82.6313 11.7486 82.8629 11.6292 83.3262 11.6292L84.9952 11.6578L86.5066 11.5504C86.6307 11.5504 86.7239 11.5886 86.7859 11.665C86.848 11.7366 86.8791 11.8656 86.8791 12.0518C86.8791 12.2333 86.8074 12.5532 86.6642 13.0117C86.5257 13.4653 86.3729 13.8903 86.2057 14.2867C85.7521 15.3516 85.5252 16.0679 85.5252 16.4356C85.5252 16.6457 85.6016 16.8057 85.7544 16.9155C85.9073 17.0254 86.1078 17.0803 86.3561 17.0803C86.8814 17.0803 87.3709 16.9346 87.8246 16.6433C88.3355 15.2633 88.8059 13.728 89.2357 12.0375C89.2787 11.8608 89.4052 11.7724 89.6154 11.7724C90.3078 11.7724 91.0504 11.7366 91.8431 11.665C92.6358 11.5886 93.0894 11.5504 93.2041 11.5504C93.3234 11.5504 93.4166 11.579 93.4834 11.6363C93.5503 11.6937 93.5837 11.7486 93.5837 11.8011C93.5837 12.0064 92.8698 14.1578 91.4419 18.255C92.1487 18.0879 92.8053 17.8897 93.4118 17.6605C94.023 17.4265 94.4385 17.2522 94.6582 17.1376C94.8826 17.0182 95.0593 16.9585 95.1882 16.9585ZM86.5997 20.8123C86.7382 20.4637 86.8576 20.1342 86.9578 19.8238C84.8089 20.096 83.7345 20.5926 83.7345 21.3137C83.7345 21.4999 83.83 21.6742 84.021 21.8366C84.2168 22.0037 84.4126 22.0873 84.6084 22.0873C85.0429 22.0873 85.4488 21.9751 85.8261 21.7506C86.2033 21.531 86.4612 21.2182 86.5997 20.8123ZM101.699 11.8704C102.55 11.8704 103.254 12.5745 103.254 13.4254C103.254 14.2909 102.55 14.9951 101.699 14.9951C100.834 14.9951 100.13 14.2909 100.13 13.4254C100.13 12.5745 100.834 11.8704 101.699 11.8704ZM36.0687 45.2865C34.4785 45.2865 33.6834 44.7588 33.6834 43.7035C33.6834 43.1018 34.063 41.9008 34.8223 40.1004C35.5816 38.2954 35.9613 37.0442 35.9613 36.347C35.9613 35.9554 35.8156 35.6784 35.5243 35.5161C35.2378 35.3489 34.8199 35.2654 34.2708 35.2654C33.7264 35.2654 33.1724 35.3131 32.6089 35.4086C32.0454 35.5041 31.6825 35.5519 31.5201 35.5519C31.3626 35.5519 31.2838 35.4803 31.2838 35.337C31.2838 35.1508 31.6204 34.9048 32.2938 34.5992C33.5879 34.0071 35.0133 33.711 36.5701 33.711C37.8022 33.711 38.7238 33.933 39.3351 34.3771C39.9511 34.8213 40.2591 35.5423 40.2591 36.5404C40.2591 37.1325 40.154 37.8751 39.9439 38.7681C39.7338 39.6563 39.5237 40.492 39.3136 41.2752C39.1082 42.0584 39.0056 42.5956 39.0056 42.8869C39.0056 43.1782 39.0605 43.3811 39.1703 43.4958C39.3088 43.639 39.5762 43.7106 39.9726 43.7106C40.2161 43.7106 40.3522 43.7369 40.3809 43.7894C40.4143 43.842 40.431 43.8969 40.431 43.9542C40.431 44.1739 40.3307 44.3529 40.1302 44.4914C39.3709 45.0215 38.0171 45.2865 36.0687 45.2865ZM31.8998 40.1004L33.7335 40.0575C34.0678 40.0575 34.235 40.1554 34.235 40.3512C34.235 40.4896 34.1562 40.5995 33.9986 40.6807C33.4446 40.9624 32.4895 41.1415 31.1333 41.2179C30.7465 41.982 30.5531 42.6529 30.5531 43.2307C30.5531 43.4886 30.5866 43.7274 30.6534 43.947C30.7203 44.1619 30.7537 44.3171 30.7537 44.4126C30.7537 44.6657 30.5937 44.8376 30.2738 44.9284C29.9538 45.0143 29.4834 45.0573 28.8626 45.0573C28.2466 45.0573 27.8407 45.0024 27.6449 44.8926C27.4491 44.7779 27.3512 44.5774 27.3512 44.2909C27.3512 43.756 27.5064 43.1662 27.8168 42.5216C28.132 41.8769 28.5331 41.2609 29.0202 40.6735C29.5073 40.0813 30.0469 39.5011 30.6391 38.9329C31.2312 38.3646 31.8067 37.8751 32.3654 37.4644C33.607 36.5428 34.4522 36.082 34.9011 36.082C35.1065 36.082 35.2091 36.144 35.2091 36.2682C35.2091 36.3924 35.1088 36.5308 34.9083 36.6837C34.4833 36.9941 33.9747 37.4668 33.3825 38.1019C32.7904 38.7371 32.2627 39.4032 31.7995 40.1004H31.8998ZM55.946 42.9585C56.1227 42.9585 56.211 43.0421 56.211 43.2092C56.211 43.3716 56.1227 43.5149 55.946 43.639C55.7741 43.7632 55.5186 43.9064 55.1795 44.0688C54.8405 44.2264 54.4179 44.4007 53.9117 44.5917C53.4102 44.7827 52.8277 44.9451 52.1639 45.0788C51.5049 45.2173 50.8745 45.2865 50.2728 45.2865C48.8545 45.2865 48.1454 44.9618 48.1454 44.3123C48.1454 43.8921 48.3841 43.1424 48.8617 42.0631C49.344 40.9791 49.5852 40.2485 49.5852 39.8712C49.5852 39.4462 49.2533 39.2337 48.5895 39.2337C48.2886 39.2337 47.9472 39.2719 47.5652 39.3483C47.3837 39.9882 47.059 41.0054 46.591 42.3998C46.1278 43.7942 45.8651 44.5869 45.8031 44.7779C45.7457 44.969 45.6192 45.0645 45.4234 45.0645L41.7344 45.1433C41.6819 45.1433 41.6222 45.1098 41.5553 45.043C41.4933 44.9809 41.4622 44.9069 41.4622 44.8209C41.4622 44.7302 41.5625 44.4174 41.7631 43.8826C41.9684 43.3429 42.1929 42.7651 42.4364 42.1491C42.6847 41.5283 42.9092 40.8478 43.1097 40.1076C43.3151 39.3627 43.4177 38.7466 43.4177 38.2595L43.4106 37.9873C43.4106 37.7486 43.6422 37.6292 44.1054 37.6292L47.5007 37.5504C47.6249 37.5504 47.718 37.5886 47.7801 37.665C47.8421 37.7366 47.8732 37.8274 47.8732 37.9372C47.8732 38.0423 47.8469 38.2142 47.7944 38.4529C49.4753 37.751 50.8554 37.4 51.9347 37.4C52.3931 37.4 52.8109 37.5265 53.1882 37.7796C53.6084 38.0614 53.8185 38.4888 53.8185 39.0618C53.8185 39.6492 53.5965 40.418 53.1524 41.3683C52.7083 42.3186 52.4862 42.906 52.4862 43.1304C52.4862 43.5745 52.6629 43.7966 53.0163 43.7966C53.2407 43.7966 53.6228 43.713 54.1624 43.5459C54.7068 43.374 55.1079 43.2331 55.3658 43.1233C55.6284 43.0134 55.8218 42.9585 55.946 42.9585ZM62.5071 34.9C62.5071 35.411 62.2229 35.8575 61.6547 36.2395C61.0912 36.6168 60.4943 36.8054 59.8639 36.8054C59.2383 36.8054 58.7512 36.6789 58.4026 36.4258C58.054 36.1679 57.8797 35.8551 57.8797 35.4874C57.8797 35.1197 58.0134 34.7854 58.2809 34.4846C58.5483 34.1837 58.8945 33.9474 59.3195 33.7754C59.7493 33.6035 60.2149 33.5176 60.7163 33.5176C61.2177 33.5176 61.6403 33.6513 61.9842 33.9187C62.3328 34.1814 62.5071 34.5085 62.5071 34.9ZM60.4943 43.7894C60.819 43.7894 61.2583 43.713 61.8123 43.5602C62.371 43.4026 62.7769 43.2641 63.03 43.1448C63.2831 43.0206 63.4598 42.9585 63.5601 42.9585C63.7606 42.9585 63.8609 43.0588 63.8609 43.2594C63.8609 43.3501 63.7869 43.4528 63.6388 43.5674C63.1518 43.9303 62.2755 44.3076 61.01 44.6992C59.7445 45.0907 58.6151 45.2865 57.6219 45.2865C57.0058 45.2865 56.4901 45.1886 56.0746 44.9928C55.6592 44.797 55.4514 44.4986 55.4514 44.0975C55.4514 43.8539 55.6592 43.257 56.0746 42.3067C56.8578 40.5064 57.2494 39.1501 57.2494 38.238L57.2422 37.9658C57.2422 37.7271 57.4738 37.6077 57.937 37.6077L61.4756 37.5289C61.5998 37.5289 61.6929 37.5671 61.755 37.6435C61.817 37.7151 61.8481 37.7963 61.8481 37.8871C61.8481 38.2166 61.6977 38.761 61.3968 39.5202C61.096 40.2748 60.7951 41.0173 60.4943 41.748C60.1934 42.4786 60.043 43.0015 60.043 43.3167C60.043 43.6319 60.1934 43.7894 60.4943 43.7894ZM65.5153 37.6292L68.9106 37.5504C69.0348 37.5504 69.1279 37.5886 69.19 37.665C69.252 37.7366 69.2831 37.8274 69.2831 37.9372C69.2831 38.0423 69.2568 38.2142 69.2043 38.4529C70.4793 37.751 71.5896 37.4 72.5351 37.4C72.9458 37.4 73.3254 37.5026 73.674 37.708C74.0274 37.9133 74.2566 38.2166 74.3617 38.6177C75.9185 37.8059 77.2078 37.4 78.2298 37.4C78.6787 37.4 79.075 37.5265 79.4188 37.7796C79.7865 38.0566 79.9704 38.4482 79.9704 38.9544C79.9704 39.4558 79.8821 39.9858 79.7054 40.5446C79.5334 41.0985 79.3591 41.6166 79.1825 42.099C79.0105 42.5813 78.9246 42.9227 78.9246 43.1233C78.9246 43.3191 78.9747 43.4671 79.075 43.5674C79.1753 43.6677 79.309 43.7178 79.4761 43.7178C80.0922 43.7178 80.8562 43.5029 81.7683 43.0731C81.9402 42.9967 82.0716 42.9585 82.1623 42.9585C82.3772 42.9585 82.4846 43.0445 82.4846 43.2164C82.4846 43.3692 82.3915 43.5149 82.2053 43.6533C82.0238 43.7871 81.7588 43.9351 81.4102 44.0975C81.0616 44.2598 80.6294 44.4341 80.1137 44.6204C79.6027 44.8066 79.001 44.9642 78.3086 45.0931C77.6161 45.2221 76.9977 45.2865 76.4533 45.2865C75.9137 45.2865 75.5102 45.1958 75.2428 45.0143C74.9753 44.8329 74.8416 44.5989 74.8416 44.3123C74.8416 44.0258 74.9324 43.596 75.1138 43.023C75.3001 42.4499 75.4863 41.8841 75.6725 41.3253C75.8588 40.7618 75.9519 40.3535 75.9519 40.1004C75.9519 39.8426 75.8898 39.6587 75.7657 39.5489C75.6415 39.4343 75.4553 39.377 75.2069 39.377C74.9634 39.377 74.6936 39.4152 74.3975 39.4916C74.3211 40.3082 74.0035 41.5522 73.4448 43.2236C73.2108 43.9255 73.0795 44.3649 73.0509 44.5416C73.0222 44.7183 73.0031 44.8209 72.9936 44.8496C72.984 44.8735 72.9673 44.9069 72.9434 44.9499C72.9004 45.0263 72.8097 45.0645 72.6712 45.0645C71.9836 45.0645 71.3031 45.0764 70.6297 45.1003C69.9612 45.1289 69.529 45.1433 69.3332 45.1433C69.1422 45.1433 69.0467 45.031 69.0467 44.8066C69.0467 44.5822 69.1207 44.2479 69.2687 43.8038C69.4168 43.3597 69.5815 42.9179 69.763 42.4786C70.2358 41.3134 70.4721 40.4443 70.4721 39.8712C70.4721 39.4462 70.1952 39.2337 69.6412 39.2337C69.4072 39.2337 69.1852 39.2719 68.9751 39.3483C68.7888 39.9835 68.4665 40.9887 68.008 42.364C67.5544 43.7393 67.2989 44.5129 67.2416 44.6848C67.1652 44.9379 67.0291 45.0645 66.8333 45.0645L63.1515 45.1433C63.0989 45.1433 63.0392 45.1098 62.9724 45.043C62.9103 44.9809 62.8793 44.9069 62.8793 44.8209C62.8793 44.7302 62.9796 44.4174 63.1801 43.8826C63.3855 43.3429 63.6099 42.7651 63.8535 42.1491C64.097 41.5283 64.3191 40.8478 64.5196 40.1076C64.725 39.3627 64.8276 38.7466 64.8276 38.2595L64.8205 37.9873C64.8205 37.7486 65.0521 37.6292 65.5153 37.6292ZM93.537 42.9585C93.7041 42.9585 93.7877 43.0373 93.7877 43.1949C93.7877 43.3477 93.6731 43.491 93.4439 43.6247C93.2194 43.7536 92.9401 43.8945 92.6058 44.0473C92.2715 44.1953 91.8107 44.372 91.2233 44.5774C89.8719 45.0501 88.3461 45.2865 86.6461 45.2865C83.4179 45.2865 81.8039 44.2932 81.8039 42.3067C81.8039 41.3373 82.1095 40.4777 82.7207 39.728C83.3368 38.9735 84.1605 38.398 85.192 38.0017C86.2235 37.6005 87.3481 37.4 88.5658 37.4C89.7835 37.4 90.6741 37.5886 91.2376 37.9658C91.8059 38.3431 92.09 38.8612 92.09 39.5202C92.09 40.1983 91.8179 40.7523 91.2735 41.1821C90.7338 41.6119 90.0151 41.9318 89.1174 42.1419C88.2148 42.352 87.1809 42.5001 86.0158 42.586C86.0922 43.3262 86.6222 43.7871 87.606 43.9685C87.8591 44.0115 88.1265 44.033 88.4082 44.033C89.5257 44.033 91.1374 43.6963 93.2433 43.023C93.3722 42.98 93.4701 42.9585 93.537 42.9585ZM86.0229 41.7981C86.8538 41.5689 87.5104 41.2179 87.9928 40.7451C88.4751 40.2724 88.7162 39.7017 88.7162 39.0331C88.7162 38.8565 88.6589 38.7156 88.5443 38.6105C88.4297 38.5055 88.2554 38.4529 88.0214 38.4529C87.7922 38.4529 87.551 38.5532 87.2979 38.7538C87.0496 38.9544 86.8395 39.217 86.6676 39.5417C86.3047 40.2151 86.0898 40.9672 86.0229 41.7981Z" fill="white"/>
<path d="M113.706 19.64C113.578 19.2536 113.587 18.56 113.706 18.02L108.182 17.48L102.123 20C103.192 21.08 108.004 22.16 110.498 21.98C110.77 21.9604 115.131 21.62 115.666 21.08C114.953 20.72 113.884 20.18 113.706 19.64Z" fill="#EAE8F2"/>
<ellipse cx="106.758" cy="12.44" rx="8.90985" ry="9.0001" fill="#EAE8F2"/>
<ellipse cx="0.571187" cy="0.764717" rx="0.571187" ry="0.764717" transform="matrix(0.836413 0.5481 -0.540379 0.841422 103.664 9.91992)" fill="#262626"/>
<ellipse cx="0.569783" cy="0.766577" rx="0.569783" ry="0.766577" transform="matrix(0.972292 -0.23377 0.229353 0.973343 108.182 10.1865)" fill="#262626"/>
<path d="M104.053 13.4052L103.985 12.9221C103.94 12.6014 103.665 12.363 103.341 12.363C103.244 12.363 103.146 12.3826 103.064 12.4352C102.943 12.5125 102.848 12.6039 102.773 12.6976C102.511 13.0244 102.477 13.4881 102.576 13.8952C102.99 15.602 104.533 16.3417 105.332 16.5031C106.066 16.5958 106.741 16.594 107.224 16.5649C107.626 16.5407 108.023 16.4405 108.366 16.2288C109.236 15.6909 109.826 14.8407 110.136 14.2265C110.274 13.953 110.321 13.6464 110.321 13.34V13.1443C110.321 13.0351 110.309 12.9263 110.285 12.8198C110.195 12.4139 109.916 12.0763 109.501 12.1003C109.303 12.1119 109.106 12.156 108.985 12.2539C108.912 12.3134 108.883 12.4089 108.857 12.5L108.581 13.4754C108.556 13.5627 108.476 13.623 108.386 13.623C108.274 13.623 108.183 13.5316 108.179 13.4196C108.164 12.9743 108.096 12.7498 108.025 12.6386C107.939 12.5061 107.745 12.5432 107.587 12.5417C106.619 12.5326 104.914 12.4865 104.797 12.723C104.653 13.0146 104.586 13.3062 104.503 13.5021C104.47 13.5805 104.389 13.623 104.304 13.623C104.178 13.623 104.071 13.5301 104.053 13.4052Z" fill="#262626"/>
<path d="M98.1086 13.4197C98.0892 13.2775 98.083 13.1493 98.0865 13.0345C98.1042 12.467 98.709 12.1664 98.9816 12.6646C99.5418 13.6887 100.229 16.1078 100.629 17.7246C100.678 17.9198 100.769 18.1003 100.881 18.2672C100.891 18.2817 100.9 18.2957 100.909 18.3094C101.188 18.7396 102.077 19.0702 102.127 18.5597C102.143 18.3915 101.436 15.5661 100.856 13.4442C100.647 12.6805 100.541 11.9419 99.9836 11.3792C99.5228 10.9136 98.722 10.6332 98.0825 10.7757C96.6425 11.0967 96.7809 11.8055 96.7809 12.2597C96.7809 12.6437 96.8459 13.4773 96.9759 14.1524C97.0455 14.5137 97.4093 14.711 97.7661 14.6209C97.8219 14.6068 97.8774 14.588 97.9226 14.5523C97.9973 14.4933 98.0524 14.4152 98.0931 14.3331C98.2314 14.0537 98.1506 13.7285 98.1086 13.4197Z" fill="#4B465F"/>
<path d="M107.71 3.60986C107.833 3.54784 107.99 3.52331 108.182 3.62002C108.573 3.81755 109.17 3.78807 109.432 3.43628L109.865 2.85219C110.222 2.37191 110.889 2.24859 111.394 2.56962L114.268 4.39796C114.85 4.76811 115.037 5.5311 114.692 6.12838L114.393 6.64733C114.209 6.96558 114.313 7.37237 114.628 7.56285L114.659 7.5817C114.841 7.69243 114.953 7.89055 114.953 8.10419C114.953 8.33471 114.823 8.54561 114.618 8.64953L114.583 8.66701C114.37 8.77429 114.117 8.7616 113.917 8.6336L107.816 4.74129C107.6 4.60346 107.469 4.36491 107.469 4.10864C107.469 3.91093 107.533 3.69894 107.71 3.60986Z" fill="#353143"/>
</svg>
