<svg width="119" height="54" viewBox="0 0 119 54" fill="none" xmlns="http://www.w3.org/2000/svg">
<path d="M21.6425 9.2582C21.0361 9.2582 20.389 9.3179 19.7013 9.43728C19.0185 9.55189 18.443 9.68083 17.975 9.82409C17.507 9.96735 17.082 10.0987 16.7 10.2181C16.318 10.3327 16.0888 10.39 16.0123 10.39C15.7497 10.39 15.6184 10.2992 15.6184 10.1178C15.6184 9.93153 15.7616 9.74291 16.0482 9.55189C16.9698 8.93586 18.0132 8.47504 19.1784 8.16941C20.3484 7.86379 21.4658 7.71098 22.5308 7.71098C23.6004 7.71098 24.4743 7.79932 25.1524 7.97601C25.8353 8.1527 26.3988 8.39386 26.8429 8.69948C27.287 9.00511 27.6524 9.37759 27.9389 9.81692C28.4737 10.6335 28.7412 11.6531 28.7412 12.8756C28.7412 14.1649 28.3878 15.3516 27.681 16.4356C26.9026 17.6247 25.8735 18.4508 24.5937 18.914C23.8965 19.1624 23.1492 19.2865 22.3517 19.2865C21.0814 19.2865 20.0881 19.086 19.3718 18.6848C19.1713 18.8806 18.9277 19.0048 18.6412 19.0573C18.3547 19.1146 17.9583 19.1433 17.4521 19.1433C16.9459 19.1433 16.4612 19.1027 15.998 19.0215C15.5396 18.9403 15.1385 18.8376 14.7946 18.7135C14.4508 18.5845 14.169 18.4437 13.9494 18.2909C13.7297 18.1333 13.6199 17.9924 13.6199 17.8682C13.6199 17.7441 13.67 17.6486 13.7703 17.5817C13.8658 17.5101 13.9756 17.4743 14.0998 17.4743C14.5296 17.4743 14.8448 17.4074 15.0453 17.2737C15.2507 17.1352 15.4584 16.8773 15.6685 16.5001C15.8834 16.1228 16.0816 15.693 16.2631 15.2107C16.4445 14.7284 16.614 14.2652 16.7716 13.8211C16.934 13.377 17.1179 12.9281 17.3232 12.4744C17.7673 11.4764 18.3236 10.8198 18.9922 10.5046C19.3217 10.3518 19.7419 10.2348 20.2529 10.1536C20.7639 10.0676 21.2772 10.0247 21.793 10.0247C22.3087 10.0247 22.5666 10.144 22.5666 10.3828C22.5666 10.5643 22.4567 10.8269 22.2371 11.1707C22.0222 11.5146 21.7906 12.047 21.5422 12.7681C21.2939 13.4892 21.017 14.3488 20.7113 15.3468C20.4105 16.3449 20.1765 17.0755 20.0093 17.5387L19.8876 17.8539C20.0356 17.8682 20.2672 17.8754 20.5824 17.8754C20.8976 17.8754 21.2486 17.8085 21.6354 17.6748C22.027 17.5411 22.366 17.3597 22.6525 17.1304C22.9391 16.8964 23.1969 16.6219 23.4261 16.3067C23.6601 15.9915 23.8512 15.6572 23.9992 15.3038C24.152 14.9457 24.2785 14.5684 24.3788 14.1721C24.5651 13.4414 24.6582 12.6583 24.6582 11.8226C24.6582 10.113 23.653 9.2582 21.6425 9.2582ZM31.8855 11.6292L35.2808 11.5504C35.4049 11.5504 35.498 11.5886 35.5601 11.665C35.6222 11.7366 35.6532 11.8035 35.6532 11.8656C35.6532 11.9276 35.6365 12.0303 35.6031 12.1736C35.5697 12.3168 35.5267 12.4911 35.4742 12.6965C35.4216 12.8971 35.3882 13.026 35.3739 13.0833C35.7464 12.6392 36.212 12.2476 36.7707 11.9085C37.3294 11.5695 37.8213 11.4 38.2463 11.4C39.1488 11.4 39.6001 11.5958 39.6001 11.9873C39.6001 12.3741 39.4783 12.8397 39.2348 13.3841C38.9912 13.9238 38.762 14.2795 38.5471 14.4514C38.4421 14.5278 38.3131 14.566 38.1603 14.566C38.0123 14.566 37.8738 14.5183 37.7449 14.4228C37.167 13.993 36.5367 13.7781 35.8538 13.7781C35.5912 13.7781 35.3619 13.7972 35.1662 13.8354C34.9799 14.4753 34.6838 15.4161 34.2779 16.6577C33.872 17.8945 33.6476 18.5845 33.6046 18.7278C33.533 18.9522 33.3993 19.0645 33.2035 19.0645C32.511 19.0645 31.7685 19.1003 30.9757 19.1719C30.183 19.2483 29.727 19.2865 29.6076 19.2865C29.493 19.2865 29.4023 19.2531 29.3354 19.1862C29.2733 19.1242 29.2423 19.0501 29.2423 18.9642C29.2423 18.8735 29.3426 18.5535 29.5431 18.0043C29.7485 17.4504 29.9729 16.8558 30.2165 16.2207C30.4648 15.5856 30.6892 14.8884 30.8898 14.1291C31.0951 13.3698 31.1978 12.7466 31.1978 12.2595L31.1906 11.9873C31.1906 11.7486 31.4222 11.6292 31.8855 11.6292ZM44.8504 17.4671C45.7481 17.4671 46.4979 16.7794 47.0996 15.4041C47.3765 14.7738 47.515 14.2628 47.515 13.8712C47.515 13.4796 47.4482 13.2098 47.3145 13.0618C47.1855 12.9138 46.9277 12.8397 46.5408 12.8397C46.1588 12.8397 45.7434 13.0188 45.2945 13.377C44.8504 13.7304 44.4922 14.1769 44.22 14.7165C43.9478 15.2561 43.8117 15.7432 43.8117 16.1777C43.8117 16.6075 43.9072 16.9299 44.0982 17.1448C44.2893 17.3597 44.54 17.4671 44.8504 17.4671ZM48.5752 11.4L51.8559 11.5504C51.98 11.5504 52.0731 11.5886 52.1352 11.665C52.1973 11.7366 52.2283 11.8178 52.2283 11.9085C52.2283 12.2571 52.0827 12.8135 51.7914 13.5775C51.5049 14.3368 51.216 15.0913 50.9247 15.8411C50.6381 16.586 50.4949 17.0803 50.4949 17.3238C50.4949 17.5626 50.5307 17.7154 50.6023 17.7823C50.6787 17.8491 50.822 17.8826 51.0321 17.8826C51.2422 17.8826 51.6243 17.7823 52.1782 17.5817C52.7369 17.3764 53.1142 17.2212 53.31 17.1161C53.5105 17.011 53.6633 16.9585 53.7684 16.9585C53.9546 16.9585 54.0478 17.0421 54.0478 17.2092C54.0478 17.5626 53.3315 18.0258 51.8988 18.5989C51.4165 18.7947 50.8339 18.957 50.151 19.086C49.4729 19.2197 48.7829 19.2865 48.0809 19.2865C46.9109 19.2865 46.2066 18.914 45.9678 18.1691C45.2228 18.914 44.22 19.2865 42.9593 19.2865C42.095 19.2865 41.3643 19.0788 40.7674 18.6633C40.1179 18.2097 39.7932 17.4958 39.7932 16.5216C39.7932 15.4949 40.0965 14.5493 40.7029 13.685C41.3667 12.7251 42.2549 12.0637 43.3676 11.7008C43.9836 11.5002 44.645 11.4 45.3518 11.4C46.4358 11.4 47.2786 11.6674 47.8803 12.2022C47.8851 12.1736 47.8875 12.1282 47.8875 12.0661L47.8803 11.7581C47.8803 11.5194 48.112 11.4 48.5752 11.4ZM55.7021 11.6292L59.0975 11.5504C59.2216 11.5504 59.3147 11.5886 59.3768 11.665C59.4389 11.7366 59.4699 11.8274 59.4699 11.9372C59.4699 12.0423 59.4437 12.2142 59.3911 12.4529C60.6662 11.751 61.7764 11.4 62.722 11.4C63.1327 11.4 63.5123 11.5026 63.8609 11.708C64.2143 11.9133 64.4435 12.2166 64.5486 12.6177C66.1053 11.8059 67.3947 11.4 68.4166 11.4C68.8655 11.4 69.2619 11.5265 69.6057 11.7796C69.9734 12.0566 70.1573 12.4482 70.1573 12.9544C70.1573 13.4558 70.0689 13.9858 69.8922 14.5446C69.7203 15.0985 69.546 15.6166 69.3693 16.099C69.1974 16.5813 69.1114 16.9227 69.1114 17.1233C69.1114 17.3191 69.1616 17.4671 69.2619 17.5674C69.3622 17.6677 69.4959 17.7178 69.663 17.7178C70.279 17.7178 71.0431 17.5029 71.9552 17.0731C72.1271 16.9967 72.2584 16.9585 72.3492 16.9585C72.5641 16.9585 72.6715 17.0445 72.6715 17.2164C72.6715 17.3692 72.5784 17.5149 72.3921 17.6533C72.2107 17.7871 71.9456 17.9351 71.597 18.0975C71.2484 18.2598 70.8163 18.4341 70.3005 18.6204C69.7896 18.8066 69.1879 18.9642 68.4954 19.0931C67.803 19.2221 67.1846 19.2865 66.6402 19.2865C66.1006 19.2865 65.697 19.1958 65.4296 19.0143C65.1622 18.8329 65.0285 18.5989 65.0285 18.3123C65.0285 18.0258 65.1192 17.596 65.3007 17.023C65.4869 16.4499 65.6732 15.8841 65.8594 15.3253C66.0456 14.7618 66.1388 14.3535 66.1388 14.1004C66.1388 13.8426 66.0767 13.6587 65.9525 13.5489C65.8284 13.4343 65.6421 13.377 65.3938 13.377C65.1503 13.377 64.8804 13.4152 64.5844 13.4916C64.508 14.3082 64.1904 15.5522 63.6317 17.2236C63.3977 17.9255 63.2664 18.3649 63.2377 18.5416C63.2091 18.7183 63.19 18.8209 63.1804 18.8496C63.1709 18.8735 63.1541 18.9069 63.1303 18.9499C63.0873 19.0263 62.9966 19.0645 62.8581 19.0645C62.1704 19.0645 61.4899 19.0764 60.8166 19.1003C60.148 19.1289 59.7159 19.1433 59.5201 19.1433C59.3291 19.1433 59.2336 19.031 59.2336 18.8066C59.2336 18.5822 59.3076 18.2479 59.4556 17.8038C59.6036 17.3597 59.7684 16.9179 59.9499 16.4786C60.4226 15.3134 60.659 14.4443 60.659 13.8712C60.659 13.4462 60.382 13.2337 59.8281 13.2337C59.5941 13.2337 59.372 13.2719 59.1619 13.3483C58.9757 13.9835 58.6533 14.9887 58.1949 16.364C57.7412 17.7393 57.4858 18.5129 57.4285 18.6848C57.352 18.9379 57.2159 19.0645 57.0202 19.0645L53.3383 19.1433C53.2858 19.1433 53.2261 19.1098 53.1593 19.043C53.0972 18.9809 53.0661 18.9069 53.0661 18.8209C53.0661 18.7302 53.1664 18.4174 53.367 17.8826C53.5723 17.3429 53.7968 16.7651 54.0403 16.1491C54.2839 15.5283 54.5059 14.8478 54.7065 14.1076C54.9118 13.3627 55.0145 12.7466 55.0145 12.2595L55.0073 11.9873C55.0073 11.7486 55.2389 11.6292 55.7021 11.6292ZM77.2126 17.4671C78.1104 17.4671 78.8601 16.7794 79.4618 15.4041C79.7388 14.7738 79.8773 14.2628 79.8773 13.8712C79.8773 13.4796 79.8104 13.2098 79.6767 13.0618C79.5478 12.9138 79.2899 12.8397 78.9031 12.8397C78.5211 12.8397 78.1056 13.0188 77.6567 13.377C77.2126 13.7304 76.8545 14.1769 76.5823 14.7165C76.3101 15.2561 76.174 15.7432 76.174 16.1777C76.174 16.6075 76.2695 16.9299 76.4605 17.1448C76.6515 17.3597 76.9022 17.4671 77.2126 17.4671ZM80.9374 11.4L84.2181 11.5504C84.3423 11.5504 84.4354 11.5886 84.4975 11.665C84.5595 11.7366 84.5906 11.8178 84.5906 11.9085C84.5906 12.2571 84.4449 12.8135 84.1536 13.5775C83.8671 14.3368 83.5782 15.0913 83.2869 15.8411C83.0004 16.586 82.8571 17.0803 82.8571 17.3238C82.8571 17.5626 82.8929 17.7154 82.9646 17.7823C83.041 17.8491 83.1842 17.8826 83.3943 17.8826C83.6045 17.8826 83.9865 17.7823 84.5404 17.5817C85.0992 17.3764 85.4764 17.2212 85.6722 17.1161C85.8728 17.011 86.0256 16.9585 86.1306 16.9585C86.3169 16.9585 86.41 17.0421 86.41 17.2092C86.41 17.5626 85.6937 18.0258 84.2611 18.5989C83.7788 18.7947 83.1962 18.957 82.5133 19.086C81.8352 19.2197 81.1451 19.2865 80.4432 19.2865C79.2732 19.2865 78.5688 18.914 78.33 18.1691C77.5851 18.914 76.5823 19.2865 75.3216 19.2865C74.4572 19.2865 73.7266 19.0788 73.1296 18.6633C72.4802 18.2097 72.1555 17.4958 72.1555 16.5216C72.1555 15.4949 72.4587 14.5493 73.0652 13.685C73.729 12.7251 74.6172 12.0637 75.7298 11.7008C76.3459 11.5002 77.0073 11.4 77.714 11.4C78.798 11.4 79.6409 11.6674 80.2426 12.2022C80.2474 12.1736 80.2498 12.1282 80.2498 12.0661L80.2426 11.7581C80.2426 11.5194 80.4742 11.4 80.9374 11.4ZM98.4792 11.8704C99.3301 11.8704 100.034 12.5745 100.034 13.4254C100.034 14.2909 99.3301 14.9951 98.4792 14.9951C97.6137 14.9951 96.9095 14.2909 96.9095 13.4254C96.9095 12.5745 97.6137 11.8704 98.4792 11.8704ZM30.1663 36.2109L29.3211 36.3828C29.216 36.3828 29.1372 36.3685 29.0847 36.3398C29.0322 36.3112 29.0059 36.2419 29.0059 36.1321C29.0059 35.9602 29.2208 35.688 29.6506 35.3155C30.0804 34.9383 30.6844 34.6016 31.4628 34.3055C32.2412 34.0047 32.9289 33.8542 33.5258 33.8542C34.1275 33.8542 34.5382 33.9784 34.7579 34.2267C34.9775 34.4703 35.0874 34.8714 35.0874 35.4301C35.0874 35.5017 35.0778 35.6235 35.0587 35.7954C36.7922 34.401 38.3848 33.7038 39.8365 33.7038C40.5194 33.7038 41.0375 33.859 41.3909 34.1694C41.7443 34.4798 41.9209 34.9192 41.9209 35.4874V35.5519C43.5016 34.3198 44.9151 33.7038 46.1615 33.7038C46.8682 33.7038 47.4246 33.871 47.8305 34.2052C48.2364 34.5347 48.4394 34.9812 48.4394 35.5447C48.4394 36.1034 48.3152 36.7457 48.0669 37.4716C47.8233 38.1975 47.5559 38.8469 47.2646 39.42C46.4814 40.9624 46.0899 41.9843 46.0899 42.4858C46.0899 42.8057 46.1854 43.0588 46.3764 43.245C46.5674 43.4265 46.768 43.5363 46.9781 43.5745C47.1882 43.608 47.3243 43.6342 47.3864 43.6533C47.4532 43.6677 47.5273 43.6915 47.6084 43.725C47.7612 43.7823 47.8377 43.8802 47.8377 44.0187C47.8377 44.3577 47.4676 44.6538 46.7274 44.9069C45.992 45.16 45.0846 45.2865 44.0054 45.2865C42.5728 45.2865 41.8565 44.7541 41.8565 43.6892C41.8565 43.2164 41.9759 42.6266 42.2146 41.9199C42.4534 41.2083 42.716 40.5493 43.0026 39.9429C43.7619 38.324 44.1415 37.2424 44.1415 36.698C44.1415 36.4974 44.0818 36.3351 43.9624 36.2109C43.8478 36.0867 43.6663 36.0247 43.418 36.0247C42.9835 36.0247 42.4319 36.1966 41.7634 36.5404C41.5771 37.2663 41.2166 38.2667 40.6817 39.5417C40.1469 40.812 39.7649 41.8268 39.5356 42.586C39.3064 43.3406 39.1775 43.99 39.1488 44.5344C39.1393 44.692 39.0939 44.8233 39.0127 44.9284C38.9363 45.0334 38.836 45.086 38.7119 45.086L35.8037 45.1289C35.2927 45.1289 34.9799 45.043 34.8653 44.8711C34.8128 44.7899 34.7865 44.6705 34.7865 44.5129C34.7865 44.3553 34.8414 44.0473 34.9513 43.5889C35.0611 43.1304 35.2736 42.4929 35.5888 41.6763C35.9087 40.855 36.212 40.141 36.4985 39.5346C37.2148 38.0017 37.5729 37.0466 37.5729 36.6693C37.5729 36.2348 37.3103 36.0175 36.785 36.0175C36.2597 36.0175 35.6294 36.2228 34.894 36.6335C34.7316 37.2495 34.4284 38.0996 33.9842 39.1836C33.5449 40.2628 33.1605 41.2465 32.831 42.1348C32.5063 43.023 32.3439 43.6892 32.3439 44.1333L32.3654 44.606C32.3654 44.7541 32.2842 44.8711 32.1218 44.957C31.9595 45.043 31.79 45.086 31.6133 45.086L28.9558 45.1289C28.4257 45.1289 28.1033 45.0382 27.9887 44.8567C27.9362 44.766 27.9099 44.6275 27.9099 44.4413C27.9099 44.2503 27.9505 43.9781 28.0317 43.6247C28.1129 43.2713 28.3708 42.5813 28.8053 41.5546C29.2447 40.5231 29.6434 39.5656 30.0016 38.6822C30.3645 37.7987 30.546 37.2137 30.546 36.9272C30.546 36.6407 30.5149 36.4497 30.4528 36.3542C30.3908 36.2586 30.2953 36.2109 30.1663 36.2109ZM51.0966 44.5201C50.1988 43.9805 49.7499 43.1615 49.7499 42.0631C49.7499 41.4901 49.8669 40.9529 50.1009 40.4514C50.3397 39.9452 50.6644 39.5083 51.0751 39.1406C51.4905 38.7729 51.9729 38.4577 52.522 38.1951C53.6204 37.665 54.8787 37.4 56.297 37.4C59.0858 37.4 60.5924 38.2834 60.8169 40.0503C61.1512 40.1601 61.495 40.2151 61.8484 40.2151C62.2065 40.2151 62.505 40.1888 62.7437 40.1363C62.9825 40.0837 63.207 40.0049 63.4171 39.8999C63.632 39.7948 63.7848 39.7423 63.8755 39.7423C64.057 39.7423 64.1477 39.8306 64.1477 40.0073C64.1477 40.184 64.0068 40.3679 63.7251 40.5589C63.195 40.9218 62.493 41.1033 61.6191 41.1033C61.2896 41.1033 61.0222 41.0866 60.8169 41.0531C60.6641 42.2565 60.0433 43.257 58.9545 44.0545C58.434 44.4365 57.7941 44.7374 57.0348 44.957C56.2803 45.1767 55.4971 45.2865 54.6853 45.2865C53.8782 45.2865 53.1858 45.2221 52.608 45.0931C52.0302 44.969 51.5264 44.7779 51.0966 44.5201ZM53.6968 42.6935C53.6968 43.5769 54.0191 44.0187 54.6638 44.0187C55.0745 44.0187 55.4565 43.7942 55.8099 43.3453C56.168 42.8964 56.445 42.3401 56.6408 41.6763C56.8414 41.0125 56.9417 40.3368 56.9417 39.6492C56.9417 38.9567 56.7005 38.6105 56.2182 38.6105C55.7979 38.6105 55.3896 38.8087 54.9933 39.2051C54.6017 39.6014 54.2865 40.1172 54.0478 40.7523C53.8138 41.3826 53.6968 42.0297 53.6968 42.6935ZM64.262 37.6292L68.0513 37.5504C68.2089 37.5504 68.2877 37.6554 68.2877 37.8656C68.2877 37.9802 68.2447 38.0948 68.1588 38.2094C67.7337 38.7586 67.3899 39.3818 67.1273 40.079C66.8694 40.7762 66.7405 41.4567 66.7405 42.1204C66.7405 42.4643 66.8121 42.7651 66.9554 43.023C67.0986 43.2809 67.2729 43.4098 67.4783 43.4098C67.846 43.4098 68.2638 43.1042 68.7318 42.4929C69.2046 41.8817 69.6176 41.1654 69.971 40.344C70.3292 39.5226 70.5608 38.7872 70.6658 38.1378C70.6945 37.9611 70.7375 37.8369 70.7948 37.7653C70.8521 37.6937 70.9691 37.6578 71.1458 37.6578L73.9465 37.579C74.1184 37.579 74.2044 37.6459 74.2044 37.7796V37.8799C74.2044 38.4625 73.968 39.1836 73.4953 40.0431C73.6385 40.067 73.8104 40.079 74.011 40.079C74.7607 40.079 75.4436 39.907 76.0596 39.5632C76.1934 39.4868 76.3056 39.4486 76.3963 39.4486C76.5873 39.4486 76.6828 39.537 76.6828 39.7136C76.6828 39.8856 76.5802 40.0503 76.3748 40.2079C75.6872 40.7332 74.7607 40.9958 73.5955 40.9958C73.3233 40.9958 73.1013 40.9815 72.9294 40.9529C72.8959 41.0102 72.841 41.0913 72.7646 41.1964C72.2584 41.9032 71.5278 42.598 70.5727 43.2809C69.6224 43.9637 68.6697 44.5081 67.7146 44.914C66.7596 45.32 65.9788 45.5229 65.3723 45.5229C64.9282 45.5229 64.4722 45.3582 64.0042 45.0287C63.0682 44.3744 62.6002 43.3716 62.6002 42.0202C62.6002 41.4423 62.7076 40.7547 62.9225 39.9572C63.1422 39.1597 63.3881 38.5198 63.6603 38.0375C63.8132 37.7701 64.0137 37.634 64.262 37.6292ZM81.7325 34.9C81.7325 35.411 81.4484 35.8575 80.8801 36.2395C80.3166 36.6168 79.7197 36.8054 79.0893 36.8054C78.4638 36.8054 77.9767 36.6789 77.6281 36.4258C77.2795 36.1679 77.1052 35.8551 77.1052 35.4874C77.1052 35.1197 77.2389 34.7854 77.5063 34.4846C77.7737 34.1837 78.1199 33.9474 78.5449 33.7754C78.9747 33.6035 79.4403 33.5176 79.9417 33.5176C80.4432 33.5176 80.8658 33.6513 81.2096 33.9187C81.5582 34.1814 81.7325 34.5085 81.7325 34.9ZM79.7197 43.7894C80.0444 43.7894 80.4838 43.713 81.0377 43.5602C81.5964 43.4026 82.0023 43.2641 82.2554 43.1448C82.5085 43.0206 82.6852 42.9585 82.7855 42.9585C82.9861 42.9585 83.0863 43.0588 83.0863 43.2594C83.0863 43.3501 83.0123 43.4528 82.8643 43.5674C82.3772 43.9303 81.5009 44.3076 80.2354 44.6992C78.97 45.0907 77.8406 45.2865 76.8473 45.2865C76.2313 45.2865 75.7155 45.1886 75.3001 44.9928C74.8846 44.797 74.6769 44.4986 74.6769 44.0975C74.6769 43.8539 74.8846 43.257 75.3001 42.3067C76.0832 40.5064 76.4748 39.1501 76.4748 38.238L76.4676 37.9658C76.4676 37.7271 76.6993 37.6077 77.1625 37.6077L80.701 37.5289C80.8252 37.5289 80.9183 37.5671 80.9804 37.6435C81.0425 37.7151 81.0735 37.7963 81.0735 37.8871C81.0735 38.2166 80.9231 38.761 80.6222 39.5202C80.3214 40.2748 80.0205 41.0173 79.7197 41.748C79.4188 42.4786 79.2684 43.0015 79.2684 43.3167C79.2684 43.6319 79.4188 43.7894 79.7197 43.7894ZM94.1459 42.9585C94.313 42.9585 94.3966 43.0373 94.3966 43.1949C94.3966 43.3477 94.282 43.491 94.0527 43.6247C93.8283 43.7536 93.5489 43.8945 93.2147 44.0473C92.8804 44.1953 92.4196 44.372 91.8322 44.5774C90.4807 45.0501 88.955 45.2865 87.255 45.2865C84.0268 45.2865 82.4127 44.2932 82.4127 42.3067C82.4127 41.3373 82.7183 40.4777 83.3296 39.728C83.9456 38.9735 84.7694 38.398 85.8009 38.0017C86.8323 37.6005 87.9569 37.4 89.1747 37.4C90.3924 37.4 91.283 37.5886 91.8465 37.9658C92.4148 38.3431 92.6989 38.8612 92.6989 39.5202C92.6989 40.1983 92.4267 40.7523 91.8823 41.1821C91.3427 41.6119 90.624 41.9318 89.7262 42.1419C88.8237 42.352 87.7898 42.5001 86.6246 42.586C86.701 43.3262 87.2311 43.7871 88.2148 43.9685C88.4679 44.0115 88.7353 44.033 89.0171 44.033C90.1345 44.033 91.7462 43.6963 93.8522 43.023C93.9811 42.98 94.079 42.9585 94.1459 42.9585ZM86.6318 41.7981C87.4627 41.5689 88.1193 41.2179 88.6016 40.7451C89.0839 40.2724 89.3251 39.7017 89.3251 39.0331C89.3251 38.8565 89.2678 38.7156 89.1532 38.6105C89.0386 38.5055 88.8643 38.4529 88.6303 38.4529C88.4011 38.4529 88.1599 38.5532 87.9068 38.7538C87.6585 38.9544 87.4484 39.217 87.2765 39.5417C86.9135 40.2151 86.6986 40.9672 86.6318 41.7981Z" fill="white"/>
<path d="M108.706 19.64C108.578 19.2536 108.587 18.56 108.706 18.02L103.182 17.48L97.123 20C98.1922 21.08 103.004 22.16 105.498 21.98C105.77 21.9604 110.131 21.62 110.666 21.08C109.953 20.72 108.884 20.18 108.706 19.64Z" fill="#EAE8F2"/>
<ellipse cx="101.758" cy="12.44" rx="8.90985" ry="9.0001" fill="#EAE8F2"/>
<ellipse cx="0.571187" cy="0.764717" rx="0.571187" ry="0.764717" transform="matrix(0.836413 0.5481 -0.540379 0.841422 98.6641 9.91992)" fill="#262626"/>
<ellipse cx="0.569783" cy="0.766577" rx="0.569783" ry="0.766577" transform="matrix(0.972292 -0.23377 0.229353 0.973343 103.182 10.1865)" fill="#262626"/>
<path d="M99.0534 13.4052L98.9851 12.9221C98.9398 12.6014 98.6653 12.363 98.3414 12.363C98.2439 12.363 98.1459 12.3826 98.0638 12.4352C97.943 12.5125 97.8481 12.6039 97.7729 12.6976C97.5108 13.0244 97.4772 13.4881 97.576 13.8952C97.9902 15.602 99.5331 16.3417 100.332 16.5031C101.066 16.5958 101.741 16.594 102.224 16.5649C102.626 16.5407 103.023 16.4405 103.366 16.2288C104.236 15.6909 104.826 14.8407 105.136 14.2265C105.274 13.953 105.321 13.6464 105.321 13.34V13.1443C105.321 13.0351 105.309 12.9263 105.285 12.8198C105.195 12.4139 104.916 12.0763 104.501 12.1003C104.303 12.1119 104.106 12.156 103.985 12.2539C103.912 12.3134 103.883 12.4089 103.857 12.5L103.581 13.4754C103.556 13.5627 103.476 13.623 103.386 13.623C103.274 13.623 103.183 13.5316 103.179 13.4196C103.164 12.9743 103.096 12.7498 103.025 12.6386C102.939 12.5061 102.745 12.5432 102.587 12.5417C101.619 12.5326 99.9141 12.4865 99.797 12.723C99.6527 13.0146 99.5863 13.3062 99.5032 13.5021C99.4699 13.5805 99.3894 13.623 99.3043 13.623C99.1781 13.623 99.0711 13.5301 99.0534 13.4052Z" fill="#262626"/>
<path d="M93.1086 13.4197C93.0892 13.2775 93.083 13.1493 93.0865 13.0345C93.1042 12.467 93.709 12.1664 93.9816 12.6646C94.5418 13.6887 95.2286 16.1078 95.6292 17.7246C95.6775 17.9198 95.7688 18.1003 95.8809 18.2672C95.8907 18.2817 95.8999 18.2957 95.9088 18.3094C96.1881 18.7396 97.077 19.0702 97.1269 18.5597C97.1433 18.3915 96.4364 15.5661 95.856 13.4442C95.6471 12.6805 95.5407 11.9419 94.9836 11.3792C94.5228 10.9136 93.722 10.6332 93.0825 10.7757C91.6425 11.0967 91.7809 11.8055 91.7809 12.2597C91.7809 12.6437 91.8459 13.4773 91.9759 14.1524C92.0455 14.5137 92.4093 14.711 92.7661 14.6209C92.8219 14.6068 92.8774 14.588 92.9226 14.5523C92.9973 14.4933 93.0524 14.4152 93.0931 14.3331C93.2314 14.0537 93.1506 13.7285 93.1086 13.4197Z" fill="#4B465F"/>
<path d="M102.71 3.60986C102.833 3.54784 102.99 3.52331 103.182 3.62002C103.573 3.81755 104.17 3.78807 104.432 3.43628L104.865 2.85219C105.222 2.37191 105.889 2.24859 106.394 2.56962L109.268 4.39796C109.85 4.76811 110.037 5.5311 109.692 6.12838L109.393 6.64733C109.209 6.96558 109.313 7.37237 109.628 7.56285L109.659 7.5817C109.841 7.69243 109.953 7.89055 109.953 8.10419C109.953 8.33471 109.823 8.54561 109.618 8.64953L109.583 8.66701C109.37 8.77429 109.117 8.7616 108.917 8.6336L102.816 4.74129C102.6 4.60346 102.469 4.36491 102.469 4.10864C102.469 3.91093 102.533 3.69894 102.71 3.60986Z" fill="#353143"/>
</svg>
