<svg width="119" height="54" viewBox="0 0 119 54" fill="none" xmlns="http://www.w3.org/2000/svg">
<path d="M19.8053 14.7451C18.6449 14.0288 18.0647 13.1024 18.0647 11.9658C18.0647 11.4597 18.1913 10.9869 18.4444 10.5476C18.6975 10.1082 19.0317 9.73574 19.4472 9.43012C19.8626 9.12449 20.3354 8.86185 20.8655 8.64218C21.9113 8.21239 23.0144 7.9975 24.1748 7.9975C24.8959 7.9975 25.3878 8.15031 25.6504 8.45594C25.8796 8.72813 25.9943 9.0839 25.9943 9.52324C25.9943 9.9578 25.8892 10.5261 25.6791 11.2281C25.4737 11.9253 25.1466 12.8994 24.6977 14.1506C24.2536 15.397 23.917 16.3783 23.6877 17.0946C23.4585 17.8062 23.1004 18.3267 22.6133 18.6562C22.1262 18.9809 21.4457 19.1433 20.5718 19.1433C19.7027 19.1433 18.8861 19.0358 18.122 18.8209C17.3627 18.6013 16.9831 18.3505 16.9831 18.0688C16.9831 17.8539 17.1431 17.7297 17.463 17.6963C17.9358 17.639 18.2772 17.534 18.4873 17.3811C18.7022 17.2283 18.9028 16.9561 19.089 16.5646C19.2753 16.173 19.514 15.5665 19.8053 14.7451ZM21.109 10.2539C21.109 10.1393 21.0732 10.0461 21.0016 9.97451C20.9347 9.90288 20.8488 9.86707 20.7437 9.86707C20.6386 9.86707 20.5264 9.90766 20.407 9.98884C20.2877 10.0652 20.1635 10.1846 20.0346 10.347C19.7146 10.7338 19.5546 11.2686 19.5546 11.9515C19.5546 12.6344 19.7385 13.2719 20.1062 13.8641C20.7747 11.8775 21.109 10.6741 21.109 10.2539ZM31.7459 19.2794C31.6265 19.2841 31.4498 19.2865 31.2159 19.2865C30.1175 19.2865 29.0813 19.1839 28.1071 18.9785C27.1377 18.7732 26.5646 18.5344 26.3879 18.2622C26.3306 18.1762 26.302 18.0688 26.302 17.9399C26.302 17.8109 26.4548 17.6056 26.7604 17.3238C27.066 17.0373 27.2762 16.8941 27.3908 16.8941C27.5054 16.8941 27.6224 16.937 27.7418 17.023C27.8659 17.1042 28.002 17.2045 28.1501 17.3238C28.2981 17.4432 28.4628 17.5626 28.6443 17.682C29.0789 17.9685 29.6018 18.1118 30.213 18.1118C30.4566 18.1118 30.6524 18.0497 30.8004 17.9255C30.9532 17.8014 31.0296 17.6462 31.0296 17.4599C31.0296 17.2689 30.9651 17.1042 30.8362 16.9657C30.712 16.8272 30.5473 16.7078 30.342 16.6075C30.1414 16.5025 29.9193 16.3998 29.6758 16.2995C29.4322 16.1945 29.1863 16.0822 28.938 15.9629C28.6944 15.8387 28.47 15.705 28.2647 15.5617C27.811 15.2418 27.5842 14.8454 27.5842 14.3726C27.5842 13.8951 27.7274 13.482 28.014 13.1334C28.3053 12.7848 28.6706 12.5055 29.1099 12.2954C29.5492 12.0852 30.0459 11.9085 30.5998 11.7653C31.574 11.5217 32.4933 11.4 33.3576 11.4C34.2267 11.4 35.0338 11.4453 35.7787 11.5361C36.5285 11.622 37.0442 11.751 37.326 11.9229C37.4024 11.9658 37.4406 12.0805 37.4406 12.2667C37.4406 12.4482 37.3761 12.7108 37.2472 13.0546C37.1182 13.3937 36.9535 13.7089 36.7529 14.0002C36.5571 14.2867 36.3804 14.43 36.2228 14.43C36.1608 14.43 36.1082 14.4037 36.0653 14.3512C35.6116 13.8068 35.1699 13.3889 34.7401 13.0976C34.3151 12.8015 33.8519 12.6535 33.3505 12.6535C32.9684 12.6535 32.6938 12.7323 32.5267 12.8899C32.3643 13.0427 32.2832 13.2027 32.2832 13.3698C32.2832 13.537 32.3739 13.6969 32.5553 13.8497C32.7416 14.0026 32.9708 14.141 33.243 14.2652C33.52 14.3894 33.8184 14.535 34.1384 14.7021C34.4631 14.8645 34.7616 15.0317 35.0338 15.2036C35.3108 15.3707 35.54 15.5832 35.7214 15.8411C35.9077 16.0942 36.0008 16.4141 36.0008 16.8009C36.0008 17.1877 35.8599 17.565 35.5782 17.9327C36.7625 17.6939 37.6889 17.4002 38.3574 17.0516C38.4721 16.9896 38.57 16.9585 38.6511 16.9585C38.8326 16.9585 38.9233 17.0493 38.9233 17.2307C38.9233 17.3835 38.8302 17.5244 38.644 17.6533C38.4577 17.7775 38.1497 17.9303 37.7199 18.1118C37.2901 18.2885 36.7792 18.4675 36.187 18.649C34.8069 19.0692 33.3266 19.2794 31.7459 19.2794ZM49.9757 16.9585C50.1428 16.9585 50.2264 17.0373 50.2264 17.1949C50.2264 17.3477 50.1118 17.491 49.8826 17.6247C49.6581 17.7536 49.3788 17.8945 49.0445 18.0473C48.7102 18.1953 48.2494 18.372 47.662 18.5774C46.3106 19.0501 44.7848 19.2865 43.0848 19.2865C39.8566 19.2865 38.2426 18.2932 38.2426 16.3067C38.2426 15.3373 38.5482 14.4777 39.1594 13.728C39.7755 12.9735 40.5992 12.398 41.6307 12.0017C42.6622 11.6005 43.7868 11.4 45.0045 11.4C46.2222 11.4 47.1128 11.5886 47.6763 11.9658C48.2446 12.3431 48.5287 12.8612 48.5287 13.5202C48.5287 14.1983 48.2565 14.7523 47.7122 15.1821C47.1725 15.6119 46.4538 15.9318 45.5561 16.1419C44.6535 16.352 43.6196 16.5001 42.4544 16.586C42.5309 17.3262 43.0609 17.7871 44.0447 17.9685C44.2977 18.0115 44.5652 18.033 44.8469 18.033C45.9644 18.033 47.5761 17.6963 49.682 17.023C49.8109 16.98 49.9088 16.9585 49.9757 16.9585ZM42.4616 15.7981C43.2925 15.5689 43.9491 15.2179 44.4315 14.7451C44.9138 14.2724 45.1549 13.7017 45.1549 13.0331C45.1549 12.8565 45.0976 12.7156 44.983 12.6105C44.8684 12.5055 44.6941 12.4529 44.4601 12.4529C44.2309 12.4529 43.9897 12.5532 43.7366 12.7538C43.4883 12.9544 43.2782 13.217 43.1063 13.5417C42.7434 14.2151 42.5285 14.9672 42.4616 15.7981ZM58.1915 11.6077L60.9922 11.5289C61.1164 11.5289 61.2095 11.5671 61.2716 11.6435C61.3337 11.7151 61.3647 11.7963 61.3647 11.8871C61.3647 12.2309 61.2501 12.5652 61.0209 12.8899C60.7964 13.2098 60.5075 13.4916 60.1541 13.7351C59.8008 13.9787 59.3877 14.2055 58.9149 14.4156C58.0649 14.7929 57.1433 15.0842 56.15 15.2895C56.8281 15.1892 57.4202 15.1391 57.9264 15.1391C59.1394 15.1391 59.7459 15.5187 59.7459 16.278C59.7459 16.3974 59.7148 16.5765 59.6527 16.8153C59.5907 17.0493 59.5596 17.2379 59.5596 17.3811C59.5596 17.6868 59.7124 17.8396 60.018 17.8396C60.2425 17.8396 60.5648 17.7584 60.9851 17.596C61.4101 17.4289 61.7372 17.2809 61.9664 17.1519C62.1956 17.023 62.3484 16.9585 62.4248 16.9585C62.506 16.9585 62.5777 16.9848 62.6397 17.0373C62.7018 17.0851 62.7329 17.1734 62.7329 17.3023C62.7329 17.4265 62.6302 17.5626 62.4248 17.7106C61.7276 18.2025 60.8919 18.5893 59.9178 18.8711C58.9436 19.148 58.0697 19.2865 57.2961 19.2865C56.5272 19.2865 56.0067 19.2077 55.7345 19.0501C55.4623 18.8973 55.3262 18.6418 55.3262 18.2837C55.3262 18.1022 55.3764 17.8253 55.4767 17.4528C55.5769 17.0755 55.6271 16.7771 55.6271 16.5574C55.6271 15.9223 55.2474 15.5713 54.4881 15.5044C53.9151 17.0707 53.6095 18.1691 53.5713 18.7994C53.5617 18.9761 53.4352 19.0645 53.1916 19.0645L49.5026 19.1433C49.4501 19.1433 49.3904 19.1098 49.3236 19.043C49.2615 18.9809 49.2304 18.9021 49.2304 18.8066C49.2304 18.7111 49.3833 18.2312 49.6889 17.3668C49.9993 16.5025 50.3383 15.5641 50.706 14.5517C51.0785 13.5393 51.4176 12.4864 51.7232 11.3928C52.0336 10.2992 52.1888 9.48503 52.1888 8.95019L52.1816 8.74962C52.1816 8.51085 52.4132 8.39147 52.8765 8.39147L56.1571 8.36998C56.267 8.36998 56.3553 8.4058 56.4222 8.47743C56.4938 8.54428 56.5296 8.6183 56.5296 8.69948C56.5296 9.11017 56.3243 9.98167 55.9136 11.314C55.5029 12.6463 55.1113 13.8163 54.7389 14.8239C55.5984 14.5995 56.2741 14.2461 56.766 13.7638C57.2579 13.2815 57.5038 12.7729 57.5038 12.238L57.4966 11.9658C57.4966 11.7271 57.7282 11.6077 58.1915 11.6077ZM67.274 17.4671C68.1717 17.4671 68.9215 16.7794 69.5232 15.4041C69.8001 14.7738 69.9386 14.2628 69.9386 13.8712C69.9386 13.4796 69.8718 13.2098 69.7381 13.0618C69.6091 12.9138 69.3513 12.8397 68.9645 12.8397C68.5824 12.8397 68.167 13.0188 67.7181 13.377C67.274 13.7304 66.9158 14.1769 66.6436 14.7165C66.3714 15.2561 66.2353 15.7432 66.2353 16.1777C66.2353 16.6075 66.3308 16.9299 66.5218 17.1448C66.7129 17.3597 66.9636 17.4671 67.274 17.4671ZM70.9988 11.4L74.2795 11.5504C74.4036 11.5504 74.4967 11.5886 74.5588 11.665C74.6209 11.7366 74.6519 11.8178 74.6519 11.9085C74.6519 12.2571 74.5063 12.8135 74.215 13.5775C73.9285 14.3368 73.6396 15.0913 73.3483 15.8411C73.0617 16.586 72.9185 17.0803 72.9185 17.3238C72.9185 17.5626 72.9543 17.7154 73.0259 17.7823C73.1023 17.8491 73.2456 17.8826 73.4557 17.8826C73.6658 17.8826 74.0479 17.7823 74.6018 17.5817C75.1605 17.3764 75.5378 17.2212 75.7336 17.1161C75.9341 17.011 76.087 16.9585 76.192 16.9585C76.3783 16.9585 76.4714 17.0421 76.4714 17.2092C76.4714 17.5626 75.7551 18.0258 74.3224 18.5989C73.8401 18.7947 73.2575 18.957 72.5747 19.086C71.8965 19.2197 71.2065 19.2865 70.5045 19.2865C69.3345 19.2865 68.6302 18.914 68.3914 18.1691C67.6464 18.914 66.6436 19.2865 65.3829 19.2865C64.5186 19.2865 63.7879 19.0788 63.191 18.6633C62.5416 18.2097 62.2168 17.4958 62.2168 16.5216C62.2168 15.4949 62.5201 14.5493 63.1265 13.685C63.7903 12.7251 64.6785 12.0637 65.7912 11.7008C66.4072 11.5002 67.0686 11.4 67.7754 11.4C68.8594 11.4 69.7023 11.6674 70.304 12.2022C70.3087 12.1736 70.3111 12.1282 70.3111 12.0661L70.304 11.7581C70.304 11.5194 70.5356 11.4 70.9988 11.4ZM82.7746 8.90005C82.7746 9.41102 82.4905 9.85751 81.9222 10.2395C81.3587 10.6168 80.7618 10.8054 80.1314 10.8054C79.5058 10.8054 79.0188 10.6789 78.6702 10.4258C78.3215 10.1679 78.1472 9.85513 78.1472 9.48742C78.1472 9.11972 78.281 8.78544 78.5484 8.48459C78.8158 8.18374 79.162 7.94736 79.587 7.77544C80.0168 7.60353 80.4824 7.51757 80.9838 7.51757C81.4852 7.51757 81.9079 7.65128 82.2517 7.91871C82.6003 8.18135 82.7746 8.50847 82.7746 8.90005ZM80.7618 17.7894C81.0865 17.7894 81.5258 17.713 82.0798 17.5602C82.6385 17.4026 83.0444 17.2641 83.2975 17.1448C83.5506 17.0206 83.7273 16.9585 83.8276 16.9585C84.0281 16.9585 84.1284 17.0588 84.1284 17.2594C84.1284 17.3501 84.0544 17.4528 83.9064 17.5674C83.4193 17.9303 82.543 18.3076 81.2775 18.6992C80.012 19.0907 78.8827 19.2865 77.8894 19.2865C77.2733 19.2865 76.7576 19.1886 76.3421 18.9928C75.9267 18.797 75.719 18.4986 75.719 18.0975C75.719 17.8539 75.9267 17.257 76.3421 16.3067C77.1253 14.5064 77.5169 13.1501 77.5169 12.238L77.5097 11.9658C77.5097 11.7271 77.7413 11.6077 78.2045 11.6077L81.7431 11.5289C81.8673 11.5289 81.9604 11.5671 82.0225 11.6435C82.0846 11.7151 82.1156 11.7963 82.1156 11.8871C82.1156 12.2166 81.9652 12.761 81.6643 13.5202C81.3635 14.2748 81.0626 15.0173 80.7618 15.748C80.4609 16.4786 80.3105 17.0015 80.3105 17.3167C80.3105 17.6319 80.4609 17.7894 80.7618 17.7894ZM96.1976 11.8704C97.0485 11.8704 97.7527 12.5745 97.7527 13.4254C97.7527 14.2909 97.0485 14.9951 96.1976 14.9951C95.3321 14.9951 94.628 14.2909 94.628 13.4254C94.628 12.5745 95.3321 11.8704 96.1976 11.8704ZM26.2126 38.9615C26.9002 38.9615 27.2441 39.1191 27.2441 39.4343C27.2441 39.6348 27.1295 39.9978 26.9002 40.5231C26.671 41.0436 26.48 41.4161 26.3272 41.6405C26.1744 41.865 26.024 41.9772 25.8759 41.9772C25.7279 41.9772 25.5512 41.9175 25.3459 41.7981C25.1405 41.6739 24.9304 41.5402 24.7155 41.397C24.5054 41.2489 24.2356 41.1081 23.9061 40.9743C23.5766 40.8406 23.2518 40.7642 22.9319 40.7451C22.4544 42.4547 22.1869 43.4002 22.1296 43.5817C22.0771 43.7632 21.9959 43.947 21.8861 44.1333C21.7762 44.3195 21.6449 44.4723 21.4921 44.5917C21.3393 44.7111 21.1817 44.809 21.0193 44.8854C20.8618 44.9618 20.6684 45.0191 20.4391 45.0573C19.3551 45.2244 18.3045 45.1839 17.2874 44.9355C16.7191 44.797 16.2654 44.6275 15.9264 44.427C15.5873 44.2216 15.4178 44.0234 15.4178 43.8324C15.4321 43.7226 15.4847 43.6366 15.5754 43.5745C15.6614 43.5077 15.764 43.4743 15.8834 43.4743C16.3228 43.4743 16.6451 43.405 16.8504 43.2665C17.0605 43.1233 17.2587 42.863 17.445 42.4858C17.6312 42.1037 17.8055 41.6787 17.9679 41.2107C18.135 40.7427 18.2878 40.313 18.4263 39.9214C18.5648 39.5298 18.7248 39.131 18.9062 38.7251C19.3026 37.8512 19.8088 37.2663 20.4248 36.9702C21.0408 36.6741 21.9744 36.5261 23.2256 36.5261C23.9705 36.5261 24.343 36.6502 24.343 36.8985C24.343 36.9941 24.2977 37.1302 24.2069 37.3068C23.8488 37.9802 23.5193 38.8039 23.2184 39.7781C23.6243 39.5632 24.0971 39.3746 24.6367 39.2122C25.1811 39.0451 25.7064 38.9615 26.2126 38.9615ZM28.3973 37.4716C27.7049 36.8651 26.8596 36.3756 25.8616 36.0032C24.8683 35.6259 23.8655 35.4373 22.8531 35.4373C22.2466 35.4373 21.516 35.5185 20.6612 35.6808C19.8064 35.8384 19.1737 36.0103 18.763 36.1966C18.3523 36.378 18.0825 36.4688 17.9535 36.4688C17.796 36.4688 17.7172 36.3947 17.7172 36.2467C17.7172 36.0939 17.8485 35.91 18.1111 35.6952C18.3738 35.4803 18.7558 35.2582 19.2572 35.029C19.7634 34.7998 20.3341 34.5849 20.9692 34.3843C22.4209 33.9354 24.0111 33.711 25.7398 33.711C26.8668 33.711 27.81 33.7587 28.5692 33.8542C29.978 34.0214 30.6823 34.2888 30.6823 34.6565C30.668 34.8523 30.5725 35.177 30.3958 35.6307C30.2191 36.0843 30.009 36.5189 29.7655 36.9344C29.5219 37.345 29.3214 37.5743 29.1638 37.622C29.0635 37.6507 28.9489 37.665 28.8199 37.665C28.6958 37.665 28.5549 37.6005 28.3973 37.4716ZM35.0802 43.4671C35.978 43.4671 36.7277 42.7794 37.3294 41.4041C37.6064 40.7738 37.7449 40.2628 37.7449 39.8712C37.7449 39.4796 37.678 39.2098 37.5443 39.0618C37.4154 38.9138 37.1575 38.8397 36.7707 38.8397C36.3887 38.8397 35.9732 39.0188 35.5243 39.377C35.0802 39.7304 34.722 40.1769 34.4498 40.7165C34.1776 41.2561 34.0415 41.7432 34.0415 42.1777C34.0415 42.6075 34.1371 42.9299 34.3281 43.1448C34.5191 43.3597 34.7698 43.4671 35.0802 43.4671ZM38.805 37.4L42.0857 37.5504C42.2099 37.5504 42.303 37.5886 42.3651 37.665C42.4271 37.7366 42.4582 37.8178 42.4582 37.9085C42.4582 38.2571 42.3125 38.8135 42.0212 39.5775C41.7347 40.3368 41.4458 41.0913 41.1545 41.8411C40.868 42.586 40.7247 43.0803 40.7247 43.3238C40.7247 43.5626 40.7605 43.7154 40.8322 43.7823C40.9086 43.8491 41.0518 43.8826 41.2619 43.8826C41.4721 43.8826 41.8541 43.7823 42.408 43.5817C42.9668 43.3764 43.344 43.2212 43.5398 43.1161C43.7404 43.011 43.8932 42.9585 43.9982 42.9585C44.1845 42.9585 44.2776 43.0421 44.2776 43.2092C44.2776 43.5626 43.5613 44.0258 42.1287 44.5989C41.6464 44.7947 41.0638 44.957 40.3809 45.086C39.7028 45.2197 39.0127 45.2865 38.3107 45.2865C37.1408 45.2865 36.4364 44.914 36.1976 44.1691C35.4527 44.914 34.4498 45.2865 33.1891 45.2865C32.3248 45.2865 31.5942 45.0788 30.9972 44.6633C30.3478 44.2097 30.0231 43.4958 30.0231 42.5216C30.0231 41.4949 30.3263 40.5493 30.9328 39.685C31.5965 38.7251 32.4848 38.0637 33.5974 37.7008C34.2135 37.5002 34.8749 37.4 35.5816 37.4C36.6656 37.4 37.5085 37.6674 38.1102 38.2022C38.115 38.1736 38.1173 38.1282 38.1173 38.0661L38.1102 37.7581C38.1102 37.5194 38.3418 37.4 38.805 37.4ZM57.7797 42.9585C57.9564 42.9585 58.0448 43.0421 58.0448 43.2092C58.0448 43.3716 57.9564 43.5149 57.7797 43.639C57.6078 43.7632 57.3523 43.9064 57.0133 44.0688C56.6742 44.2264 56.2516 44.4007 55.7454 44.5917C55.244 44.7827 54.6614 44.9451 53.9976 45.0788C53.3386 45.2173 52.7083 45.2865 52.1066 45.2865C50.6883 45.2865 49.9791 44.9618 49.9791 44.3123C49.9791 43.8921 50.2179 43.1424 50.6954 42.0631C51.1778 40.9791 51.4189 40.2485 51.4189 39.8712C51.4189 39.4462 51.087 39.2337 50.4232 39.2337C50.1224 39.2337 49.7809 39.2719 49.3989 39.3483C49.2175 39.9882 48.8927 41.0054 48.4247 42.3998C47.9615 43.7942 47.6989 44.5869 47.6368 44.7779C47.5795 44.969 47.4529 45.0645 47.2572 45.0645L43.5682 45.1433C43.5156 45.1433 43.4559 45.1098 43.3891 45.043C43.327 44.9809 43.296 44.9069 43.296 44.8209C43.296 44.7302 43.3963 44.4174 43.5968 43.8826C43.8022 43.3429 44.0266 42.7651 44.2701 42.1491C44.5185 41.5283 44.7429 40.8478 44.9435 40.1076C45.1488 39.3627 45.2515 38.7466 45.2515 38.2595L45.2443 37.9873C45.2443 37.7486 45.4759 37.6292 45.9391 37.6292L49.3345 37.5504C49.4586 37.5504 49.5517 37.5886 49.6138 37.665C49.6759 37.7366 49.7069 37.8274 49.7069 37.9372C49.7069 38.0423 49.6807 38.2142 49.6281 38.4529C51.3091 37.751 52.6892 37.4 53.7684 37.4C54.2268 37.4 54.6447 37.5265 55.0219 37.7796C55.4422 38.0614 55.6523 38.4888 55.6523 39.0618C55.6523 39.6492 55.4302 40.418 54.9861 41.3683C54.542 42.3186 54.32 42.906 54.32 43.1304C54.32 43.5745 54.4966 43.7966 54.85 43.7966C55.0745 43.7966 55.4565 43.713 55.9961 43.5459C56.5405 43.374 56.9416 43.2331 57.1995 43.1233C57.4622 43.0134 57.6556 42.9585 57.7797 42.9585ZM64.0686 37.708L65.9525 37.4644C66.3059 37.4644 66.4826 37.6029 66.4826 37.8799C66.4826 38.1569 66.3155 38.3312 65.9812 38.4028C65.6469 38.4697 64.8924 38.5604 63.7176 38.675C63.5553 39.1 63.3117 39.6898 62.987 40.4443C62.3232 41.9915 61.9913 42.9203 61.9913 43.2307C61.9913 43.5698 62.2015 43.7393 62.6217 43.7393C63.9779 43.7393 65.1956 43.5125 66.2749 43.0588C66.4325 42.9919 66.5566 42.9585 66.6473 42.9585C66.824 42.9585 66.9124 43.0373 66.9124 43.1949C66.9124 43.3525 66.7978 43.5077 66.5685 43.6605C65.8666 44.1237 64.8088 44.5105 63.3953 44.8209C61.9818 45.1313 60.6781 45.2865 59.4843 45.2865C58.8062 45.2865 58.288 45.1815 57.9299 44.9713C57.5717 44.7565 57.3926 44.4628 57.3926 44.0903C57.3926 43.713 57.641 43.0087 58.1376 41.9772C58.6963 40.8215 59.0975 39.8068 59.341 38.9329C59.0449 38.9472 58.8396 38.9544 58.725 38.9544C58.4432 38.9544 58.3023 38.8397 58.3023 38.6105C58.3023 38.4434 58.3477 38.3312 58.4384 38.2739C58.5292 38.2166 58.6223 38.176 58.7178 38.1521C58.8181 38.1282 58.9017 38.1139 58.9685 38.1091C59.0401 38.0996 59.138 38.09 59.2622 38.0805C59.3864 38.0709 59.4771 38.0637 59.5344 38.059C59.5965 37.696 59.6275 37.3546 59.6275 37.0346L59.6204 36.7625C59.6204 36.5476 59.8926 36.4019 60.4369 36.3255C60.6184 36.3016 61.1891 36.1822 62.1489 35.9673C63.1088 35.7525 63.6962 35.645 63.911 35.645C64.2549 35.645 64.4268 35.7644 64.4268 36.0032C64.4268 36.4138 64.3074 36.9821 64.0686 37.708ZM71.4607 43.4671C72.3584 43.4671 73.1082 42.7794 73.7099 41.4041C73.9868 40.7738 74.1253 40.2628 74.1253 39.8712C74.1253 39.4796 74.0585 39.2098 73.9248 39.0618C73.7958 38.9138 73.5379 38.8397 73.1511 38.8397C72.7691 38.8397 72.3536 39.0188 71.9048 39.377C71.4607 39.7304 71.1025 40.1769 70.8303 40.7165C70.5581 41.2561 70.422 41.7432 70.422 42.1777C70.422 42.6075 70.5175 42.9299 70.7085 43.1448C70.8995 43.3597 71.1503 43.4671 71.4607 43.4671ZM75.1855 37.4L78.4661 37.5504C78.5903 37.5504 78.6834 37.5886 78.7455 37.665C78.8076 37.7366 78.8386 37.8178 78.8386 37.9085C78.8386 38.2571 78.693 38.8135 78.4017 39.5775C78.1152 40.3368 77.8262 41.0913 77.5349 41.8411C77.2484 42.586 77.1052 43.0803 77.1052 43.3238C77.1052 43.5626 77.141 43.7154 77.2126 43.7823C77.289 43.8491 77.4323 43.8826 77.6424 43.8826C77.8525 43.8826 78.2345 43.7823 78.7885 43.5817C79.3472 43.3764 79.7245 43.2212 79.9203 43.1161C80.1208 43.011 80.2736 42.9585 80.3787 42.9585C80.5649 42.9585 80.6581 43.0421 80.6581 43.2092C80.6581 43.5626 79.9417 44.0258 78.5091 44.5989C78.0268 44.7947 77.4442 44.957 76.7613 45.086C76.0832 45.2197 75.3932 45.2865 74.6912 45.2865C73.5212 45.2865 72.8169 44.914 72.5781 44.1691C71.8331 44.914 70.8303 45.2865 69.5696 45.2865C68.7053 45.2865 67.9746 45.0788 67.3777 44.6633C66.7282 44.2097 66.4035 43.4958 66.4035 42.5216C66.4035 41.4949 66.7068 40.5493 67.3132 39.685C67.977 38.7251 68.8652 38.0637 69.9779 37.7008C70.5939 37.5002 71.2553 37.4 71.9621 37.4C73.0461 37.4 73.8889 37.6674 74.4906 38.2022C74.4954 38.1736 74.4978 38.1282 74.4978 38.0661L74.4906 37.7581C74.4906 37.5194 74.7222 37.4 75.1855 37.4ZM84.7694 45.2794C84.65 45.2841 84.4733 45.2865 84.2393 45.2865C83.141 45.2865 82.1047 45.1839 81.1305 44.9785C80.1611 44.7732 79.5881 44.5344 79.4114 44.2622C79.3541 44.1762 79.3254 44.0688 79.3254 43.9399C79.3254 43.8109 79.4782 43.6056 79.7839 43.3238C80.0895 43.0373 80.2996 42.8941 80.4142 42.8941C80.5288 42.8941 80.6458 42.937 80.7652 43.023C80.8894 43.1042 81.0255 43.2045 81.1735 43.3238C81.3215 43.4432 81.4863 43.5626 81.6678 43.682C82.1023 43.9685 82.6252 44.1118 83.2365 44.1118C83.48 44.1118 83.6758 44.0497 83.8239 43.9255C83.9767 43.8014 84.0531 43.6462 84.0531 43.4599C84.0531 43.2689 83.9886 43.1042 83.8597 42.9657C83.7355 42.8272 83.5708 42.7078 83.3654 42.6075C83.1648 42.5025 82.9428 42.3998 82.6992 42.2995C82.4557 42.1945 82.2098 42.0822 81.9614 41.9629C81.7179 41.8387 81.4935 41.705 81.2881 41.5617C80.8345 41.2418 80.6076 40.8454 80.6076 40.3726C80.6076 39.8951 80.7509 39.482 81.0374 39.1334C81.3287 38.7848 81.694 38.5055 82.1334 38.2954C82.5727 38.0852 83.0693 37.9085 83.6233 37.7653C84.5975 37.5217 85.5167 37.4 86.3811 37.4C87.2502 37.4 88.0572 37.4453 88.8022 37.5361C89.5519 37.622 90.0677 37.751 90.3494 37.9229C90.4258 37.9658 90.464 38.0805 90.464 38.2667C90.464 38.4482 90.3996 38.7108 90.2706 39.0546C90.1417 39.3937 89.9769 39.7089 89.7764 40.0002C89.5806 40.2867 89.4039 40.43 89.2463 40.43C89.1842 40.43 89.1317 40.4037 89.0887 40.3512C88.6351 39.8068 88.1933 39.3889 87.7635 39.0976C87.3385 38.8015 86.8753 38.6535 86.3739 38.6535C85.9919 38.6535 85.7173 38.7323 85.5502 38.8899C85.3878 39.0427 85.3066 39.2027 85.3066 39.3698C85.3066 39.537 85.3973 39.6969 85.5788 39.8497C85.765 40.0026 85.9943 40.141 86.2665 40.2652C86.5434 40.3894 86.8419 40.535 87.1618 40.7021C87.4866 40.8645 87.785 41.0317 88.0572 41.2036C88.3342 41.3707 88.5634 41.5832 88.7449 41.8411C88.9311 42.0942 89.0243 42.4141 89.0243 42.8009C89.0243 43.1877 88.8834 43.565 88.6016 43.9327C89.7859 43.6939 90.7124 43.4002 91.3809 43.0516C91.4955 42.9896 91.5934 42.9585 91.6746 42.9585C91.8561 42.9585 91.9468 43.0493 91.9468 43.2307C91.9468 43.3835 91.8537 43.5244 91.6674 43.6533C91.4812 43.7775 91.1732 43.9303 90.7434 44.1118C90.3136 44.2885 89.8026 44.4675 89.2105 44.649C87.8304 45.0692 86.35 45.2794 84.7694 45.2794ZM105.42 42.9585C105.597 42.9585 105.685 43.0397 105.685 43.2021C105.685 43.522 105.074 43.9375 103.852 44.4484C103.087 44.7684 102.247 45.0263 101.33 45.2221C101.216 45.542 101.113 45.8238 101.022 46.0673C100.931 46.3156 100.764 46.5926 100.521 46.8982C100.282 47.2038 99.9978 47.4593 99.6683 47.6647C99.3436 47.87 98.9926 48.0419 98.6153 48.1804C98.2429 48.3237 97.8226 48.4335 97.3546 48.5099C96.5094 48.6532 95.5185 48.7248 94.382 48.7248C93.2502 48.7248 92.3787 48.5983 91.7674 48.3452C91.1562 48.0921 90.8506 47.7267 90.8506 47.2492C90.8506 46.9722 90.9699 46.7215 91.2087 46.4971C91.4475 46.2726 91.7579 46.084 92.1399 45.9312C92.5267 45.7784 93.0186 45.6399 93.6155 45.5157C94.6327 45.3104 95.9101 45.1409 97.4478 45.0072C97.5767 44.5822 97.6698 44.2264 97.7271 43.9399C96.3375 44.4556 95.0624 44.7135 93.902 44.7135C92.35 44.7135 91.574 44.2001 91.574 43.1734C91.574 42.4523 91.7889 41.5617 92.2187 40.5016C92.6533 39.4367 92.8705 38.6893 92.8705 38.2595L92.8634 37.9873C92.8634 37.7486 93.095 37.6292 93.5582 37.6292L95.2272 37.6578L96.7386 37.5504C96.8628 37.5504 96.9559 37.5886 97.018 37.665C97.0801 37.7366 97.1111 37.8656 97.1111 38.0518C97.1111 38.2333 97.0395 38.5532 96.8962 39.0117C96.7577 39.4653 96.6049 39.8903 96.4378 40.2867C95.9841 41.3516 95.7573 42.0679 95.7573 42.4356C95.7573 42.6457 95.8337 42.8057 95.9865 42.9155C96.1393 43.0254 96.3399 43.0803 96.5882 43.0803C97.1135 43.0803 97.603 42.9346 98.0566 42.6433C98.5676 41.2633 99.038 39.728 99.4677 38.0375C99.5107 37.8608 99.6373 37.7724 99.8474 37.7724C100.54 37.7724 101.282 37.7366 102.075 37.665C102.868 37.5886 103.321 37.5504 103.436 37.5504C103.555 37.5504 103.649 37.579 103.715 37.6363C103.782 37.6937 103.816 37.7486 103.816 37.8011C103.816 38.0064 103.102 40.1578 101.674 44.255C102.381 44.0879 103.037 43.8897 103.644 43.6605C104.255 43.4265 104.671 43.2522 104.89 43.1376C105.115 43.0182 105.291 42.9585 105.42 42.9585ZM96.8317 46.8123C96.9702 46.4637 97.0896 46.1342 97.1899 45.8238C95.041 46.096 93.9665 46.5926 93.9665 47.3137C93.9665 47.4999 94.062 47.6742 94.253 47.8366C94.4488 48.0037 94.6446 48.0873 94.8404 48.0873C95.275 48.0873 95.6809 47.9751 96.0581 47.7506C96.4354 47.531 96.6932 47.2182 96.8317 46.8123Z" fill="white"/>
<path d="M102.706 19.64C102.578 19.2536 102.587 18.56 102.706 18.02L97.1817 17.48L91.123 20C92.1922 21.08 97.0035 22.16 99.4983 21.98C99.7703 21.9604 104.131 21.62 104.666 21.08C103.953 20.72 102.884 20.18 102.706 19.64Z" fill="#EAE8F2"/>
<ellipse cx="95.7575" cy="12.44" rx="8.90985" ry="9.0001" fill="#EAE8F2"/>
<ellipse cx="0.571187" cy="0.764717" rx="0.571187" ry="0.764717" transform="matrix(0.836413 0.5481 -0.540379 0.841422 92.6641 9.91992)" fill="#262626"/>
<ellipse cx="0.569783" cy="0.766577" rx="0.569783" ry="0.766577" transform="matrix(0.972292 -0.23377 0.229353 0.973343 97.1816 10.1865)" fill="#262626"/>
<path d="M93.0534 13.4052L92.9851 12.9221C92.9398 12.6014 92.6653 12.363 92.3414 12.363C92.2439 12.363 92.1459 12.3826 92.0638 12.4352C91.943 12.5125 91.8481 12.6039 91.7729 12.6976C91.5108 13.0244 91.4772 13.4881 91.576 13.8952C91.9902 15.602 93.5331 16.3417 94.3316 16.5031C95.0661 16.5958 95.7414 16.594 96.2244 16.5649C96.6263 16.5407 97.0233 16.4405 97.3658 16.2288C98.236 15.6909 98.826 14.8407 99.1357 14.2265C99.2736 13.953 99.3211 13.6464 99.3211 13.34V13.1443C99.3211 13.0351 99.3091 12.9263 99.2853 12.8198C99.1946 12.4139 98.9165 12.0763 98.5013 12.1003C98.3026 12.1119 98.1062 12.156 97.9852 12.2539C97.9115 12.3134 97.8826 12.4089 97.8568 12.5L97.5809 13.4754C97.5562 13.5627 97.4765 13.623 97.3857 13.623C97.2736 13.623 97.1833 13.5316 97.1794 13.4196C97.1637 12.9743 97.0964 12.7498 97.0246 12.6386C96.9391 12.5061 96.7448 12.5432 96.5871 12.5417C95.6193 12.5326 93.9141 12.4865 93.797 12.723C93.6527 13.0146 93.5863 13.3062 93.5032 13.5021C93.4699 13.5805 93.3894 13.623 93.3043 13.623C93.1781 13.623 93.0711 13.5301 93.0534 13.4052Z" fill="#262626"/>
<path d="M87.1086 13.4197C87.0892 13.2775 87.083 13.1493 87.0865 13.0345C87.1042 12.467 87.709 12.1664 87.9816 12.6646C88.5418 13.6887 89.2286 16.1078 89.6292 17.7246C89.6775 17.9198 89.7688 18.1003 89.8809 18.2672C89.8907 18.2817 89.8999 18.2957 89.9088 18.3094C90.1881 18.7396 91.077 19.0702 91.1269 18.5597C91.1433 18.3915 90.4364 15.5661 89.856 13.4442C89.6471 12.6805 89.5407 11.9419 88.9836 11.3792C88.5228 10.9136 87.722 10.6332 87.0825 10.7757C85.6425 11.0967 85.7809 11.8055 85.7809 12.2597C85.7809 12.6437 85.8459 13.4773 85.9759 14.1524C86.0455 14.5137 86.4093 14.711 86.7661 14.6209C86.8219 14.6068 86.8774 14.588 86.9226 14.5523C86.9973 14.4933 87.0524 14.4152 87.0931 14.3331C87.2314 14.0537 87.1506 13.7285 87.1086 13.4197Z" fill="#4B465F"/>
<path d="M96.71 3.60986C96.8329 3.54784 96.9901 3.52331 97.1815 3.62002C97.5726 3.81755 98.1705 3.78807 98.4317 3.43628L98.8654 2.85219C99.222 2.37191 99.889 2.24859 100.394 2.56962L103.268 4.39796C103.85 4.76811 104.037 5.5311 103.692 6.12838L103.393 6.64733C103.209 6.96558 103.313 7.37237 103.628 7.56285L103.659 7.5817C103.841 7.69243 103.953 7.89055 103.953 8.10419C103.953 8.33471 103.823 8.54561 103.618 8.64953L103.583 8.66701C103.37 8.77429 103.117 8.7616 102.917 8.6336L96.8156 4.74129C96.5995 4.60346 96.4688 4.36491 96.4688 4.10864C96.4688 3.91093 96.5335 3.69894 96.71 3.60986Z" fill="#353143"/>
</svg>
