<svg width="119" height="55" viewBox="0 0 119 55" fill="none" xmlns="http://www.w3.org/2000/svg">
<path d="M30.1663 24.4331L29.3211 24.605C29.216 24.605 29.1372 24.5906 29.0847 24.562C29.0322 24.5333 29.0059 24.4641 29.0059 24.3543C29.0059 24.1824 29.2208 23.9102 29.6506 23.5377C30.0804 23.1604 30.6844 22.8238 31.4628 22.5277C32.2412 22.2268 32.9289 22.0764 33.5258 22.0764C34.1275 22.0764 34.5382 22.2006 34.7579 22.4489C34.9775 22.6924 35.0874 23.0936 35.0874 23.6523C35.0874 23.7239 35.0778 23.8457 35.0587 24.0176C36.7922 22.6232 38.3848 21.926 39.8365 21.926C40.5194 21.926 41.0375 22.0812 41.3909 22.3916C41.7443 22.702 41.9209 23.1413 41.9209 23.7096V23.7741C43.5016 22.542 44.9151 21.926 46.1615 21.926C46.8682 21.926 47.4246 22.0931 47.8305 22.4274C48.2364 22.7569 48.4394 23.2034 48.4394 23.7669C48.4394 24.3256 48.3152 24.9679 48.0669 25.6938C47.8233 26.4196 47.5559 27.0691 47.2646 27.6421C46.4814 29.1846 46.0899 30.2065 46.0899 30.7079C46.0899 31.0279 46.1854 31.281 46.3764 31.4672C46.5674 31.6487 46.768 31.7585 46.9781 31.7967C47.1882 31.8301 47.3243 31.8564 47.3864 31.8755C47.4532 31.8898 47.5273 31.9137 47.6084 31.9471C47.7612 32.0044 47.8377 32.1023 47.8377 32.2408C47.8377 32.5799 47.4676 32.876 46.7274 33.129C45.992 33.3821 45.0846 33.5087 44.0054 33.5087C42.5728 33.5087 41.8565 32.9762 41.8565 31.9113C41.8565 31.4386 41.9759 30.8488 42.2146 30.142C42.4534 29.4305 42.716 28.7715 43.0026 28.165C43.7619 26.5462 44.1415 25.4645 44.1415 24.9202C44.1415 24.7196 44.0818 24.5572 43.9624 24.4331C43.8478 24.3089 43.6663 24.2468 43.418 24.2468C42.9835 24.2468 42.4319 24.4187 41.7634 24.7626C41.5771 25.4884 41.2166 26.4889 40.6817 27.7639C40.1469 29.0342 39.7649 30.0489 39.5356 30.8082C39.3064 31.5627 39.1775 32.2122 39.1488 32.7566C39.1393 32.9142 39.0939 33.0455 39.0127 33.1505C38.9363 33.2556 38.836 33.3081 38.7119 33.3081L35.8037 33.3511C35.2927 33.3511 34.9799 33.2651 34.8653 33.0932C34.8128 33.0121 34.7865 32.8927 34.7865 32.7351C34.7865 32.5775 34.8414 32.2695 34.9513 31.811C35.0611 31.3526 35.2736 30.7151 35.5888 29.8985C35.9087 29.0771 36.212 28.3632 36.4985 27.7567C37.2148 26.2238 37.5729 25.2688 37.5729 24.8915C37.5729 24.4569 37.3103 24.2397 36.785 24.2397C36.2597 24.2397 35.6294 24.445 34.894 24.8557C34.7316 25.4717 34.4284 26.3217 33.9842 27.4057C33.5449 28.485 33.1605 29.4687 32.831 30.3569C32.5063 31.2452 32.3439 31.9113 32.3439 32.3554L32.3654 32.8282C32.3654 32.9762 32.2842 33.0932 32.1218 33.1792C31.9595 33.2651 31.79 33.3081 31.6133 33.3081L28.9558 33.3511C28.4257 33.3511 28.1033 33.2604 27.9887 33.0789C27.9362 32.9882 27.9099 32.8497 27.9099 32.6634C27.9099 32.4724 27.9505 32.2002 28.0317 31.8469C28.1129 31.4935 28.3708 30.8034 28.8053 29.7767C29.2447 28.7452 29.6434 27.7878 30.0016 26.9043C30.3645 26.0209 30.546 25.4359 30.546 25.1494C30.546 24.8628 30.5149 24.6718 30.4528 24.5763C30.3908 24.4808 30.2953 24.4331 30.1663 24.4331ZM52.1997 25.8514L55.4374 25.7726C55.5616 25.7726 55.6547 25.8108 55.7168 25.8872C55.7788 25.9588 55.8099 26.0686 55.8099 26.2167C55.8099 26.3599 55.6762 26.7372 55.4087 27.3484C55.1461 27.9549 54.8811 28.602 54.6136 29.2896C54.3462 29.9725 54.2125 30.4715 54.2125 30.7867C54.2125 31.3789 54.5277 31.6749 55.158 31.6749C55.4589 31.6749 55.7884 31.6367 56.1465 31.5603C56.2612 31.1544 56.4522 30.6172 56.7196 29.9486C57.3977 28.2725 57.806 26.9974 57.9445 26.1235C57.9684 25.9469 58.0949 25.8585 58.3241 25.8585C59.0166 25.8585 59.7448 25.8442 60.5089 25.8155C61.2729 25.7869 61.7123 25.7726 61.8269 25.7726C61.9463 25.7726 62.037 25.806 62.0991 25.8728C62.1659 25.9349 62.1994 25.9946 62.1994 26.0519C62.1994 26.2811 62.0513 26.7658 61.7552 27.506C61.4592 28.2462 61.1631 29.0127 60.867 29.8054C60.5709 30.5933 60.4229 31.1687 60.4229 31.5317C60.4229 31.8946 60.5829 32.0761 60.9028 32.0761C61.2276 32.0761 61.6741 31.9901 62.2423 31.8182C62.8154 31.6415 63.2141 31.4911 63.4386 31.3669C63.6678 31.2428 63.8158 31.1807 63.8827 31.1807C64.0641 31.1807 64.1549 31.2666 64.1549 31.4386C64.1549 31.6105 64.0259 31.7752 63.7681 31.9328C63.515 32.0856 63.207 32.2432 62.844 32.4056C62.4859 32.5632 62.0537 32.7303 61.5475 32.907C60.3823 33.3081 59.1956 33.5087 57.9875 33.5087C56.7793 33.5087 56.0988 33.184 55.946 32.5345C55.4828 32.7255 55.1031 32.876 54.8071 32.9858C54.511 33.0908 54.1003 33.2031 53.575 33.3225C53.0497 33.4466 52.5674 33.5087 52.1281 33.5087C50.7241 33.5087 50.0221 32.9356 50.0221 31.7896C50.0221 31.3932 50.0985 30.9133 50.2513 30.3498C50.4041 29.7815 50.5737 29.2681 50.7599 28.8097C51.2518 27.592 51.4977 26.8375 51.4977 26.5462C51.4977 26.2501 51.5407 26.0615 51.6266 25.9803C51.7126 25.8943 51.9036 25.8514 52.1997 25.8514ZM68.259 33.5015C68.1397 33.5063 67.963 33.5087 67.729 33.5087C66.6306 33.5087 65.5944 33.406 64.6202 33.2007C63.6508 32.9953 63.0777 32.7566 62.901 32.4844C62.8437 32.3984 62.8151 32.291 62.8151 32.162C62.8151 32.0331 62.9679 31.8278 63.2735 31.546C63.5792 31.2595 63.7893 31.1162 63.9039 31.1162C64.0185 31.1162 64.1355 31.1592 64.2549 31.2452C64.379 31.3263 64.5151 31.4266 64.6632 31.546C64.8112 31.6654 64.976 31.7848 65.1574 31.9042C65.592 32.1907 66.1149 32.3339 66.7261 32.3339C66.9697 32.3339 67.1655 32.2719 67.3135 32.1477C67.4663 32.0235 67.5427 31.8683 67.5427 31.6821C67.5427 31.4911 67.4783 31.3263 67.3493 31.1879C67.2252 31.0494 67.0604 30.93 66.8551 30.8297C66.6545 30.7246 66.4324 30.622 66.1889 30.5217C65.9454 30.4166 65.6994 30.3044 65.4511 30.185C65.2076 30.0609 64.9831 29.9271 64.7778 29.7839C64.3241 29.4639 64.0973 29.0676 64.0973 28.5948C64.0973 28.1173 64.2405 27.7042 64.5271 27.3556C64.8184 27.007 65.1837 26.7276 65.623 26.5175C66.0624 26.3074 66.559 26.1307 67.1129 25.9875C68.0871 25.7439 69.0064 25.6221 69.8707 25.6221C70.7399 25.6221 71.5469 25.6675 72.2919 25.7582C73.0416 25.8442 73.5573 25.9731 73.8391 26.145C73.9155 26.188 73.9537 26.3026 73.9537 26.4889C73.9537 26.6703 73.8892 26.933 73.7603 27.2768C73.6314 27.6159 73.4666 27.931 73.266 28.2223C73.0702 28.5089 72.8936 28.6521 72.736 28.6521C72.6739 28.6521 72.6214 28.6259 72.5784 28.5733C72.1247 28.0289 71.683 27.6111 71.2532 27.3198C70.8282 27.0237 70.365 26.8757 69.8636 26.8757C69.4815 26.8757 69.207 26.9545 69.0398 27.1121C68.8774 27.2649 68.7963 27.4248 68.7963 27.592C68.7963 27.7591 68.887 27.9191 69.0685 28.0719C69.2547 28.2247 69.4839 28.3632 69.7561 28.4874C70.0331 28.6115 70.3316 28.7572 70.6515 28.9243C70.9762 29.0867 71.2747 29.2538 71.5469 29.4257C71.8239 29.5929 72.0531 29.8054 72.2345 30.0632C72.4208 30.3163 72.5139 30.6363 72.5139 31.0231C72.5139 31.4099 72.373 31.7872 72.0913 32.1549C73.2756 31.9161 74.202 31.6224 74.8706 31.2738C74.9852 31.2117 75.0831 31.1807 75.1643 31.1807C75.3457 31.1807 75.4364 31.2714 75.4364 31.4529C75.4364 31.6057 75.3433 31.7466 75.1571 31.8755C74.9708 31.9997 74.6628 32.1525 74.233 32.3339C73.8033 32.5106 73.2923 32.6897 72.7001 32.8712C71.3201 33.2914 69.8397 33.5015 68.259 33.5015ZM81.7325 23.1222C81.7325 23.6332 81.4484 24.0797 80.8801 24.4617C80.3166 24.839 79.7197 25.0276 79.0893 25.0276C78.4638 25.0276 77.9767 24.901 77.6281 24.648C77.2795 24.3901 77.1052 24.0773 77.1052 23.7096C77.1052 23.3419 77.2389 23.0076 77.5063 22.7068C77.7737 22.4059 78.1199 22.1695 78.5449 21.9976C78.9747 21.8257 79.4403 21.7397 79.9417 21.7397C80.4432 21.7397 80.8658 21.8735 81.2096 22.1409C81.5582 22.4035 81.7325 22.7306 81.7325 23.1222ZM79.7197 32.0116C80.0444 32.0116 80.4838 31.9352 81.0377 31.7824C81.5964 31.6248 82.0023 31.4863 82.2554 31.3669C82.5085 31.2428 82.6852 31.1807 82.7855 31.1807C82.9861 31.1807 83.0863 31.281 83.0863 31.4815C83.0863 31.5723 83.0123 31.6749 82.8643 31.7896C82.3772 32.1525 81.5009 32.5297 80.2354 32.9213C78.97 33.3129 77.8406 33.5087 76.8473 33.5087C76.2313 33.5087 75.7155 33.4108 75.3001 33.215C74.8846 33.0192 74.6769 32.7208 74.6769 32.3196C74.6769 32.0761 74.8846 31.4792 75.3001 30.5288C76.0832 28.7285 76.4748 27.3723 76.4748 26.4602L76.4676 26.188C76.4676 25.9492 76.6993 25.8299 77.1625 25.8299L80.701 25.7511C80.8252 25.7511 80.9183 25.7893 80.9804 25.8657C81.0425 25.9373 81.0735 26.0185 81.0735 26.1092C81.0735 26.4387 80.9231 26.9831 80.6222 27.7424C80.3214 28.4969 80.0205 29.2395 79.7197 29.9701C79.4188 30.7008 79.2684 31.2237 79.2684 31.5388C79.2684 31.854 79.4188 32.0116 79.7197 32.0116ZM86.9541 28.5447C86.7344 29.132 86.6246 29.6717 86.6246 30.1635C86.6246 30.6554 86.6748 31.0231 86.775 31.2666C86.8753 31.5054 87.0257 31.6893 87.2263 31.8182C87.9092 32.248 89.2606 32.2719 91.2806 31.8898C92.2405 31.7084 92.9377 31.546 93.3722 31.4027C93.8116 31.2547 94.0694 31.1807 94.1459 31.1807C94.313 31.1807 94.3966 31.2619 94.3966 31.4242C94.3966 31.5866 94.27 31.7513 94.0169 31.9185C93.3484 32.353 92.4052 32.7279 91.1875 33.0431C89.9698 33.3535 88.6088 33.5087 87.1045 33.5087C85.6051 33.5087 84.4661 33.2413 83.6877 32.7064C82.9094 32.1716 82.5202 31.4314 82.5202 30.4859C82.5202 29.8985 82.6419 29.3446 82.8855 28.824C83.1338 28.3035 83.4705 27.8522 83.8955 27.4702C84.3253 27.0834 84.8243 26.7491 85.3926 26.4674C86.5291 25.9039 87.8185 25.6221 89.2606 25.6221C90.9416 25.6221 92.1211 25.8155 92.7992 26.2023C92.8756 26.2644 92.9138 26.3814 92.9138 26.5533C92.9138 26.7205 92.8398 26.9998 92.6917 27.3914C92.5437 27.783 92.3479 28.1459 92.1044 28.4802C91.8656 28.8145 91.6459 28.9816 91.4454 28.9816C91.2448 28.9816 91.0848 28.8742 90.9654 28.6593C90.8461 28.4444 90.7458 28.2701 90.6646 28.1364C90.5834 27.9979 90.4712 27.8355 90.3279 27.6493C90.1847 27.463 90.0486 27.3222 89.9196 27.2267C89.7955 27.1312 89.6427 27.0476 89.4612 26.976C89.2797 26.9043 89.0577 26.8685 88.795 26.8685C88.5372 26.8685 88.2769 26.9473 88.0143 27.1049C87.7564 27.2577 87.5439 27.4583 87.3767 27.7066C87.2096 27.9501 87.0687 28.2295 86.9541 28.5447Z" fill="white"/>
<path d="M111.706 31.8622C111.578 31.4758 111.587 30.7822 111.706 30.2422L106.182 29.7021L100.123 32.2222C101.192 33.3022 106.004 34.3822 108.498 34.2022C108.77 34.1826 113.131 33.8422 113.666 33.3022C112.953 32.9422 111.884 32.4022 111.706 31.8622Z" fill="#EAE8F2"/>
<ellipse cx="104.758" cy="24.6622" rx="8.90985" ry="9.0001" fill="#EAE8F2"/>
<ellipse cx="0.571187" cy="0.764717" rx="0.571187" ry="0.764717" transform="matrix(0.836413 0.5481 -0.540379 0.841422 101.664 22.1421)" fill="#262626"/>
<ellipse cx="0.569783" cy="0.766577" rx="0.569783" ry="0.766577" transform="matrix(0.972292 -0.23377 0.229353 0.973343 106.182 22.4087)" fill="#262626"/>
<path d="M102.053 25.6273L101.985 25.1443C101.94 24.8236 101.665 24.5852 101.341 24.5852C101.244 24.5852 101.146 24.6047 101.064 24.6573C100.943 24.7347 100.848 24.8261 100.773 24.9198C100.511 25.2466 100.477 25.7102 100.576 26.1173C100.99 27.8242 102.533 28.5639 103.332 28.7252C104.066 28.818 104.741 28.8161 105.224 28.7871C105.626 28.7629 106.023 28.6626 106.366 28.4509C107.236 27.9131 107.826 27.0629 108.136 26.4487C108.274 26.1752 108.321 25.8685 108.321 25.5622V25.3665C108.321 25.2573 108.309 25.1485 108.285 25.0419C108.195 24.6361 107.916 24.2984 107.501 24.3225C107.303 24.334 107.106 24.3782 106.985 24.4761C106.912 24.5356 106.883 24.631 106.857 24.7221L106.581 25.6975C106.556 25.7849 106.476 25.8452 106.386 25.8452C106.274 25.8452 106.183 25.7538 106.179 25.6418C106.164 25.1965 106.096 24.972 106.025 24.8608C105.939 24.7283 105.745 24.7654 105.587 24.7639C104.619 24.7547 102.914 24.7086 102.797 24.9452C102.653 25.2367 102.586 25.5283 102.503 25.7243C102.47 25.8026 102.389 25.8452 102.304 25.8452C102.178 25.8452 102.071 25.7523 102.053 25.6273Z" fill="#262626"/>
<path d="M96.1086 25.6419C96.0892 25.4996 96.083 25.3715 96.0865 25.2567C96.1042 24.6892 96.709 24.3886 96.9816 24.8867C97.5418 25.9109 98.2286 28.3299 98.6292 29.9468C98.6775 30.142 98.7688 30.3225 98.8809 30.4894C98.8907 30.5039 98.8999 30.5179 98.9088 30.5316C99.1881 30.9617 100.077 31.2923 100.127 30.7819C100.143 30.6136 99.4364 27.7883 98.856 25.6664C98.6471 24.9026 98.5407 24.1641 97.9836 23.6013C97.5228 23.1358 96.722 22.8554 96.0825 22.9979C94.6425 23.3189 94.7809 24.0277 94.7809 24.4818C94.7809 24.8659 94.8459 25.6995 94.9759 26.3745C95.0455 26.7359 95.4093 26.9332 95.7661 26.8431C95.8219 26.829 95.8774 26.8101 95.9226 26.7745C95.9973 26.7155 96.0524 26.6373 96.0931 26.5552C96.2314 26.2759 96.1506 25.9507 96.1086 25.6419Z" fill="#4B465F"/>
<path d="M105.71 15.832C105.833 15.77 105.99 15.7455 106.182 15.8422C106.573 16.0397 107.17 16.0102 107.432 15.6584L107.865 15.0744C108.222 14.5941 108.889 14.4708 109.394 14.7918L112.268 16.6201C112.85 16.9903 113.037 17.7533 112.692 18.3505L112.393 18.8695C112.209 19.1878 112.313 19.5945 112.628 19.785L112.659 19.8039C112.841 19.9146 112.953 20.1127 112.953 20.3264C112.953 20.5569 112.823 20.7678 112.618 20.8717L112.583 20.8892C112.37 20.9965 112.117 20.9838 111.917 20.8558L105.816 16.9635C105.6 16.8256 105.469 16.5871 105.469 16.3308C105.469 16.1331 105.533 15.9211 105.71 15.832Z" fill="#353143"/>
</svg>
