<svg width="119" height="54" viewBox="0 0 119 54" fill="none" xmlns="http://www.w3.org/2000/svg">
<path d="M34.7899 24.2109L33.9447 24.3828C33.8396 24.3828 33.7609 24.3685 33.7083 24.3398C33.6558 24.3112 33.6295 24.2515 33.6295 24.1608C33.6295 23.9411 33.8516 23.6522 34.2957 23.294C34.7398 22.9359 35.3463 22.6064 36.1151 22.3055C36.8887 22.0047 37.5836 21.8542 38.1996 21.8542C38.8204 21.8542 39.2621 21.9617 39.5247 22.1766C39.7922 22.3915 39.9259 22.8093 39.9259 23.4301L39.9044 23.7525C40.8547 23.017 41.7071 22.4918 42.4616 22.1766C43.2161 21.8614 43.9539 21.7038 44.675 21.7038C45.4009 21.7038 45.9596 21.8566 46.3512 22.1623C46.7428 22.4631 46.9385 22.9 46.9385 23.4731C46.9385 24.0605 46.6616 25.0012 46.1076 26.2954C45.8784 26.8302 45.6492 27.3603 45.42 27.8856C44.866 29.1654 44.5891 29.9987 44.5891 30.3855C44.5891 31.0731 44.9305 31.4767 45.6134 31.596C45.9811 31.6581 46.1936 31.7274 46.2509 31.8038C46.3082 31.8754 46.3368 31.947 46.3368 32.0187C46.3368 32.3577 45.9668 32.6538 45.2266 32.9069C44.4912 33.16 43.6674 33.2865 42.7553 33.2865C40.9598 33.2865 40.062 32.7541 40.062 31.6892C40.062 30.9442 40.3199 29.9629 40.8356 28.7451C41.0505 28.2342 41.2654 27.7351 41.4803 27.248C41.996 26.0781 42.2539 25.2615 42.2539 24.7983C42.2539 24.3303 41.8933 24.0963 41.1723 24.0963C40.752 24.0963 40.2793 24.2443 39.754 24.5404C39.52 25.462 39.0162 26.8326 38.2426 28.652C37.5358 30.3043 37.1824 31.4647 37.1824 32.1333C37.1824 32.1333 37.1896 32.2909 37.2039 32.606C37.2039 32.7541 37.1227 32.8711 36.9604 32.957C36.798 33.043 36.6285 33.086 36.4518 33.086L33.5794 33.1289C33.0493 33.1289 32.727 33.0382 32.6124 32.8567C32.5598 32.766 32.5336 32.6275 32.5336 32.4413C32.5336 32.2503 32.5742 31.9805 32.6553 31.6319C32.7365 31.2785 32.9944 30.5884 33.429 29.5617C33.8683 28.5302 34.267 27.5704 34.6252 26.6822C34.9881 25.7939 35.1696 25.209 35.1696 24.9272C35.1696 24.6407 35.1386 24.4497 35.0765 24.3542C35.0144 24.2586 34.9189 24.2109 34.7899 24.2109ZM59.9393 30.9585C60.1064 30.9585 60.19 31.0373 60.19 31.1949C60.19 31.3477 60.0754 31.491 59.8461 31.6247C59.6217 31.7536 59.3423 31.8945 59.0081 32.0473C58.6738 32.1953 58.213 32.372 57.6256 32.5774C56.2741 33.0501 54.7484 33.2865 53.0484 33.2865C49.8202 33.2865 48.2061 32.2932 48.2061 30.3067C48.2061 29.3373 48.5117 28.4777 49.123 27.728C49.739 26.9735 50.5628 26.398 51.5943 26.0017C52.6257 25.6005 53.7504 25.4 54.9681 25.4C56.1858 25.4 57.0764 25.5886 57.6399 25.9658C58.2082 26.3431 58.4923 26.8612 58.4923 27.5202C58.4923 28.1983 58.2201 28.7523 57.6757 29.1821C57.1361 29.6119 56.4174 29.9318 55.5196 30.1419C54.6171 30.352 53.5832 30.5001 52.418 30.586C52.4944 31.3262 53.0245 31.7871 54.0082 31.9685C54.2613 32.0115 54.5287 32.033 54.8105 32.033C55.9279 32.033 57.5396 31.6963 59.6456 31.023C59.7745 30.98 59.8724 30.9585 59.9393 30.9585ZM52.4252 29.7981C53.2561 29.5689 53.9127 29.2179 54.395 28.7451C54.8773 28.2724 55.1185 27.7017 55.1185 27.0331C55.1185 26.8565 55.0612 26.7156 54.9466 26.6105C54.832 26.5055 54.6577 26.4529 54.4237 26.4529C54.1945 26.4529 53.9533 26.5532 53.7002 26.7538C53.4519 26.9544 53.2418 27.217 53.0699 27.5417C52.7069 28.2151 52.492 28.9672 52.4252 29.7981ZM61.6295 25.6292L65.4187 25.5504C65.605 25.5504 65.6981 25.6435 65.6981 25.8298C65.6981 25.9396 65.6408 26.0661 65.5262 26.2094C65.1155 26.7251 64.7693 27.3101 64.4875 27.9644C64.2106 28.6186 64.0721 29.2847 64.0721 29.9629C64.0721 30.6744 64.1843 31.1209 64.4087 31.3023C64.5042 31.3788 64.626 31.417 64.7741 31.417C65.0845 31.417 65.3758 31.2952 65.648 31.0516C65.9249 30.8081 66.1589 30.5001 66.3499 30.1276C66.5457 29.7551 66.7224 29.3253 66.88 28.8382C67.1426 27.9978 67.3337 27.0881 67.453 26.1091C67.4626 25.9945 67.5032 25.8871 67.5748 25.7868C67.6512 25.6817 67.7706 25.6292 67.933 25.6292L71.7222 25.5504C71.9085 25.5504 72.0016 25.6292 72.0016 25.7868C72.0016 25.9109 71.9443 26.0518 71.8297 26.2094C70.8603 27.5561 70.3756 28.8573 70.3756 30.1133C70.3756 30.9346 70.6167 31.3453 71.0991 31.3453C71.4668 31.3453 71.8082 31.1901 72.1234 30.8797C72.4386 30.5693 72.6988 30.1634 72.9042 29.662C73.3435 28.5971 73.5632 27.4128 73.5632 26.1091C73.5632 25.8321 73.7231 25.6722 74.0431 25.6292C74.1481 25.6149 74.5851 25.5981 75.3539 25.579C76.1275 25.5599 76.6242 25.5504 76.8439 25.5504C77.0635 25.5504 77.1734 25.6507 77.1734 25.8512C77.1734 26.5675 76.9752 27.2886 76.5788 28.0145C76.7985 28.0575 77.0205 28.079 77.245 28.079C77.9947 28.079 78.6776 27.907 79.2936 27.5632C79.4273 27.4868 79.5396 27.4486 79.6303 27.4486C79.8213 27.4486 79.9168 27.537 79.9168 27.7136C79.9168 27.8856 79.8141 28.0503 79.6088 28.2079C78.9212 28.7332 77.9947 28.9958 76.8295 28.9958C76.5191 28.9958 76.2422 28.972 75.9986 28.9242L75.6763 29.3612C75.1176 30.1013 74.4371 30.789 73.6348 31.4241C72.8373 32.0545 72.0231 32.5535 71.1922 32.9212C70.366 33.2841 69.6306 33.4656 68.9859 33.4656C68.5705 33.4656 68.1622 33.2841 67.7611 32.9212C67.3647 32.5583 67.0448 32.0975 66.8012 31.5387C66.0706 32.1404 65.3304 32.6251 64.5807 32.9928C63.8309 33.3558 63.1743 33.5372 62.6108 33.5372C61.8229 33.5372 61.1758 33.1958 60.6696 32.5129C60.1634 31.83 59.9103 30.937 59.9103 29.8339C59.9103 29.3659 60.0082 28.7332 60.204 27.9357C60.4046 27.1382 60.6386 26.5198 60.906 26.0805C61.0158 25.9038 61.1185 25.7844 61.214 25.7223C61.3095 25.6602 61.448 25.6292 61.6295 25.6292ZM82.6027 33.2794C82.4833 33.2841 82.3066 33.2865 82.0726 33.2865C80.9743 33.2865 79.938 33.1839 78.9638 32.9785C77.9944 32.7732 77.4214 32.5344 77.2447 32.2622C77.1874 32.1762 77.1587 32.0688 77.1587 31.9399C77.1587 31.8109 77.3116 31.6056 77.6172 31.3238C77.9228 31.0373 78.1329 30.8941 78.2475 30.8941C78.3621 30.8941 78.4791 30.937 78.5985 31.023C78.7227 31.1042 78.8588 31.2045 79.0068 31.3238C79.1549 31.4432 79.3196 31.5626 79.5011 31.682C79.9356 31.9685 80.4585 32.1118 81.0698 32.1118C81.3133 32.1118 81.5091 32.0497 81.6572 31.9255C81.81 31.8014 81.8864 31.6462 81.8864 31.4599C81.8864 31.2689 81.8219 31.1042 81.693 30.9657C81.5688 30.8272 81.4041 30.7078 81.1987 30.6075C80.9982 30.5025 80.7761 30.3998 80.5326 30.2995C80.289 30.1945 80.0431 30.0822 79.7948 29.9629C79.5512 29.8387 79.3268 29.705 79.1214 29.5617C78.6678 29.2418 78.4409 28.8454 78.4409 28.3726C78.4409 27.8951 78.5842 27.482 78.8707 27.1334C79.162 26.7848 79.5273 26.5055 79.9667 26.2954C80.406 26.0852 80.9026 25.9085 81.4566 25.7653C82.4308 25.5217 83.35 25.4 84.2144 25.4C85.0835 25.4 85.8905 25.4453 86.6355 25.5361C87.3852 25.622 87.901 25.751 88.1827 25.9229C88.2591 25.9658 88.2973 26.0805 88.2973 26.2667C88.2973 26.4482 88.2329 26.7108 88.1039 27.0546C87.975 27.3937 87.8102 27.7089 87.6097 28.0002C87.4139 28.2867 87.2372 28.43 87.0796 28.43C87.0175 28.43 86.965 28.4037 86.922 28.3512C86.4684 27.8068 86.0266 27.3889 85.5969 27.0976C85.1718 26.8015 84.7086 26.6535 84.2072 26.6535C83.8252 26.6535 83.5506 26.7323 83.3835 26.8899C83.2211 27.0427 83.1399 27.2027 83.1399 27.3698C83.1399 27.537 83.2306 27.6969 83.4121 27.8497C83.5984 28.0026 83.8276 28.141 84.0998 28.2652C84.3767 28.3894 84.6752 28.535 84.9952 28.7021C85.3199 28.8645 85.6183 29.0317 85.8905 29.2036C86.1675 29.3707 86.3967 29.5832 86.5782 29.8411C86.7644 30.0942 86.8576 30.4141 86.8576 30.8009C86.8576 31.1877 86.7167 31.565 86.4349 31.9327C87.6192 31.6939 88.5457 31.4002 89.2142 31.0516C89.3288 30.9896 89.4267 30.9585 89.5079 30.9585C89.6894 30.9585 89.7801 31.0493 89.7801 31.2307C89.7801 31.3835 89.687 31.5244 89.5007 31.6533C89.3145 31.7775 89.0065 31.9303 88.5767 32.1118C88.1469 32.2885 87.6359 32.4675 87.0438 32.649C85.6637 33.0692 84.1833 33.2794 82.6027 33.2794Z" fill="white"/>
<path d="M77.6858 28.0866C77.8183 27.8117 77.8794 27.295 77.8437 26.8819L82.0043 27.0188L86.2641 29.4834C85.3638 30.1823 81.6806 30.5164 79.843 30.1394C79.6426 30.0983 76.4327 29.4201 76.0878 28.9664C76.6529 28.7682 77.5006 28.4708 77.6858 28.0866Z" fill="#EAE8F2"/>
<ellipse cx="6.68239" cy="6.75008" rx="6.68239" ry="6.75008" transform="matrix(-0.991518 -0.129968 -0.129968 0.991518 91.0586 17.5859)" fill="#EAE8F2"/>
<ellipse cx="0.42839" cy="0.573538" rx="0.42839" ry="0.573538" transform="matrix(-0.900554 0.434744 0.426437 0.904517 86.1035 21.8374)" fill="#262626"/>
<ellipse cx="0.427337" cy="0.574933" rx="0.427337" ry="0.574933" transform="matrix(-0.933663 -0.358154 -0.353911 0.935279 82.7168 21.5947)" fill="#262626"/>
<path d="M85.4743 24.3911L85.5722 24.0386C85.6371 23.8045 85.8645 23.654 86.1053 23.6856C86.1779 23.6951 86.2488 23.7191 86.3048 23.7663C86.3871 23.8356 86.4487 23.9128 86.4955 23.9898C86.6585 24.2584 86.6383 24.6064 86.5252 24.8995C86.0508 26.1284 84.8314 26.5281 84.2218 26.5702C83.6666 26.5676 83.1645 26.5004 82.8082 26.4317C82.5117 26.3746 82.2263 26.2613 81.9922 26.0705C81.3975 25.5857 81.0416 24.896 80.8712 24.409C80.7953 24.1922 80.7898 23.9596 80.8197 23.7318L80.8388 23.5862C80.8494 23.505 80.869 23.4252 80.8971 23.3483C81.0041 23.0554 81.2438 22.8314 81.5502 22.8898C81.6968 22.9177 81.8386 22.9697 81.9191 23.0543C81.968 23.1057 81.9802 23.1795 81.9905 23.2498L82.1006 24.002C82.1105 24.0694 82.1639 24.122 82.2314 24.1309C82.3147 24.1418 82.3908 24.0826 82.4046 23.9997C82.4597 23.6701 82.5317 23.5097 82.5959 23.434C82.6724 23.3438 82.8132 23.3903 82.9307 23.4046C83.6513 23.4921 84.9238 23.6241 84.9878 23.8114C85.0667 24.0423 85.0877 24.2656 85.1304 24.4194C85.1475 24.4809 85.2032 24.5204 85.2665 24.5287C85.3603 24.541 85.4489 24.4823 85.4743 24.3911Z" fill="#262626"/>
<path d="M89.8934 24.9815C89.9216 24.8776 89.9388 24.783 89.9473 24.6973C89.9895 24.2735 89.569 23.991 89.3178 24.3349C88.8013 25.0419 88.0548 26.7738 87.5993 27.9372C87.5443 28.0776 87.4589 28.2029 87.3592 28.3161C87.3506 28.3259 87.3423 28.3355 87.3344 28.3448C87.0847 28.6374 86.3915 28.7966 86.4042 28.4122C86.4083 28.2855 87.2094 26.2533 87.8479 24.732C88.0777 24.1844 88.2288 23.6455 88.6979 23.2813C89.086 22.98 89.7088 22.8496 90.1704 23.0179C91.2101 23.397 91.038 23.9106 90.9937 24.2483C90.9563 24.5339 90.8267 25.1474 90.6642 25.6368C90.5772 25.8987 90.2875 26.01 90.0309 25.9082C89.9908 25.8923 89.9514 25.8728 89.9213 25.8419C89.8714 25.7908 89.8381 25.7273 89.8158 25.6623C89.7402 25.4411 89.832 25.2071 89.8934 24.9815Z" fill="#4B465F"/>
<path d="M83.7086 16.7503C83.6233 16.6922 83.5088 16.6586 83.357 16.7119C83.0469 16.8207 82.6051 16.7405 82.4452 16.4534L82.1796 15.9768C81.9613 15.5849 81.4773 15.4281 81.0706 15.6177L78.7547 16.6971C78.2858 16.9156 78.0724 17.4648 78.2707 17.9425L78.4429 18.3577C78.5486 18.6122 78.4313 18.9046 78.1791 19.0156L78.1541 19.0266C78.0074 19.0911 77.9051 19.2276 77.8843 19.3864C77.8618 19.5579 77.9378 19.7273 78.0807 19.8247L78.1047 19.841C78.2522 19.9415 78.4418 19.9568 78.6034 19.8812L83.5198 17.5814C83.6939 17.4999 83.8144 17.3353 83.8394 17.1447C83.8587 16.9977 83.8312 16.8337 83.7086 16.7503Z" fill="#353143"/>
</svg>
