<svg height="24" viewBox="0 0 24 24" width="24" xmlns="http://www.w3.org/2000/svg">
    <symbol id="svg-fast-2x" viewBox="0 0 24 24">
        <g fill="currentColor" fill-rule="evenodd">
            <path d="m9.024 14.412c1.544 0 2.62.887 2.62 2.159 0 .804-.436 1.497-1.717 2.701l-1.415 1.349v.092h3.24v1.287h-5.337v-1.082l2.415-2.363c1.04-1.015 1.302-1.4 1.302-1.882 0-.595-.482-1.015-1.159-1.015-.718 0-1.21.472-1.21 1.154v.03h-1.435v-.025c0-1.43 1.097-2.405 2.696-2.405zm5.345 1.933 1 1.856h.092l1-1.856h1.63l-1.774 2.794 1.79 2.861h-1.662l-1.051-1.846h-.092l-1.052 1.846h-1.584l1.773-2.794-1.784-2.861h1.713z"></path>
            <path d="m11.574 6.728-5.16 3.611c-.6.409-1.414-.008-1.414-.727v-7.224c0-.719.814-1.136 1.413-.728l5.161 3.621c.501.346.501 1.092 0 1.447zm1.476 2.884v-7.224c0-.719.814-1.136 1.413-.719l5.161 3.612c.501.346.501 1.092 0 1.447l-5.16 3.611c-.6.409-1.414-.008-1.414-.727z"></path>
        </g>
    </symbol>
    <use href="#svg-fast-2x"></use>
</svg>
