<svg height="24" viewBox="0 0 24 24" width="24" xmlns="http://www.w3.org/2000/svg">
    <symbol id="svg-fast-1-5x" viewBox="0 0 24 24">
        <g fill="currentColor" fill-rule="evenodd">
            <path d="m15.61 14.602v1.287h-3.451l-.164 1.902h.092c.313-.451.836-.723 1.569-.723 1.405 0 2.4 1.03 2.4 2.481 0 1.57-1.134 2.64-2.83 2.64-1.61 0-2.708-.968-2.754-2.291h1.43c.088.615.631 1.025 1.334 1.025.794 0 1.343-.533 1.343-1.338 0-.815-.554-1.358-1.338-1.358-.574 0-1.01.25-1.267.666h-1.384l.37-4.291zm-7.334 5.757c.554 0 .907.37.907.887 0 .518-.353.892-.907.892-.549 0-.908-.374-.908-.892 0-.517.36-.887.908-.887zm-2.75-5.757v7.398h-1.548v-5.89h-.093l-1.815 1.25v-1.44l1.913-1.318zm13.07 1.743.999 1.856h.092l1-1.856h1.63l-1.774 2.794 1.79 2.861h-1.661l-1.051-1.846h-.093l-1.05 1.846h-1.585l1.774-2.794-1.784-2.861h1.712z"></path>
            <path d="m11.574 6.728-5.16 3.611c-.6.409-1.414-.008-1.414-.727v-7.224c0-.719.814-1.136 1.413-.728l5.161 3.621c.501.346.501 1.092 0 1.447zm1.476 2.884v-7.224c0-.719.814-1.136 1.413-.719l5.161 3.612c.501.346.501 1.092 0 1.447l-5.16 3.611c-.6.409-1.414-.008-1.414-.727z"></path>
        </g>
    </symbol>
    <use href="#svg-fast-1-5x"></use>
</svg>
