<svg height="24" viewBox="0 0 24 24" width="24" xmlns="http://www.w3.org/2000/svg">
    <symbol id="svg-fast-1-7x" viewBox="0 0 24 24">
        <g fill="currentColor" fill-rule="evenodd">
            <path d="m8.525 20.36c.553 0 .907.369.907.886 0 .518-.354.892-.907.892-.55 0-.908-.374-.908-.892 0-.517.359-.887.908-.887zm-2.75-5.758v7.398h-1.549v-5.89h-.092l-1.815 1.25v-1.44l1.912-1.318zm10.165-.005v1.292l-3.09 6.111h-1.62l3.152-6.034v-.093h-3.732v-1.276h5.291zm2.407 1.748 1 1.856h.092l1-1.856h1.63l-1.774 2.794 1.79 2.861h-1.662l-1.051-1.846h-.092l-1.051 1.846h-1.585l1.774-2.794-1.784-2.861z"></path>
            <path d="m11.574 6.728-5.16 3.611c-.6.409-1.414-.008-1.414-.727v-7.224c0-.719.814-1.136 1.413-.728l5.161 3.621c.501.346.501 1.092 0 1.447zm1.476 2.884v-7.224c0-.719.814-1.136 1.413-.719l5.161 3.612c.501.346.501 1.092 0 1.447l-5.16 3.611c-.6.409-1.414-.008-1.414-.727z"></path>
        </g>
    </symbol>
    <use href="#svg-fast-1-7x"></use>
</svg>
