
<svg height="24" viewBox="0 0 24 24" width="24" xmlns="http://www.w3.org/2000/svg">
    <symbol id="svg-fast-1x" viewBox="0 0 24 24">
        <g fill="currentColor" fill-rule="evenodd">
            <path d="m10.437 14.602v7.398h-1.548v-5.89h-.093l-1.815 1.25v-1.44l1.913-1.318zm3.247 1.743 1 1.856h.092l1-1.856h1.63l-1.774 2.794 1.79 2.861h-1.662l-1.051-1.846h-.093l-1.049 1.846h-1.585l1.774-2.794-1.784-2.861z"></path>
            <path d="m11.574 6.728-5.16 3.611c-.6.409-1.414-.008-1.414-.727v-7.224c0-.719.814-1.136 1.413-.728l5.161 3.621c.501.346.501 1.092 0 1.447zm1.476 2.884v-7.224c0-.719.814-1.136 1.413-.719l5.161 3.612c.501.346.501 1.092 0 1.447l-5.16 3.611c-.6.409-1.414-.008-1.414-.727z"></path>
        </g>
    </symbol>
    <use href="#svg-fast-1x"></use>
</svg>
