<svg height="24" viewBox="0 0 24 24" width="24" xmlns="http://www.w3.org/2000/svg">
    <symbol id="svg-fast-1-3x" viewBox="0 0 24 24">
        <g fill="currentColor" fill-rule="evenodd">
            <path d="m13.154 14.412c1.517 0 2.61.83 2.61 1.994 0 .857-.54 1.523-1.365 1.692v.093c1.016.112 1.651.79 1.651 1.763 0 1.297-1.22 2.236-2.907 2.236-1.65 0-2.768-.913-2.835-2.307h1.482c.046.625.574 1.02 1.369 1.02.774 0 1.312-.436 1.312-1.067 0-.646-.507-1.045-1.338-1.045h-.918v-1.154h.903c.702 0 1.179-.41 1.179-1.015 0-.595-.462-.974-1.184-.974-.718 0-1.195.405-1.236 1.046h-1.43c.05-1.4 1.092-2.282 2.707-2.282zm-4.914 5.948c.554 0 .907.37.907.887 0 .518-.353.892-.907.892-.549 0-.907-.374-.907-.892 0-.517.358-.887.907-.887zm-2.75-5.757v7.397h-1.548v-5.89h-.093l-1.815 1.25v-1.44l1.913-1.318h1.543zm13.141 1.743 1 1.856h.092l1-1.856h1.63l-1.774 2.794 1.791 2.86h-1.661l-1.052-1.846h-.092l-1.051 1.846h-1.585l1.774-2.794-1.784-2.861h1.712z"></path>
            <path d="m11.574 6.728-5.16 3.611c-.6.409-1.414-.008-1.414-.727v-7.224c0-.719.814-1.136 1.413-.728l5.161 3.621c.501.346.501 1.092 0 1.447zm1.476 2.884v-7.224c0-.719.814-1.136 1.413-.719l5.161 3.612c.501.346.501 1.092 0 1.447l-5.16 3.611c-.6.409-1.414-.008-1.414-.727z"></path>
        </g>
    </symbol>
    <use href="#svg-fast-1-3x"></use>
</svg>
