<svg height="24" viewBox="0 0 24 24" width="24" xmlns="http://www.w3.org/2000/svg">
    <symbol id="svg-fullscreen-exit" viewBox="0 0 24 24">
        <path d="m8.25 14.563c.653 0 1.188.534 1.188 1.187v4.563c0 .653-.535 1.187-1.188 1.187a1.191 1.191 0 0 1 -1.188-1.188v-3.375h-3.374a1.191 1.191 0 0 1 -1.188-1.187c0-.653.534-1.188 1.188-1.188zm12.063 0c.653 0 1.187.534 1.187 1.187s-.534 1.188-1.188 1.188h-3.375v3.375c0 .653-.534 1.187-1.187 1.187a1.191 1.191 0 0 1 -1.188-1.188v-4.562c0-.653.535-1.188 1.188-1.188zm-12.063-12.063c.653 0 1.188.534 1.188 1.188v4.562c0 .653-.535 1.188-1.188 1.188h-4.563a1.191 1.191 0 0 1 -1.187-1.188c0-.653.534-1.188 1.188-1.188h3.374v-3.374c0-.653.535-1.187 1.188-1.187zm7.5 0c.653 0 1.188.534 1.188 1.188v3.374h3.375c.653 0 1.187.535 1.187 1.188s-.534 1.188-1.188 1.188h-4.562a1.191 1.191 0 0 1 -1.188-1.188v-4.563c0-.653.535-1.187 1.188-1.187z" fill="currentColor" fill-rule="evenodd"></path>
    </symbol>
    <use href="#svg-fullscreen-exit"></use>
</svg>
