<svg height="24" viewBox="0 0 24 24" width="24" xmlns="http://www.w3.org/2000/svg">
    <symbol id="svg-seek-back-10" viewBox="0 0 24 24">
        <path d="m12.318 1.48v1.968c5.067.196 9.132 4.367 9.132 9.48 0 5.24-4.262 9.5-9.5 9.5-4.511 0-8.428-3.204-9.324-7.675l-.068-.521a.85.85 0 0 1 .73-.954.858.858 0 0 1 .955.73l.06.466c.727 3.625 3.943 6.256 7.647 6.256 4.3 0 7.799-3.5 7.799-7.801 0-4.176-3.302-7.588-7.431-7.782v2.046a.48.48 0 0 1 -.82.34l-2.855-2.857a.478.478 0 0 1 0-.678l2.855-2.857a.48.48 0 0 1 .82.34zm2.202 8.383c.34 0 .65.055.93.165s.52.281.72.514c.202.234.358.532.469.896.112.363.167.8.167 1.305v1.173c0 .508-.054.944-.164 1.307a2.47 2.47 0 0 1 -.464.897 1.776 1.776 0 0 1 -.72.517c-.28.11-.59.165-.93.165s-.65-.055-.93-.165a1.795 1.795 0 0 1 -.72-.517 2.46 2.46 0 0 1 -.47-.897c-.11-.363-.166-.799-.166-1.307v-1.173c0-.506.055-.942.165-1.305a2.42 2.42 0 0 1 .466-.896c.2-.233.44-.405.719-.514.278-.11.587-.165.928-.165zm-4.786.084v6.763h-1.34v-5.167l-1.6.496v-1.09l2.796-1.002zm4.786 1.002a.9.9 0 0 0 -.397.083.716.716 0 0 0 -.294.271c-.081.125-.142.29-.184.494a3.914 3.914 0 0 0 -.062.756v1.54c0 .303.02.56.065.766.043.207.105.375.185.503a.71.71 0 0 0 .297.276.919.919 0 0 0 .399.083.919.919 0 0 0 .399-.083.687.687 0 0 0 .294-.276c.079-.128.14-.296.182-.503.04-.207.062-.463.062-.766v-1.54c0-.3-.021-.552-.062-.756a1.445 1.445 0 0 0 -.186-.494.733.733 0 0 0 -.3-.27.919.919 0 0 0 -.398-.084z" fill="currentColor" fill-rule="evenodd"></path>
    </symbol>
    <use href="#svg-seek-back-10"></use>
</svg>
