<svg height="24" viewBox="0 0 24 24" width="24" xmlns="http://www.w3.org/2000/svg">
    <symbol id="svg-seek-forward-10" viewBox="0 0 24 24">
        <path d="m11.682 1.48a.48.48 0 0 1 .82-.34l2.855 2.858a.478.478 0 0 1 0 .678l-2.855 2.857a.48.48 0 0 1 -.82-.34v-2.046c-4.129.194-7.431 3.606-7.431 7.782 0 4.3 3.499 7.8 7.799 7.8 3.704 0 6.92-2.63 7.647-6.255l.06-.465a.858.858 0 0 1 .954-.731.85.85 0 0 1 .731.954l-.068.52c-.896 4.472-4.813 7.677-9.324 7.677-5.238 0-9.5-4.261-9.5-9.5 0-5.114 4.065-9.286 9.132-9.481zm3.044 8.383c.34 0 .65.055.93.165s.52.281.721.514c.201.234.357.532.468.896.112.363.167.8.167 1.305v1.173c0 .508-.054.944-.164 1.307a2.47 2.47 0 0 1 -.464.897 1.776 1.776 0 0 1 -.719.517c-.28.11-.59.165-.93.165s-.65-.055-.93-.165a1.795 1.795 0 0 1 -.72-.517 2.46 2.46 0 0 1 -.47-.897c-.11-.363-.167-.799-.167-1.307v-1.173c0-.506.055-.942.165-1.305a2.42 2.42 0 0 1 .466-.896c.201-.233.441-.405.72-.514.277-.11.586-.165.927-.165zm-4.785.084v6.763h-1.341v-5.167l-1.6.496v-1.09l2.797-1.002zm4.785 1.002a.9.9 0 0 0 -.397.083.716.716 0 0 0 -.294.271c-.08.125-.142.29-.184.494a3.914 3.914 0 0 0 -.062.756v1.54c0 .303.021.56.065.766.043.207.105.375.185.503a.71.71 0 0 0 .297.276.919.919 0 0 0 .4.083.919.919 0 0 0 .398-.083.687.687 0 0 0 .294-.276c.08-.128.14-.296.182-.503.041-.207.062-.463.062-.766v-1.54c0-.3-.02-.552-.062-.756a1.445 1.445 0 0 0 -.186-.494.733.733 0 0 0 -.299-.27.919.919 0 0 0 -.399-.084z" fill="currentColor" fill-rule="evenodd"></path>
    </symbol>
    <use href="#svg-seek-forward-10"></use>
</svg>
