<svg height="24" viewBox="0 0 24 24" width="24" xmlns="http://www.w3.org/2000/svg">
    <symbol id="svg-wide" viewBox="0 0 24 24">
        <path d="m3.368 4.002 17.068-.002c.892 0 1.215.093 1.54.267.327.174.583.43.757.756s.267.65.267 1.54v10.873c0 .892-.093 1.215-.267 1.54-.174.327-.43.583-.756.757s-.65.267-1.54.267h-16.874c-.892 0-1.215-.093-1.54-.267a1.817 1.817 0 0 1 -.757-.756c-.174-.326-.267-.65-.267-1.54v-10.874c0-.892.093-1.215.267-1.54.174-.327.43-.583.756-.757.301-.16.6-.252 1.345-.265zm15.85 2.498h-14.436c-.446 0-.607.046-.77.134a.909.909 0 0 0 -.378.378c-.077.142-.122.284-.132.616l-.002.154v8.436c0 .446.046.607.134.77.087.163.215.291.378.378.142.077.284.122.616.132l.154.002h14.436c.446 0 .607-.046.77-.134a.909.909 0 0 0 .378-.378c.077-.142.122-.284.132-.616l.002-.154v-8.436c0-.446-.046-.607-.134-.77a.909.909 0 0 0 -.378-.378c-.142-.077-.284-.122-.616-.132z" fill="currentColor"></path>
    </symbol>
    <use href="#svg-wide"></use>
</svg>
