<svg height="24" viewBox="0 0 24 24" width="24" xmlns="http://www.w3.org/2000/svg">
    <symbol id="svg-error" viewBox="0 0 24 24">
        <path d="m12 2c5.43 0 9.848 4.325 9.996 9.72l.004.28c0 5.43-4.325 9.848-9.72 9.996l-.28.004c-5.523 0-10-4.476-10-10 0-5.43 4.325-9.848 9.72-9.996zm0 2-.249.004c-4.295.131-7.751 3.661-7.751 7.996 0 4.41 3.582 8 8 8l.249-.004c4.295-.131 7.751-3.661 7.751-7.996l-.004-.249c-.131-4.295-3.661-7.751-7.996-7.751zm0 10a1.25 1.25 0 1 1 0 2.5 1.25 1.25 0 0 1 0-2.5zm0-7c.552 0 1 .45 1 1.009v3.482c0 .518-.383.944-.883 1.002l-.117.007c-.552 0-1-.45-1-1.009v-3.481c0-.518.383-.944.883-1.002z" fill="currentColor" fill-rule="evenodd"></path>
    </symbol>
    <use href="#svg-error"></use>
</svg>
