<svg height="24" viewBox="0 0 25 24" width="25" xmlns="http://www.w3.org/2000/svg"><symbol id="svg-history" viewBox="0 0 25 24"><path d="m12.993 2.997.267.003c4.69.13 8.61 4.05 8.74 8.74.14 5.09-3.95 9.26-9 9.26-2.09 0-4-.71-5.52-1.91-.47-.36-.5-1.07-.08-1.49l.094-.083a.995.995 0 0 1 1.226.003c1.18.93 2.67 1.48 4.28 1.48 3.9 0 7.05-3.19 7-7.1-.05-3.72-3.18-6.85-6.9-6.9-3.92-.05-7.1 3.1-7.1 7h1.79a.5.5 0 0 1 .36.85l-2.79 2.8c-.2.2-.51.2-.71 0l-2.79-2.8c-.32-.31-.1-.85.35-.85h1.79c0-5.05 4.17-9.14 9.26-9zm-.243 5.003.1.007c.364.05.65.366.65.733v3.4l2.88 1.71c.35.21.47.67.26 1.03-.21.35-.67.47-1.03.26l-3.12-1.85c-.3-.18-.49-.51-.49-.86v-3.68c0-.41.34-.75.75-.75z" fill="currentColor" fill-rule="evenodd" transform="translate(1)"></path></symbol><use href="#svg-history"></use></svg>