<svg height="24" viewBox="0 0 24 24" width="24" xmlns="http://www.w3.org/2000/svg">
    <symbol id="svg-mail" viewBox="0 0 24 24">
        <path d="m22 9.478v8.855c0 .872-.67 1.588-1.523 1.66l-.144.007h-16.666c-.872 0-1.588-.67-1.66-1.523l-.007-.144v-8.855c.16.176.331.34.51.48l.183.132 7.227 4.818c.572.38 1.31.59 2.08.59a3.86 3.86 0 0 0 1.883-.47l.197-.12 7.227-4.818c.186-.124.362-.274.529-.44l.164-.173zm-1.667-5.478c.872 0 1.588.67 1.66 1.523l.007.144v1.25c0 .744-.412 1.104-.976 1.485l-.41.273-7.227 4.817c-.382.255-.884.381-1.387.381-.44 0-.88-.097-1.238-.291l-.149-.09-7.637-5.09c-.52-.352-.912-.685-.969-1.32l-.007-.165v-1.25c0-.872.67-1.588 1.523-1.66l.144-.007z" fill="currentColor" fill-rule="evenodd"></path>
    </symbol>
    <use href="#svg-mail"></use>
</svg>
