<svg fill="currentColor" height="24" viewBox="0 0 24 24" width="24" xmlns="http://www.w3.org/2000/svg">
    <symbol id="svg-onair" viewBox="0 0 24 24">
        <g fill="currentColor">
            <path clip-rule="evenodd" d="m6.034 16.718a6.546 6.546 0 0 1 -1.21-2.08c-.36-.995-.544-1.956-.544-2.883s.183-1.888.543-2.883a6.545 6.545 0 0 1 1.223-2.094c.396-.453 1.06-.411 1.448-.024.415.415.386 1.052.067 1.473a5.731 5.731 0 0 0 -.761 1.387c-.3.764-.444 1.477-.444 2.141 0 .585.147 1.27.457 2.058a6.81 6.81 0 0 0 .787 1.474c.305.427.314 1.05-.092 1.456-.395.395-1.072.438-1.473-.025zm12.966 1.092a9.185 9.185 0 0 0 1.559-2.596c.48-1.203.717-2.355.717-3.459s-.236-2.256-.717-3.459a9.183 9.183 0 0 0 -1.564-2.602c-.355-.413-.373-1.055.036-1.464.396-.395 1.056-.417 1.454.017a10.366 10.366 0 0 1 2.045 3.284c.546 1.412.821 2.82.821 4.224 0 1.419-.26 2.83-.778 4.232a9.473 9.473 0 0 1 -2.088 3.3c-.404.42-1.056.39-1.448 0-.412-.413-.395-1.06-.037-1.477zm-15.48 1.456a10.366 10.366 0 0 1 -2.048-3.287c-.547-1.412-.822-2.82-.822-4.224 0-1.403.275-2.812.821-4.224a10.367 10.367 0 0 1 2.049-3.286c.396-.433 1.054-.412 1.448-.018.411.411.39 1.056.03 1.467a8.79 8.79 0 0 0 -1.567 2.6c-.473 1.203-.705 2.356-.705 3.461s.232 2.258.705 3.46a8.79 8.79 0 0 0 1.567 2.6c.36.412.381 1.057-.03 1.468-.394.394-1.052.415-1.448-.018zm12.917-3.98c.303-.398.559-.86.765-1.39.3-.764.444-1.477.444-2.141 0-.585-.147-1.27-.457-2.058a6.81 6.81 0 0 0 -.79-1.477c-.303-.425-.312-1.046.092-1.45.397-.397 1.078-.435 1.475.034a6.86 6.86 0 0 1 1.197 2.065c.37.996.558 1.958.558 2.886 0 .91-.189 1.868-.558 2.87a6.858 6.858 0 0 1 -1.209 2.094c-.391.46-1.06.423-1.45.034-.414-.414-.384-1.048-.067-1.467z" fill-rule="evenodd"></path>
            <circle cx="12" cy="11.755" r="2.75"></circle>
        </g>
    </symbol>
    <use href="#svg-onair"></use>
</svg>
