<svg height="24" viewBox="0 0 24 24" width="24" xmlns="http://www.w3.org/2000/svg">
    <symbol id="svg-view" viewBox="0 0 24 24">
        <path d="m12 6c-4.09 0-7.585 2.488-9 6 1.415 3.512 4.91 6 9 6s7.585-2.488 9-6c-1.415-3.512-4.91-6-9-6zm0 10c-2.258 0-4.09-1.792-4.09-4s1.831-4 4.09-4 4.09 1.792 4.09 4-1.832 4-4.09 4zm0-6.4c-1.358 0-2.455 1.072-2.455 2.4s1.097 2.4 2.455 2.4 2.455-1.072 2.455-2.4-1.097-2.4-2.455-2.4z" fill="currentColor" fill-rule="evenodd"></path>
    </symbol>
    <use href="#svg-view"></use>
</svg>
