<svg height="24" viewBox="0 0 24 24" width="24" xmlns="http://www.w3.org/2000/svg">
    <symbol id="svg-view-off" viewBox="0 0 24 24">
        <path d="m12 7.997c2.258 0 4.09 1.789 4.09 3.993 0 .407-.08.799-.195 1.166l2.503 2.444a9.43 9.43 0 0 0 2.602-3.618c-1.415-3.498-4.91-5.982-9-5.982-1.04 0-2.037.16-2.978.455l1.775 1.733a4.3 4.3 0 0 1 1.203-.191zm-7.6-2.76a.797.797 0 0 0 0 1.138l1.61 1.591a9.615 9.615 0 0 0 -3.01 4.006 9.675 9.675 0 0 0 9 6.057c1.244 0 2.43-.242 3.526-.662l2.226 2.197a.822.822 0 0 0 1.153 0 .797.797 0 0 0 0-1.139l-13.344-13.189a.832.832 0 0 0 -1.162 0zm7.6 10.773c-2.258 0-4.09-1.809-4.09-4.038 0-.622.146-1.212.4-1.728l1.285 1.268c-.025.145-.05.298-.05.46 0 1.34 1.097 2.423 2.455 2.423.164 0 .31-.024.466-.057l1.285 1.268a3.98 3.98 0 0 1 -1.751.404zm2.41-4.39c-.123-1.06-1.023-1.886-2.16-2z" fill="currentColor" fill-rule="evenodd"></path>
    </symbol>
    <use href="#svg-view-off"></use>
</svg>
